<?xml version="1.0" encoding="utf-8"?>
<!-- Generator: Adobe Illustrator 23.0.2, SVG Export Plug-In . SVG Version: 6.00 Build 0)  -->
<svg version="1.1" id="Ebene_1" xmlns="http://www.w3.org/2000/svg" xmlns:xlink="http://www.w3.org/1999/xlink" x="0px" y="0px"
	 viewBox="0 0 140.6 50" style="enable-background:new 0 0 140.6 50;" xml:space="preserve">
<style type="text/css">
	.st0{fill:#009FE3;}
	.st1{fill:#878787;}
	.st2{fill:#164194;}
	.st3{fill:#FFED00;}
	.st4{clip-path:url(#SVGID_2_);}
	.st5{clip-path:url(#SVGID_4_);}
	.st6{clip-path:url(#SVGID_6_);fill:#144391;}
	.st7{fill:#009640;}
	.st8{fill:#E30A17;}
	.st9{clip-path:url(#SVGID_8_);fill:#010202;}
	.st10{clip-path:url(#SVGID_10_);}
	.st11{fill:#04567E;}
	.st12{fill:#5A595B;}
	.st13{fill:#020203;}
	.st14{fill-rule:evenodd;clip-rule:evenodd;fill:#020203;}
	.st15{fill:#D60F27;}
	.st16{fill-rule:evenodd;clip-rule:evenodd;fill:#015383;}
	.st17{fill-rule:evenodd;clip-rule:evenodd;fill:#FFFFFF;}
</style>
<g>
	<g>
		<path class="st0" d="M113.23,50c-6.65,0-13.1-2.45-19.36-4.82c-3.8-1.44-7.4-2.81-10.98-3.63c-13.43-3.1-26.61-1.02-37.74,1.42
			c-1.64,0.36-3.26,0.78-4.98,1.23c-4.01,1.05-8.16,2.14-12.41,2.29c-1.58,0.06-2.87-1.17-2.93-2.73c-0.05-1.56,1.17-2.87,2.73-2.93
			c3.62-0.12,7.28-1.09,11.17-2.1c1.7-0.45,3.46-0.91,5.21-1.29c11.74-2.57,25.71-4.75,40.23-1.4c3.96,0.91,7.9,2.41,11.71,3.85
			c6.78,2.57,13.18,5,19.43,4.35c7.82-0.81,14.54-6.1,19.99-15.72c0.77-1.36,2.5-1.84,3.86-1.07c1.36,0.77,1.84,2.5,1.07,3.86
			c-6.4,11.3-14.59,17.55-24.33,18.56C115.01,49.96,114.12,50,113.23,50z"/>
	</g>
	<g>
		<path class="st1" d="M2.61,3.65H1.49l0.37-1.46c0.09-0.34,0.16-0.83,0.2-1.19h0.02c0.04,0.36,0.11,0.86,0.19,1.19L2.61,3.65
			L2.61,3.65z M1.36,4.41h1.46L3.2,5.79c0.04,0.15,0.06,0.18,0.14,0.18h0.95c0.09,0,0.17-0.02,0.17-0.07c0-0.03-0.03-0.1-0.03-0.14
			L2.77,0.28c-0.03-0.1-0.05-0.14-0.18-0.14H1.7c-0.14,0-0.15,0.02-0.19,0.13l-1.67,5.47c-0.01,0.03-0.03,0.1-0.03,0.14
			c0.01,0.06,0.06,0.08,0.17,0.08h0.86c0.13,0,0.14-0.03,0.18-0.18L1.36,4.41L1.36,4.41z M9.89,0.32c0-0.15-0.03-0.18-0.18-0.18
			H8.92c-0.14,0-0.18,0.03-0.18,0.18v3.67c0,0.61-0.04,1.2-0.9,1.2c-0.86,0-0.9-0.59-0.9-1.2V0.32c0-0.15-0.03-0.18-0.18-0.18H5.97
			c-0.14,0-0.18,0.03-0.18,0.18v3.67c0,1.27,0.44,2.12,2.05,2.12s2.05-0.85,2.05-2.12V0.32L9.89,0.32z M13.04,3.38h1.44
			c0.14,0,0.18-0.03,0.18-0.18V2.64c0-0.15-0.03-0.18-0.18-0.18h-1.44v-1.4h1.65c0.07,0,0.16-0.01,0.2-0.14l0.16-0.57
			c0.02-0.06,0.03-0.08,0.03-0.12c0-0.08-0.04-0.09-0.21-0.09h-2.79c-0.14,0-0.18,0.03-0.18,0.18v5.46c0,0.15,0.03,0.18,0.18,0.18
			h0.8c0.14,0,0.17-0.03,0.17-0.18V3.38L13.04,3.38z M17.66,2.55V1.04h0.36c0.47,0,0.83,0.18,0.83,0.71c0,0.67-0.42,0.8-0.93,0.8
			H17.66L17.66,2.55z M17.66,5.07V3.44h0.32c0.57,0,1.06,0.09,1.06,0.81c0,0.72-0.49,0.82-1.08,0.82H17.66L17.66,5.07z M16.69,0.14
			c-0.14,0-0.18,0.03-0.18,0.18v5.46c0,0.14,0.03,0.18,0.18,0.18h1.39c1.1,0,2.11-0.23,2.11-1.65c0-0.98-0.66-1.29-1.06-1.4
			c0.32-0.16,0.87-0.43,0.87-1.28c0-1.37-1.16-1.49-1.98-1.49H16.69L16.69,0.14z M23.11,2.67V1.04h0.31c0.44,0,0.93,0.03,0.93,0.77
			c0,0.78-0.47,0.87-1.02,0.87H23.11L23.11,2.67z M23.11,3.56h0.41l1.15,2.29c0.08,0.16,0.15,0.26,0.2,0.26
			c0.03,0,0.09-0.01,0.12-0.02l0.71-0.2c0.08-0.03,0.17-0.05,0.17-0.1c0-0.05-0.04-0.12-0.07-0.16l-1.27-2.27
			c0.31-0.16,0.97-0.48,0.97-1.57c0-1.6-1.33-1.64-1.98-1.64h-1.38c-0.14,0-0.18,0.03-0.18,0.18v5.46c0,0.15,0.03,0.18,0.18,0.18
			h0.79c0.14,0,0.18-0.03,0.18-0.18V3.56L23.11,3.56z M31.4,0.32c0-0.15-0.03-0.18-0.18-0.18h-0.79c-0.14,0-0.18,0.03-0.18,0.18
			v3.67c0,0.61-0.04,1.2-0.9,1.2c-0.86,0-0.9-0.59-0.9-1.2V0.32c0-0.15-0.03-0.18-0.18-0.18h-0.79c-0.14,0-0.18,0.03-0.18,0.18v3.67
			c0,1.27,0.44,2.12,2.05,2.12c1.61,0,2.05-0.85,2.05-2.12V0.32L31.4,0.32z M36.41,4.96c-0.03-0.06-0.06-0.08-0.09-0.08
			c-0.17,0-0.48,0.31-0.95,0.31c-0.88,0-1.05-0.87-1.05-2.31c0-1.46,0.32-1.96,1.05-1.96c0.45,0,0.73,0.4,0.88,0.4
			c0.03,0,0.07-0.03,0.1-0.09l0.31-0.48C36.7,0.7,36.7,0.66,36.7,0.63C36.7,0.47,35.94,0,35.3,0c-1.47,0-2.2,1.15-2.2,3.1
			c0,2.04,0.71,3.01,2.2,3.01c0.83,0,1.41-0.4,1.41-0.54c0-0.04-0.02-0.08-0.04-0.13L36.41,4.96L36.41,4.96z M42.22,0.32
			c0-0.15-0.03-0.18-0.18-0.18h-0.79c-0.14,0-0.18,0.03-0.18,0.18V2.5h-1.62V0.32c0-0.15-0.03-0.18-0.18-0.18h-0.79
			c-0.14,0-0.18,0.03-0.18,0.18v5.46c0,0.15,0.03,0.18,0.18,0.18h0.79c0.14,0,0.18-0.03,0.18-0.18V3.42h1.62v2.37
			c0,0.15,0.03,0.18,0.18,0.18h0.79c0.14,0,0.18-0.03,0.18-0.18V0.32L42.22,0.32z M49.76,3.65h-1.12l0.37-1.46
			c0.08-0.34,0.16-0.83,0.2-1.19h0.02c0.04,0.36,0.11,0.86,0.19,1.19L49.76,3.65L49.76,3.65z M48.51,4.41h1.46l0.37,1.38
			c0.04,0.15,0.06,0.18,0.14,0.18h0.95c0.09,0,0.17-0.02,0.17-0.07c0-0.03-0.03-0.1-0.03-0.14l-1.67-5.48
			c-0.03-0.1-0.05-0.14-0.18-0.14h-0.88c-0.14,0-0.15,0.02-0.19,0.13l-1.67,5.47c-0.01,0.03-0.03,0.1-0.03,0.14
			c0.01,0.06,0.06,0.08,0.17,0.08h0.86c0.13,0,0.14-0.03,0.18-0.18L48.51,4.41L48.51,4.41z M57.62,0.42
			c-0.02-0.23-0.03-0.27-0.18-0.27h-0.82c-0.15,0-0.16,0.02-0.2,0.14L55.7,2.42c-0.19,0.56-0.22,0.69-0.27,1.02h-0.02
			c-0.05-0.33-0.14-0.68-0.25-1.02l-0.69-2.14c-0.04-0.13-0.05-0.14-0.19-0.14h-0.82c-0.14,0-0.18,0.03-0.18,0.18l-0.24,5.46
			c-0.01,0.15,0.03,0.18,0.18,0.18h0.62c0.14,0,0.17-0.03,0.18-0.18l0.09-2.88c0.01-0.31,0.02-1.05,0.02-1.36h0.02
			c0.05,0.31,0.2,1.03,0.3,1.33l0.49,1.66c0.03,0.12,0.04,0.14,0.19,0.14h0.53c0.14,0,0.15-0.03,0.19-0.14l0.52-1.66
			c0.09-0.31,0.25-1.03,0.3-1.33h0.02c0,0.31,0.01,1.05,0.02,1.36l0.07,2.88c0,0.15,0.03,0.18,0.18,0.18h0.75
			c0.14,0,0.18-0.03,0.18-0.18L57.62,0.42L57.62,0.42z"/>
	</g>
	<g>
		<path d="M30.64,21.93h-2.47l0.82-3.22c0.19-0.75,0.36-1.83,0.43-2.62h0.04c0.09,0.79,0.24,1.89,0.41,2.62L30.64,21.93L30.64,21.93
			z M27.89,23.61h3.22l0.82,3.03c0.09,0.34,0.13,0.39,0.32,0.39h2.09c0.19,0,0.37-0.04,0.37-0.15c0-0.07-0.06-0.22-0.07-0.3
			l-3.67-12.06c-0.07-0.22-0.11-0.3-0.39-0.3h-1.94c-0.32,0-0.34,0.04-0.41,0.28l-3.68,12.04c-0.02,0.07-0.07,0.22-0.07,0.32
			c0.02,0.13,0.13,0.17,0.37,0.17h1.89c0.28,0,0.32-0.06,0.39-0.39L27.89,23.61L27.89,23.61z M40.59,19.78v-3.59h0.69
			c0.97,0,2.04,0.06,2.04,1.68c0,1.72-1.03,1.91-2.24,1.91H40.59L40.59,19.78z M40.59,21.74h0.9l2.52,5.03
			c0.19,0.36,0.34,0.58,0.43,0.58c0.08,0,0.19-0.02,0.26-0.04l1.57-0.45c0.19-0.06,0.37-0.11,0.37-0.22s-0.09-0.26-0.15-0.36
			l-2.79-4.99c0.69-0.36,2.13-1.05,2.13-3.46c0-3.51-2.92-3.61-4.36-3.61h-3.03c-0.32,0-0.39,0.06-0.39,0.39v12.02
			c0,0.34,0.07,0.39,0.39,0.39h1.74c0.32,0,0.39-0.06,0.39-0.39V21.74L40.59,21.74z M52.42,19.78v-3.59h0.69
			c0.97,0,2.04,0.06,2.04,1.68c0,1.72-1.03,1.91-2.24,1.91H52.42L52.42,19.78z M52.42,21.74h0.9l2.52,5.03
			c0.19,0.36,0.34,0.58,0.43,0.58c0.07,0,0.19-0.02,0.26-0.04l1.57-0.45c0.19-0.06,0.37-0.11,0.37-0.22s-0.09-0.26-0.15-0.36
			l-2.79-4.99c0.69-0.36,2.13-1.05,2.13-3.46c0-3.51-2.92-3.61-4.36-3.61h-3.03c-0.32,0-0.39,0.06-0.39,0.39v12.02
			c0,0.34,0.07,0.39,0.39,0.39h1.74c0.32,0,0.39-0.06,0.39-0.39V21.74L52.42,21.74z M68.6,25.41c0-0.34-0.06-0.39-0.39-0.39h-4
			v-3.66h3.18c0.32,0,0.39-0.06,0.39-0.39v-1.23c0-0.34-0.06-0.39-0.39-0.39H64.2v-3.09h3.63c0.15,0,0.36-0.02,0.43-0.3l0.36-1.25
			c0.04-0.13,0.06-0.17,0.06-0.26c0-0.17-0.09-0.21-0.47-0.21h-6.13c-0.32,0-0.39,0.06-0.39,0.39v12.02c0,0.34,0.08,0.39,0.39,0.39
			h6.15c0.32,0,0.37-0.06,0.37-0.39V25.41L68.6,25.41z M80.92,14.62c0-0.34-0.07-0.39-0.39-0.39h-1.36c-0.32,0-0.39,0.06-0.39,0.39
			v5.93c0,0.52,0.06,1.83,0.06,2.43h-0.04c-0.22-0.77-0.58-1.72-1.1-2.71l-3.09-5.8c-0.11-0.21-0.15-0.24-0.43-0.24h-1.53
			c-0.32,0-0.39,0.06-0.39,0.39v12.02c0,0.34,0.07,0.39,0.39,0.39H74c0.32,0,0.39-0.06,0.39-0.39v-6.73c0-0.86-0.06-1.81-0.06-2.06
			h0.04c0.19,0.84,0.5,1.5,1.07,2.54l3.42,6.38c0.11,0.22,0.17,0.26,0.43,0.26h1.23c0.34,0,0.39-0.06,0.39-0.39V14.62L80.92,14.62z
			 M88.08,19.52v-3.33h0.79c1.03,0,1.83,0.39,1.83,1.57c0,1.48-0.94,1.76-2.04,1.76H88.08L88.08,19.52z M88.08,25.07v-3.59h0.71
			c1.25,0,2.34,0.21,2.34,1.78c0,1.59-1.08,1.81-2.37,1.81H88.08L88.08,25.07z M85.95,14.22c-0.32,0-0.39,0.06-0.39,0.39v12.02
			c0,0.32,0.07,0.39,0.39,0.39h3.07c2.41,0,4.64-0.5,4.64-3.63c0-2.15-1.46-2.84-2.34-3.09c0.71-0.36,1.91-0.95,1.91-2.82
			c0-3.01-2.54-3.27-4.36-3.27H85.95L85.95,14.22z M104.42,25.41c0-0.34-0.06-0.39-0.39-0.39h-4v-3.66h3.18
			c0.32,0,0.39-0.06,0.39-0.39v-1.23c0-0.34-0.06-0.39-0.39-0.39h-3.18v-3.09h3.63c0.15,0,0.35-0.02,0.43-0.3l0.35-1.25
			c0.04-0.13,0.06-0.17,0.06-0.26c0-0.17-0.09-0.21-0.47-0.21H97.9c-0.32,0-0.39,0.06-0.39,0.39v12.02c0,0.34,0.07,0.39,0.39,0.39
			h6.15c0.32,0,0.37-0.06,0.37-0.39V25.41L104.42,25.41z M110.52,19.78v-3.59h0.69c0.97,0,2.04,0.06,2.04,1.68
			c0,1.72-1.03,1.91-2.24,1.91H110.52L110.52,19.78z M110.52,21.74h0.9l2.52,5.03c0.19,0.36,0.34,0.58,0.43,0.58
			c0.07,0,0.19-0.02,0.26-0.04l1.57-0.45c0.19-0.06,0.37-0.11,0.37-0.22s-0.09-0.26-0.15-0.36l-2.79-4.99
			c0.69-0.36,2.13-1.05,2.13-3.46c0-3.51-2.92-3.61-4.36-3.61h-3.03c-0.32,0-0.39,0.06-0.39,0.39v12.02c0,0.34,0.07,0.39,0.39,0.39
			h1.74c0.32,0,0.39-0.06,0.39-0.39V21.74L110.52,21.74z M128.02,20.69c0-0.34-0.08-0.39-0.39-0.39h-3.25
			c-0.32,0-0.39,0.06-0.39,0.39v1.23c0,0.34,0.07,0.39,0.39,0.39h1.4v2.71c-0.17,0.07-0.65,0.3-1.35,0.3
			c-2.02,0-2.51-1.85-2.51-4.77c0-2.86,0.62-4.64,2.52-4.64c1.27,0,2.32,0.82,2.43,0.82c0.07,0,0.15-0.07,0.21-0.19l0.62-1.23
			c0.07-0.15,0.09-0.22,0.09-0.28c0-0.32-1.79-1.14-3.48-1.14c-3.35,0-5.05,2.36-5.05,6.79c0,4.53,1.72,6.66,5.01,6.66
			c1.53,0,3.74-0.67,3.74-1.46V20.69L128.02,20.69z"/>
	</g>
</g>
</svg>
