<?xml version="1.0" encoding="utf-8"?>
<!-- Generator: Adobe Illustrator 23.0.2, SVG Export Plug-In . SVG Version: 6.00 Build 0)  -->
<svg version="1.1" id="Ebene_1" xmlns="http://www.w3.org/2000/svg" xmlns:xlink="http://www.w3.org/1999/xlink" x="0px" y="0px"
	 viewBox="0 0 174.5 50" style="enable-background:new 0 0 174.5 50;" xml:space="preserve">
<style type="text/css">
	.st0{fill:#009FE3;}
	.st1{fill:#878787;}
	.st2{fill:#164194;}
	.st3{fill:#FFED00;}
	.st4{clip-path:url(#SVGID_2_);}
	.st5{clip-path:url(#SVGID_4_);}
	.st6{clip-path:url(#SVGID_6_);fill:#144391;}
	.st7{fill:#009640;}
	.st8{fill:#E30A17;}
	.st9{clip-path:url(#SVGID_8_);fill:#010202;}
	.st10{clip-path:url(#SVGID_10_);}
	.st11{fill:#04567E;}
	.st12{fill:#5A595B;}
	.st13{fill:#020203;}
	.st14{fill-rule:evenodd;clip-rule:evenodd;fill:#020203;}
	.st15{fill:#D60F27;}
	.st16{fill-rule:evenodd;clip-rule:evenodd;fill:#015383;}
	.st17{fill-rule:evenodd;clip-rule:evenodd;fill:#FFFFFF;}
</style>
<g>
	<path class="st13" d="M23.49,1.77L23.49,1.77c-0.01-0.05-0.01-0.09-0.01-0.14c0-0.9,0.74-1.63,1.64-1.63
		c0.91,0,1.64,0.73,1.64,1.63c0,0.05,0,0.09-0.01,0.14L23.49,1.77L23.49,1.77z"/>
	<path class="st13" d="M25.25,8.34V6.58h-1.61h-5.82h0c0.1,0.99,0.94,1.76,1.95,1.76L25.25,8.34L25.25,8.34z"/>
	<path class="st13" d="M19.7,1.78l-1.77-1.77h2.26l0,0c1.03,0,1.87,0.77,1.98,1.77H19.7L19.7,1.78z"/>
	<path class="st13" d="M16.48,8.35h-2.1l0,0.01c0.17-1.01,1.04-1.77,2.1-1.77L16.48,8.35L16.48,8.35z"/>
	<path class="st14" d="M24.72,10.55h-4.18h-4.06h-0.01c-1.05,0-1.92-0.76-2.1-1.75l4.2,0.01h4.07h0.01c1.05,0,1.92,0.76,2.1,1.75
		L24.72,10.55L24.72,10.55z"/>
	<path class="st14" d="M18.69,13.15l-1.77,1.77l0,0h3.75h5.62h4.96c1.03,0,1.88-0.78,1.98-1.78l0,0h-3.72h-5.79H18.69L18.69,13.15z"
		/>
	<path class="st13" d="M30.65,1.78l1.78-1.77h-2.26l0,0c-1.03,0-1.87,0.77-1.98,1.77H30.65L30.65,1.78z"/>
	<polygon class="st14" points="28.37,3.96 30.14,2.2 30.14,2.19 20.07,2.21 21.84,3.97 21.84,3.97 28.36,3.97 	"/>
	<path class="st13" d="M25.25,10.55V8.78l8.31,0h0c-0.11,0.99-0.95,1.77-1.98,1.77L25.25,10.55L25.25,10.55z"/>
	<path class="st14" d="M25.69,8.36l1.78-1.77l0,0h5.14l0,0c-0.11,0.99-0.95,1.77-1.98,1.77L25.69,8.36L25.69,8.36z"/>
	<path class="st14" d="M19.24,10.98h5.5h3.97h5.33h0c-0.11,0.99-0.94,1.77-1.97,1.77h-4.83h-2.67h-3.37l0,0
		C20.18,12.74,19.35,11.97,19.24,10.98L19.24,10.98z"/>
	<path class="st14" d="M17.15,17.11L17.15,17.11l-2.31,2.29l-1.25-1.25l-0.01,0.01h0l2.83-2.8h6.01l0,0h2.85h3.46h1.95l1.7,0
		c-0.11,0.99-0.95,1.76-1.97,1.76L17.15,17.11L17.15,17.11z"/>
	<path class="st14" d="M18.04,19.3l11.29,0c1.03,0,1.87-0.77,1.98-1.77l-14.02,0l-7.53,7.49c0.78,0.63,1.93,0.59,2.66-0.13l0,0
		L18.04,19.3L18.04,19.3z"/>
	<path class="st14" d="M18.92,21.49l9.07,0.01c1.03,0,1.87-0.77,1.98-1.77l-11.79,0l-5.34,5.3c0.78,0.63,1.93,0.59,2.66-0.13l0,0
		L18.92,21.49L18.92,21.49z"/>
	<path class="st14" d="M19.04,21.94h9.76l1.25,1.77h-5.17h-5.1l-1.22,1.22l0,0c-0.73,0.72-1.88,0.76-2.66,0.13L19.04,21.94
		L19.04,21.94L19.04,21.94z"/>
	<path class="st14" d="M31.91,26.31l-9.87,0.01c0.11,0.99,0.95,1.78,1.98,1.78l0,0l9.16,0L31.91,26.31L31.91,26.31z"/>
	<path class="st14" d="M30.38,24.14l-10.37-0.01c0.1,0.99,0.95,1.78,1.97,1.78l0,0l9.65,0L30.38,24.14L30.38,24.14z"/>
	<path class="st13" d="M25.08,48.24h-3.11l0,0c0.1,0.99,0.9,1.76,1.86,1.76h1.25h0.17v-1.76L25.08,48.24L25.08,48.24L25.08,48.24z"
		/>
	<path class="st14" d="M26.52,45.62H25.2h-4.66l0-0.01c0.11-0.99,0.95-1.77,1.98-1.77h2.23l0,0l0,0h1.77h1.77l0,0l0,0h2.23
		c1.03,0,1.87,0.77,1.98,1.77l0,0.01h-4.66H26.52L26.52,45.62L26.52,45.62z"/>
	<path class="st13" d="M23.44,39.47c0.93,0.09,1.68,0.83,1.78,1.76l0,0.01h-1.78L23.44,39.47L23.44,39.47z"/>
	<path class="st14" d="M26.36,41.65h1.17h4.98l0,0.01c-0.11,0.99-0.95,1.77-1.98,1.77h0h-4.17h-1.62h-4.22l0-0.01
		c0.11-0.99,0.95-1.77,1.98-1.77h2.23l0,0L26.36,41.65L26.36,41.65z"/>
	<path class="st14" d="M25.36,46.03h4.31l0,0.01c-0.11,0.99-0.95,1.77-1.98,1.77h0h-2.33H21.8h-4.66l0-0.01
		c0.11-0.99,0.95-1.77,1.98-1.77h2.23l0,0l0,0h1.91H25.36L25.36,46.03L25.36,46.03z"/>
	<path class="st14" d="M27.07,6.15l-7.82-0.01l-0.01,0.01c0.1-1,0.95-1.77,1.98-1.77l5.85,0l4.97,0l0.01-0.01
		c-0.1,1-0.95,1.77-1.98,1.77h-0.01l-3.02,0L27.07,6.15L27.07,6.15z"/>
	<path class="st14" d="M27.23,35.08l-2.9,0c0.1,0.99,0.95,1.78,1.97,1.78l0,0h0.86l0.05,0.02h1.29l0.02,0l3.99,0l0-0.01
		c-0.1-0.96-0.88-1.72-1.86-1.77l-2.13,0l-1.35-0.02H27.23L27.23,35.08z"/>
	<path class="st14" d="M32.51,32.9l-8.7,0c0.1,0.99,0.95,1.78,1.97,1.78l0,0l4.93-0.01L32.51,32.9L32.51,32.9z"/>
	<polygon class="st13" points="27.75,32.47 32.87,32.47 34.67,30.69 25.97,30.7 24.19,32.47 	"/>
	<path class="st14" d="M26.49,28.49l-2.29,0c0.1,0.99,0.95,1.78,1.97,1.78l0,0h0.32l8.16,0l0-0.01c-0.1-0.96-0.88-1.72-1.86-1.77
		L26.49,28.49L26.49,28.49L26.49,28.49z"/>
	<path class="st13" d="M28.34,37.28h4.91c1,0.02,1.83,0.78,1.94,1.76l-6.87,0h-1.4l-0.01,0c-1.01-0.02-1.82-0.78-1.93-1.76h3.33
		H28.34L28.34,37.28z"/>
	<path class="st13" d="M31.8,39.47l-3.99,0c-1.03,0-1.87,0.77-1.98,1.77l5.97,0l1.41,0c1.03,0,1.87-0.77,1.98-1.77l-3.36,0H31.8
		L31.8,39.47z"/>
	<path class="st14" d="M35.42,24.52l1.26-1.26L37.95,22l0,0c0.63,0.78,0.58,1.91-0.15,2.63l0,0l-1.13,1.13l-0.78,0.77l0,0
		c-0.73,0.72-1.87,0.77-2.65,0.14L35.42,24.52L35.42,24.52L35.42,24.52z"/>
	<path class="st14" d="M42.21,4.77V2.12v0c0.72,0,1.35,0.38,1.7,0.95L42.21,4.77L42.21,4.77z"/>
	<path class="st14" d="M42.31,17.64l4.39-4.37l0,0c0.63,0.78,0.58,1.92-0.14,2.64l-4.39,4.37l0,0
		C41.54,19.5,41.59,18.36,42.31,17.64L42.31,17.64z"/>
	<path class="st14" d="M46.08,13.32l-3.89,3.87l0,0c-0.63-0.78-0.58-1.92,0.14-2.64l3.89-3.87l0,0
		C46.85,11.46,46.8,12.6,46.08,13.32L46.08,13.32L46.08,13.32z"/>
	<path class="st14" d="M40.02,13.73l0.01-0.01l4.86-4.84l1.89-1.88l0.01,0c0.63,0.78,0.58,1.91-0.15,2.63l-3.98,3.96l0,0
		C41.94,14.31,40.8,14.36,40.02,13.73L40.02,13.73z"/>
	<path class="st14" d="M44.83,5.25l-2.81,2.8l0,0c-0.63-0.78-0.58-1.92,0.14-2.64l1.41-1.41l2.84-2.82l0,0
		c0.63,0.78,0.58,1.92-0.14,2.64l0,0L44.83,5.25L44.83,5.25z"/>
	<path class="st14" d="M33.84,6.87v-2.5l0.01-0.01l4.01-3.99l0,0c0.63,0.78,0.58,1.92-0.14,2.64L33.84,6.87L33.84,6.87z"/>
	<path class="st14" d="M34.96,11.97c-0.63-0.78-0.58-1.91,0.15-2.63l0,0l2.81-2.8l1.25,1.24L34.96,11.97L34.96,11.97z"/>
	<path class="st14" d="M34.02,15.98c-0.63-0.78-0.58-1.91,0.15-2.63l0,0l5.31-5.27l1.25,1.24L34.02,15.98L34.02,15.98z"/>
	<path class="st13" d="M46.75,3.93c0.63,0.78,0.58,1.92-0.14,2.64L32.05,21.05c-0.63-0.78-0.58-1.92,0.14-2.64L46.75,3.93
		L46.75,3.93z"/>
	<path class="st13" d="M35.35,2.29l-1.49,1.49v-2.1c0.07-0.01,0.14-0.01,0.22-0.01C34.6,1.66,35.05,1.92,35.35,2.29L35.35,2.29z"/>
	<path class="st14" d="M37.9,15.83L37.9,15.83c0.62,0.76,0.58,1.88-0.11,2.6c-0.01,0.01-0.14,0.14-0.15,0.15l0,0l-1.36,1.36
		l-1.87,1.86l-0.81,0.81l0,0c-0.73,0.72-1.87,0.77-2.65,0.14l2.25-2.23l1.75-1.75l1.56-1.56L37.9,15.83L37.9,15.83L37.9,15.83z"/>
	<path class="st14" d="M33.76,23.06l1.35-1.34l1.56-1.56l1.27-1.26h0c0.63,0.78,0.58,1.91-0.15,2.63l0,0l-1.36,1.36l-1.42,1.41
		l-0.19,0.19l0,0c-0.72,0.72-1.87,0.77-2.65,0.14l0,0L33.76,23.06L33.76,23.06L33.76,23.06z"/>
	<path class="st14" d="M44.88,23.8l-4.7,4.68l-0.86,0.85l-0.81,0.81l0,0c-0.72,0.72-1.87,0.77-2.65,0.14l2.25-2.23l0.82-0.81
		l4.7-4.68l0.94-0.94l1.56-1.56l1.27-1.26l0,0c0.63,0.78,0.58,1.91-0.15,2.63l0,0l-1.36,1.36L44.88,23.8L44.88,23.8L44.88,23.8z"/>
	<path class="st14" d="M39.15,26.44l2.62-2.6l-0.01,0c-0.78-0.63-1.93-0.58-2.65,0.14l0,0l-1.22,1.21l-1.58,1.58l-0.01,0.01
		l-1.53,1.52l0.01,0c0.78,0.63,1.93,0.58,2.65-0.14l0.13-0.13l1.31-1.31L39.15,26.44L39.15,26.44L39.15,26.44z"/>
	<path class="st14" d="M35.97,5.38l1.01-1l-0.01,0.01l1.14-1.14l0,0c0.63,0.78,0.58,1.92-0.14,2.64l0,0l-0.75,0.74l-0.81,0.8
		l-0.24,0.24l-1.83,1.82c-0.63-0.78-0.58-1.92,0.14-2.64l0,0l0.68-0.67l0.01-0.01L35.97,5.38L35.97,5.38L35.97,5.38z"/>
	<polygon class="st13" points="32.74,33.38 35.06,31.07 36.32,32.32 34,34.63 	"/>
	<path class="st14" d="M39.09,32.67l-1.32,1.31l-0.81,0.81l0,0c-0.72,0.72-1.87,0.77-2.65,0.14l2.26-2.26l0,0L39.09,32.67
		L39.09,32.67z"/>
	<path class="st14" d="M44.8,24.48l2.28-2.27l0,0c0.63,0.78,0.58,1.92-0.14,2.64l0,0l-0.89,0.88l-3.89,3.87l-3,2.99l0,0
		c-0.63-0.78-0.58-1.92,0.14-2.64l1.61-1.6l3.88-3.86L44.8,24.48L44.8,24.48z"/>
	<path class="st14" d="M36.64,35.71L36.64,35.71l3.12-3.1l1.89-1.88l0.01,0c0.63,0.77,0.58,1.91-0.15,2.63l-2.36,2.35L36.64,35.71
		L36.64,35.71z"/>
	<polygon class="st13" points="39.3,36.15 40.99,34.46 41,36.95 39.3,38.63 	"/>
	<path class="st14" d="M42.1,23.45L42.1,23.45c-0.63-0.78-0.58-1.92,0.14-2.64l5.15-5.12l0,0c0.63,0.78,0.58,1.92-0.14,2.64
		L42.1,23.45L42.1,23.45L42.1,23.45z"/>
	<path class="st14" d="M43.13,30.27h-1.02l1.73-1.72l0.01,0.01c0.39,0.39,0.39,1.03,0,1.42c-0.2,0.2-0.47,0.3-0.74,0.29L43.13,30.27
		L43.13,30.27z"/>
	<path class="st14" d="M6.27,3.17L6.27,3.17C5.49,2.54,4.35,2.58,3.62,3.31l0,0l1.26,1.25L6.27,3.17L6.27,3.17z"/>
	<path class="st14" d="M10.69,1.89L8.86,3.71l-1.81,1.8L5.1,7.45l0,0L2.73,9.81l0,0C2.11,9.03,2.15,7.9,2.88,7.18l1.81-1.8
		l1.75-1.74l1.59-1.58l0.02-0.02l0,0C8.77,1.31,9.91,1.26,10.69,1.89L10.69,1.89L10.69,1.89z"/>
	<path class="st14" d="M10.88,4.82L9.52,6.18L7.65,8.04L6.84,8.85l0,0C6.12,9.57,4.97,9.61,4.19,8.99l2.25-2.23L8.2,5.01l1.56-1.56
		l1.27-1.26l0,0C11.66,2.96,11.61,4.1,10.88,4.82L10.88,4.82L10.88,4.82z"/>
	<path class="st14" d="M14.05,4.74L10.8,7.97l-4.27,4.25l0,0c-0.63-0.78-0.58-1.91,0.15-2.63l3.37-3.35l4.15-4.13l0,0
		C14.82,2.88,14.77,4.02,14.05,4.74L14.05,4.74L14.05,4.74z"/>
	<path class="st14" d="M6.04,13.34l1.42-1.42l2.02-2.01l1.56-1.55l1.77-1.77l0.01,0.01c0.63,0.78,0.58,1.91-0.15,2.63l-0.99,0.99
		l-1.78,1.77L8.7,13.2l0,0C7.97,13.92,6.82,13.97,6.04,13.34L6.04,13.34z"/>
	<path class="st14" d="M12.8,9.7l1.26,1.25l-2.37,2.36l0.01-0.01c-0.72,0.72-1.87,0.77-2.65,0.14L12.8,9.7L12.8,9.7z"/>
	<path class="st14" d="M17.17,14.04l-1.25-1.24l-1.08,1.08l-3.93,3.91l0,0c0.77,0.63,1.88,0.62,2.57-0.07L17.17,14.04L17.17,14.04z"
		/>
	<path class="st14" d="M15.63,12.49l-1.25-1.24l-1.08,1.08l-3.93,3.91l0,0c0.77,0.63,1.88,0.61,2.57-0.07L15.63,12.49L15.63,12.49z"
		/>
	<path class="st14" d="M3.41,18.46l-1.26-1.25v0c0.73-0.72,1.87-0.77,2.65-0.14L3.41,18.46L3.41,18.46z"/>
	<path class="st14" d="M4.19,20.77l-1.71,1.7L0.95,24l0,0c-0.63-0.78-0.58-1.92,0.14-2.64l-0.02,0.02l1.86-1.85l0.24-0.24l2.95-2.93
		l1.53-1.52l0,0c0.63,0.78,0.58,1.92-0.14,2.64L5.1,19.86L4.19,20.77L4.19,20.77L4.19,20.77z"/>
	<path class="st14" d="M8.71,19.39l-4,3.98l-3.52,3.5l0-0.01c-0.63-0.78-0.58-1.92,0.14-2.64l4-3.98l3.52-3.5l0,0.01
		C9.48,17.53,9.44,18.67,8.71,19.39L8.71,19.39L8.71,19.39z"/>
	<path class="st14" d="M5.77,22.85c-0.73,0.72-0.77,1.86-0.14,2.64l0,0.01l5.65-5.62l-2.53,0.01l0,0L5.77,22.85L5.77,22.85z"/>
	<path class="st14" d="M7.29,26.92c-0.73,0.72-1.87,0.77-2.65,0.14l0,0L7.1,24.6l2.77-2.76l1.97-1.96l2.53-0.01l0,0l-3.81,3.79
		L7.31,26.9L7.29,26.92L7.29,26.92z"/>
	<path class="st14" d="M20.2,26.28l-3.44,3.43l0,0c-0.63-0.78-0.58-1.92,0.14-2.64l0.79-0.79l0,0H20.2L20.2,26.28L20.2,26.28z"/>
	<path class="st14" d="M13.99,33.04l-6.84,6.8c0.78,0.63,1.93,0.59,2.66-0.13l0,0l6.7-6.67L13.99,33.04L13.99,33.04z"/>
	<path class="st14" d="M8.74,31.47l-1.26-1.25v0c0.73-0.72,1.87-0.77,2.65-0.14L8.74,31.47L8.74,31.47z"/>
	<path class="st14" d="M13.64,29.7l-4,3.98l-3.52,3.5l0-0.01c-0.63-0.78-0.58-1.92,0.14-2.64l4-3.98l3.52-3.51l0,0.01
		C14.41,27.84,14.36,28.98,13.64,29.7L13.64,29.7L13.64,29.7z"/>
	<path class="st13" d="M13.61,32.83c0.69-0.72,0.73-1.84,0.11-2.6l-1.22,1.22l-3.52,3.5c-0.73,0.72-0.77,1.86-0.14,2.64l0,0.01
		l3.83-3.81l0.92-0.92L13.61,32.83L13.61,32.83z"/>
	<path class="st14" d="M24.18,34.72l-1.25-1.24l-2.03,2.02l-3.93,3.91l0,0c0.77,0.63,1.88,0.62,2.57-0.07L24.18,34.72L24.18,34.72z"
		/>
	<path class="st14" d="M22.38,37.11l-2.2,2.19l0,0c0.77,0.63,1.88,0.62,2.57-0.07l0.88-0.88l1.13-1.13l-1.25-1.24L22.38,37.11
		L22.38,37.11L22.38,37.11z"/>
	<path class="st13" d="M20.73,26.4l1.26,1.25l-4.7,4.68l0,0c-0.63-0.78-0.58-1.92,0.14-2.64L20.73,26.4L20.73,26.4z"/>
	<path class="st14" d="M14.9,37.79c-0.73,0.72-1.87,0.77-2.65,0.14l0.02-0.01l10.02-9.97l1.25,1.24L14.9,37.79L14.9,37.79z"/>
	<path class="st14" d="M15.22,40.59c-0.73,0.72-1.87,0.77-2.65,0.14l0.02-0.01l11.26-11.21l1.25,1.24L15.22,40.59L15.22,40.59z"/>
	<polygon class="st13" points="67.75,43.41 67.72,43.41 66.24,36.2 64.1,36.2 66.45,45.79 68.8,45.79 70.67,38.48 70.7,38.48 
		72.44,45.79 74.73,45.79 77.19,36.2 75.22,36.2 73.67,43.41 73.64,43.41 71.95,36.2 69.62,36.2 	"/>
	<path class="st13" d="M86.67,36.2v5.21c0,1.62-0.08,3.1-2.11,3.1s-2.11-1.47-2.11-3.1V36.2h-2.07v6.01c0,2.55,1.84,3.79,4.18,3.79
		c2.34,0,4.18-1.24,4.18-3.79V36.2H86.67L86.67,36.2z"/>
	<path class="st14" d="M94.94,45.79v-3.7h1.51c2.15-0.07,3.34-1.21,3.34-2.95c0-2.43-1.8-2.94-3.94-2.95h-2.98v9.6L94.94,45.79
		L94.94,45.79z M94.94,37.79c1.15,0.05,2.65-0.35,2.65,1.36c0,1.7-1.5,1.3-2.65,1.36V37.79L94.94,37.79z"/>
	<path class="st14" d="M105.13,45.79v-3.7h1.51c2.15-0.07,3.34-1.21,3.34-2.95c0-2.43-1.8-2.94-3.94-2.95h-2.98v9.6L105.13,45.79
		L105.13,45.79z M105.13,37.79c1.15,0.05,2.65-0.35,2.65,1.36c0,1.7-1.5,1.3-2.65,1.36V37.79L105.13,37.79z"/>
	<polygon class="st13" points="113.39,45.79 120,45.79 120,44.2 115.46,44.2 115.46,41.63 119.57,41.63 119.57,40.04 115.46,40.04 
		115.46,37.79 119.85,37.79 119.85,36.2 113.39,36.2 	"/>
	<path class="st14" d="M125.67,37.79h1.74c0.91,0.01,1.44,0.37,1.44,1.22c0,0.85-0.53,1.3-1.44,1.32h-1.74V37.79L125.67,37.79z
		 M125.67,41.93h2.19c0.68,0.03,0.81,0.76,0.87,1.29c0.09,0.86,0.19,1.73,0.36,2.58h2.28c-0.39-0.53-0.47-1.66-0.56-2.27
		c-0.17-1.33-0.17-2.3-1.76-2.47v-0.03c1.19-0.25,2-1.08,2-2.33c0-1.95-1.7-2.49-3.35-2.5h-4.1v9.6h2.07V41.93L125.67,41.93z"/>
	<polygon class="st13" points="133.79,37.79 136.66,37.79 136.66,45.79 138.73,45.79 138.73,37.79 141.61,37.79 141.61,36.2 
		133.79,36.2 	"/>
	<path class="st14" d="M145.45,45.79l0.72-2.03h3.82l0.69,2.03h2.08l-3.35-9.6h-2.46l-3.49,9.6H145.45L145.45,45.79z M146.71,42.16
		l1.42-4.09h0.03l1.32,4.09H146.71L146.71,42.16z"/>
	<polygon class="st13" points="162.26,45.57 162.26,43.97 158.08,43.97 158.08,35.97 156.01,35.97 156.01,45.57 	"/>
	<path class="st13" d="M71.27,20.25v5.21c0,1.62-0.08,3.1-2.11,3.1s-2.11-1.47-2.11-3.1v-5.21h-2.07v6.01
		c0,2.55,1.84,3.79,4.18,3.79c2.34,0,4.18-1.24,4.18-3.79v-6.01L71.27,20.25L71.27,20.25z"/>
	<polygon class="st13" points="85.91,29.84 85.91,20.25 83.97,20.25 83.97,27.77 83.95,27.8 80.27,20.25 77.2,20.25 77.2,29.84 
		79.14,29.84 79.14,21.9 79.16,21.87 82.97,29.84 	"/>
	<polygon class="st13" points="91.79,20.25 89.72,20.25 89.72,29.84 91.79,29.84 	"/>
	<polygon class="st13" points="98.49,29.84 100.75,29.84 104.31,20.25 102.26,20.25 99.74,27.81 99.71,27.81 97.2,20.25 
		94.94,20.25 	"/>
	<polygon class="st13" points="107.29,29.84 113.9,29.84 113.9,28.25 109.36,28.25 109.36,25.69 113.47,25.69 113.47,24.09 
		109.36,24.09 109.36,21.84 113.75,21.84 113.75,20.25 107.29,20.25 	"/>
	<path class="st14" d="M119.73,21.84h1.74c0.91,0.01,1.44,0.37,1.44,1.22c0,0.85-0.53,1.3-1.44,1.32h-1.74V21.84L119.73,21.84z
		 M119.73,25.98h2.19c0.68,0.03,0.81,0.76,0.87,1.29c0.09,0.86,0.19,1.73,0.36,2.58h2.28c-0.39-0.53-0.47-1.66-0.56-2.27
		c-0.17-1.33-0.17-2.3-1.76-2.47v-0.03c1.19-0.25,2-1.08,2-2.33c0-1.95-1.7-2.48-3.35-2.5h-4.1v9.6h2.07V25.98L119.73,25.98z"/>
	<path class="st13" d="M136.24,22.99c0-1.93-1.46-2.94-3.33-2.94c-1.98,0-4.01,0.97-4.01,3.16c0,1.7,1.84,2.31,3.19,2.64
		c0.83,0.21,2.2,0.29,2.2,1.42c0,1.02-1.1,1.28-1.92,1.28c-1.08,0-1.7-0.72-1.62-1.78h-2.11c-0.07,2.42,1.5,3.27,3.7,3.27
		c2.07,0,4.15-0.82,4.15-3.2c0-1.93-2.16-2.34-3.63-2.71c-0.83-0.2-1.76-0.32-1.76-1.35c0-0.84,0.77-1.24,1.54-1.24
		c1,0,1.52,0.48,1.6,1.45H136.24L136.24,22.99z"/>
	<polygon class="st13" points="141.84,20.25 139.77,20.25 139.77,29.84 141.84,29.84 	"/>
	<polygon class="st13" points="145.01,21.84 147.89,21.84 147.89,29.84 149.96,29.84 149.96,21.84 152.83,21.84 152.83,20.25 
		145.01,20.25 	"/>
	<path class="st14" d="M160.94,18.91v-1.58h-1.36v1.58H160.94L160.94,18.91z M158.64,18.91v-1.58h-1.36v1.58H158.64L158.64,18.91z
		 M156.43,29.84l0.72-2.03h3.82l0.7,2.03h2.08l-3.35-9.6h-2.46l-3.49,9.6H156.43L156.43,29.84z M157.69,26.22l1.42-4.09h0.03
		l1.32,4.09H157.69L157.69,26.22z"/>
	<polygon class="st13" points="166.17,21.84 169.05,21.84 169.05,29.84 171.12,29.84 171.12,21.84 173.99,21.84 173.99,20.25 
		166.17,20.25 	"/>
	<path class="st14" d="M66.95,12.3V9.75h1.62c0.98,0,1.64,0.17,1.64,1.28c0,1.1-0.67,1.28-1.64,1.28H66.95L66.95,12.3z M66.95,8.15
		V5.9h1.62c0.87,0,1.35,0.36,1.35,1.13s-0.48,1.13-1.35,1.13L66.95,8.15L66.95,8.15z M68.52,13.9c1.48,0.11,3.89-0.58,3.89-2.48
		c0-1.41-0.91-2.25-2.12-2.5V8.89c0.96-0.32,1.7-1.05,1.7-2.1c0-1.87-1.76-2.59-3.49-2.49h-3.62v9.6H68.52L68.52,13.9z"/>
	<polygon class="st13" points="75.57,13.9 82.18,13.9 82.18,12.3 77.64,12.3 77.64,9.74 81.76,9.74 81.76,8.14 77.64,8.14 
		77.64,5.9 82.04,5.9 82.04,4.3 75.57,4.3 	"/>
	<path class="st14" d="M87.97,5.9h1.74c0.91,0.01,1.44,0.37,1.44,1.22s-0.53,1.3-1.44,1.32h-1.74V5.9L87.97,5.9z M87.97,10.03h2.19
		c0.68,0.03,0.81,0.76,0.87,1.29c0.09,0.86,0.19,1.73,0.36,2.58h2.28c-0.39-0.53-0.47-1.66-0.56-2.27c-0.17-1.33-0.17-2.3-1.76-2.47
		V9.12c1.19-0.25,2-1.08,2-2.33c0-1.95-1.7-2.48-3.35-2.5h-4.1v9.6h2.07V10.03L87.97,10.03z"/>
	<path class="st13" d="M103.84,10.37v2.02c-0.55,0.11-1.1,0.21-1.92,0.21c-1.83,0-2.71-1.34-2.71-3.51s0.88-3.51,2.71-3.51
		c1.14,0,1.94,0.41,1.94,1.63h2.2c-0.01-2.29-1.74-3.12-4.53-3.12c-1.91,0-4.53,1.18-4.53,5c0,3.81,2.62,5,4.53,5
		c1.27,0,1.75-0.05,2.22-0.09c0.75-0.07,1.46-0.2,2.16-0.43v-4.8h-3.95v1.6L103.84,10.37L103.84,10.37z"/>
	<polygon class="st13" points="111.7,4.3 109.63,4.3 109.63,13.9 111.7,13.9 	"/>
	<path class="st13" d="M122.71,7.04c0-1.93-1.46-2.94-3.33-2.94c-1.98,0-4.01,0.97-4.01,3.16c0,1.7,1.84,2.31,3.19,2.64
		c0.83,0.21,2.2,0.29,2.2,1.42c0,1.02-1.1,1.28-1.92,1.28c-1.08,0-1.7-0.72-1.62-1.78h-2.11c-0.07,2.42,1.5,3.27,3.7,3.27
		c2.07,0,4.15-0.82,4.15-3.2c0-1.93-2.16-2.34-3.63-2.71c-0.83-0.2-1.76-0.32-1.76-1.36c0-0.84,0.77-1.24,1.54-1.24
		c1,0,1.52,0.48,1.6,1.45L122.71,7.04L122.71,7.04z"/>
	<path class="st13" d="M134.38,7.41c-0.09-2.41-1.83-3.31-4.05-3.31c-2.79,0-4.05,2.19-4.05,5c0,2.8,1.26,5,4.05,5
		c2.22,0,3.95-0.9,4.05-3.31h-2.2c0.01,1.01-0.6,1.82-1.84,1.82c-1.47,0-1.84-2.17-1.84-3.51s0.37-3.51,1.84-3.51
		c1.24,0,1.86,0.81,1.84,1.82L134.38,7.41L134.38,7.41z"/>
	<polygon class="st13" points="139.87,13.9 139.87,9.68 143.55,9.68 143.55,13.9 145.62,13.9 145.62,4.3 143.52,4.3 143.52,8.09 
		139.87,8.09 139.87,4.3 137.8,4.3 137.8,13.9 	"/>
	<polygon class="st13" points="149.22,13.9 155.83,13.9 155.83,12.3 151.29,12.3 151.29,9.74 155.4,9.74 155.4,8.14 151.29,8.14 
		151.29,5.9 155.68,5.9 155.68,4.3 149.22,4.3 	"/>
</g>
</svg>
