<?xml version="1.0" encoding="utf-8"?>
<!-- Generator: Adobe Illustrator 22.0.1, SVG Export Plug-In . SVG Version: 6.00 Build 0)  -->
<svg version="1.1" id="Ebene_1" xmlns="http://www.w3.org/2000/svg" xmlns:xlink="http://www.w3.org/1999/xlink" x="0px" y="0px"
	 viewBox="0 0 207 106.2" style="enable-background:new 0 0 207 106.2;" xml:space="preserve">
<style type="text/css">
	.st0{fill:#3C3C3B;}
	.st1{fill:#8CC04B;}
	.st2{fill:#00A4E2;}
	.st3{fill:#30903A;}
</style>
<g>
	<defs>
		<line id="SVGID_1_" x1="255.5" y1="-49.3" x2="-13.7" y2="-49.3"/>
	</defs>
	<clipPath id="SVGID_2_">
		<use xlink:href="#SVGID_1_"  style="overflow:visible;"/>
	</clipPath>
</g>
<path class="st0" d="M33.4,36.8c0,5,0,11.2-2.7,14c-1.9,2-4.6,3-8.1,3h-8.8V19.6h8.8c3.5,0,6.1,1,8.1,3c2.7,2.8,2.7,8,2.7,13l0,0.6
	L33.4,36.8L33.4,36.8z M39.9,36.2l0-0.9c0-5.9,0-12.7-4.6-17.4c-2.9-2.9-7-4.4-11.9-4.4H7.3v46.3h16.2c4.9,0,9-1.5,11.9-4.4
	C40,50.8,40,43.2,40,37.1L39.9,36.2L39.9,36.2z"/>
<path class="st0" d="M55.9,39.3h11.2c5,0,8,2.7,8,7.2c0,4.5-3.1,7.3-8,7.3H55.9V39.3L55.9,39.3z M66.6,33.2H55.9V19.6h10.7
	c7.1,0,7.8,4.7,7.8,6.8C74.4,32.6,68.9,33.2,66.6,33.2L66.6,33.2z M75.7,36.1c3.3-2,5.3-5.6,5.3-9.7c0-7.8-5.5-12.8-14-12.8H49.3
	v46.3h18.2c8.7,0,14.2-5.1,14.2-13.2C81.7,42,79.4,38.2,75.7,36.1L75.7,36.1z"/>
<path class="st0" d="M116.6,13.6v30.3c0,6.2-3.9,10.3-9.9,10.3c-6,0-9.8-4-9.8-10.3V13.6h-6.6v30.7c0,9.2,6.9,16,16.4,16
	c9.5,0,16.5-6.7,16.5-16V13.6H116.6L116.6,13.6z"/>
<path class="st1" d="M163.8,57.4c-7.7-3.8-13.1-11.7-13.1-20.8c0-12.8,10.4-23.1,23.3-23.1c2.5,0,4.8,0.4,7.1,1.1l4.9-12.4
	c-3.7-1.2-7.6-1.9-11.7-1.9c-20.1,0-36.4,16.2-36.4,36.2c0,16.4,10.9,30.2,26,34.7V57.4L163.8,57.4z"/>
<path class="st2" d="M207.6,87.8c-10.5,3-21.4,4.6-32.5,4.6c-17.3,0-33.9-3.7-49.4-10.9c-17.2-8-35.7-12.1-54.9-12.1
	c-22.4,0-44.2,5.7-63.5,16.6v15.2l1.6-1c18.5-11.6,39.9-17.7,61.9-17.7c17.3,0,33.9,3.7,49.4,10.9c17.2,8,35.7,12.1,54.9,12.1
	c11.1,0,22-1.4,32.5-4.1V87.8L207.6,87.8z"/>
<path class="st3" d="M188.8,9.6l-5,12.7c6.1,3.4,10.3,9.9,10.3,17.4c0,11-9,20-20.1,20c-1.7,0-3.4-0.2-5-0.6v13.2v14.6
	c1.7,0.2,3.5,0.3,5.3,0.3c2.7,0,5.3-0.2,7.8-0.6V71.8c14.7-3.5,25.6-16.6,25.6-32.3C207.6,26.4,200,15,188.8,9.6L188.8,9.6z"/>
</svg>
