<?xml version="1.0" encoding="utf-8"?>
<!-- Generator: Adobe Illustrator 23.0.2, SVG Export Plug-In . SVG Version: 6.00 Build 0)  -->
<svg version="1.1" id="Ebene_1" xmlns="http://www.w3.org/2000/svg" xmlns:xlink="http://www.w3.org/1999/xlink" x="0px" y="0px"
	 viewBox="0 0 357.52 50" style="enable-background:new 0 0 357.52 50;" xml:space="preserve">
<style type="text/css">
	.st0{fill:#009FE3;}
	.st1{fill:#878787;}
	.st2{fill:#164194;}
	.st3{fill:#FFED00;}
	.st4{clip-path:url(#SVGID_2_);}
	.st5{clip-path:url(#SVGID_4_);}
	.st6{clip-path:url(#SVGID_6_);fill:#144391;}
	.st7{fill:#009640;}
	.st8{fill:#E30A17;}
	.st9{clip-path:url(#SVGID_8_);fill:#010202;}
	.st10{clip-path:url(#SVGID_10_);}
	.st11{fill:#04567E;}
	.st12{fill:#5A595B;}
	.st13{fill:#020203;}
	.st14{fill-rule:evenodd;clip-rule:evenodd;fill:#020203;}
	.st15{fill:#D60F27;}
	.st16{fill-rule:evenodd;clip-rule:evenodd;fill:#015383;}
	.st17{fill-rule:evenodd;clip-rule:evenodd;fill:#FFFFFF;}
</style>
<g>
	<g>
		<defs>
			<rect id="SVGID_5_" x="2.42" width="349.25" height="50"/>
		</defs>
		<clipPath id="SVGID_2_">
			<use xlink:href="#SVGID_5_"  style="overflow:visible;"/>
		</clipPath>
		<path style="clip-path:url(#SVGID_2_);fill:#144391;" d="M60.4,40.07c-5.8,0-9.12-5.5-9.12-16.07S54.41,8.1,60.4,8.1
			c5.8,0,9.12,5.32,9.12,15.89S66.38,40.07,60.4,40.07 M60.4,47.98c12.21,0,19.16-9.55,19.16-23.99C79.61,9.55,72.6,0,60.4,0
			C48.31,0,41.18,9.55,41.18,23.99S48.31,47.98,60.4,47.98 M2.38,47.14H36.4v-7.98H14.47c0.24-2.72,4.71-6.16,11.36-10.45
			c8.88-5.62,10.27-10.21,10.27-15.29C36.04,5.26,30.36,0,20.45,0C12.23,0,6.79,3.93,2.81,10.03L10,15.11
			c2.66-4.23,6.53-6.65,10.15-6.65c3.87,0,6.04,2.18,6.04,5.62c0,4.71-2.84,6.47-9.97,11C4.01,32.93,2.38,39.4,2.38,46.11V47.14z"/>
	</g>
	<path class="st7" d="M114.96,47.14c0.79-1.93,1.03-3.87,1.03-5.92c0-8.16-5.68-13.42-15.59-13.42c-8.16,0-13.6,3.93-17.65,10.03
		l7.19,5.08c2.66-4.23,6.53-6.65,10.15-6.65c3.87,0,6.04,2.18,6.04,5.62c0,2.18-0.6,3.75-1.99,5.26H114.96 M159.26,47.14
		c-1.39-11.78-8.1-19.34-18.91-19.34c-10.76,0-17.59,7.55-18.98,19.34h10.09c0.85-7.49,3.81-11.24,8.88-11.24
		c4.89,0,7.98,3.75,8.88,11.24H159.26z"/>
	<path class="st8" d="M94.9,0.85v15.17h-8.4v7.92h26.53v-7.86h-8.34V0.85H94.9 M142.1,0.85v7.01h-11.9l4.83-6.95h-9.97l-5.38,7.55
		v7.37h22.42v8.16h9.79v-8.16h8.16V7.86h-8.16V0.85H142.1z"/>
	<g>
		<defs>
			<rect id="SVGID_7_" x="2.42" width="349.25" height="50"/>
		</defs>
		<clipPath id="SVGID_4_">
			<use xlink:href="#SVGID_7_"  style="overflow:visible;"/>
		</clipPath>
		<path style="clip-path:url(#SVGID_4_);fill:#010202;" d="M244.65,11.78h2.05l1.81-7.61l1.75,7.61h2.05l2.84-10.88h-2.24
			l-1.09,5.02c-0.18,0.91-0.36,1.33-0.48,2.3c-0.12-0.97-0.3-1.45-0.54-2.36l-1.21-5.02h-2.24l-1.09,4.96
			c-0.18,0.79-0.36,1.45-0.48,2.36h-0.06c-0.12-0.91-0.3-1.57-0.54-2.42l-1.15-4.96h-2.42L244.65,11.78 M234.62,5.8V2.84h1.63
			c1.39,0,2.05,0.42,2.05,1.45c0,1.09-0.66,1.51-2.05,1.51H234.62z M232.26,11.78h2.36V7.67h1.39l2.3,4.11h2.54l-2.42-4.41
			c1.45-0.42,2.3-1.39,2.3-3.08c0-2.42-1.63-3.38-4.29-3.38h-4.11v10.88H232.26z M220.6,11.78h2.24V4.77l4.77,7.01h2.24V0.91h-2.24
			v6.95l-4.59-6.95h-2.42V11.78z M215.82,11.78h2.54v-2.3h-2.54V11.78z M206.09,11.78h7.67V9.85h-5.32V7.13h3.63V5.2h-3.63V2.9h5.02
			V0.85h-7.43v10.94H206.09z M197.99,5.8V2.84h1.63c1.39,0,2.05,0.42,2.05,1.45c0,1.09-0.66,1.51-2.05,1.51H197.99z M195.64,11.78
			h2.36V7.67h1.39l2.3,4.11h2.54l-2.42-4.41c1.45-0.42,2.3-1.39,2.3-3.08c0-2.42-1.63-3.38-4.29-3.38h-4.11v10.88H195.64z
			 M186.88,11.78h2.42V7.43h3.44V5.56h-3.44V2.9h4.83V0.85h-7.19v10.94H186.88z M177.39,11.78h7.67V9.85h-5.32V7.13h3.63V5.2h-3.63
			V2.9h5.02V0.85h-7.43v10.94H177.39z"/>
		<path style="clip-path:url(#SVGID_4_);fill:#010202;" d="M298.73,49.43c-2.05,0-2.96-0.54-2.96-1.39c0-0.66,0.48-1.27,1.51-1.57
			c0.12,0,0.24,0,0.36,0.06l1.57,0.12c1.51,0.12,2.18,0.54,2.18,1.39C301.45,48.83,300.42,49.43,298.73,49.43 M298.55,44.17
			c-1.39,0-2.3-0.85-2.3-2.12s0.91-2.18,2.24-2.18c1.45,0,2.3,0.85,2.3,2.18C300.79,43.33,299.94,44.17,298.55,44.17 M298.73,50.04
			c1.99,0,3.38-0.79,3.38-2.12c0-1.15-0.97-1.75-2.54-1.93l-1.81-0.18c-0.97-0.06-1.21-0.3-1.21-0.6s0.3-0.54,0.66-0.73
			c0.42,0.18,0.85,0.24,1.33,0.24c1.57,0,2.96-1.03,2.96-2.72c0-0.66-0.18-1.21-0.54-1.63c0.42-0.18,0.97-0.3,1.45-0.3v-0.79
			c-0.6,0.06-1.33,0.36-1.75,0.66c-0.54-0.48-1.27-0.79-2.12-0.79c-1.63,0-2.96,1.15-2.96,2.78c0,0.97,0.42,1.75,1.15,2.24
			c-0.54,0.24-0.91,0.6-0.91,1.03c0,0.48,0.24,0.79,0.73,0.97c-0.97,0.36-1.45,0.97-1.45,1.81
			C295.11,49.31,296.25,50.04,298.73,50.04 M287.37,47.14h0.73v-5.8c0.97-0.91,1.87-1.45,2.9-1.45c1.15,0,1.69,0.54,1.69,1.75v5.5
			h0.73v-5.56c0-1.39-0.73-2.3-2.36-2.3c-1.15,0-2.12,0.6-2.96,1.45v-1.27h-0.73V47.14z M281.15,47.26c1.15,0,2.12-0.6,2.96-1.45
			v1.33h0.73V39.4h-0.73v5.8c-0.97,0.91-1.87,1.45-2.9,1.45c-1.15,0-1.69-0.54-1.69-1.75v-5.5h-0.73v5.56
			C278.79,46.41,279.52,47.26,281.15,47.26 M273.35,49.43c-2.05,0-2.96-0.54-2.96-1.39c0-0.66,0.48-1.27,1.51-1.57
			c0.12,0,0.24,0,0.36,0.06l1.57,0.12c1.51,0.12,2.18,0.54,2.18,1.39C276.07,48.83,275.04,49.43,273.35,49.43 M273.17,44.17
			c-1.39,0-2.3-0.85-2.3-2.12s0.91-2.18,2.24-2.18c1.45,0,2.3,0.85,2.3,2.18C275.41,43.33,274.5,44.17,273.17,44.17 M273.35,50.04
			c1.99,0,3.38-0.79,3.38-2.12c0-1.15-0.97-1.75-2.54-1.93l-1.81-0.18c-0.97-0.06-1.21-0.3-1.21-0.6s0.3-0.54,0.66-0.73
			c0.42,0.18,0.85,0.24,1.33,0.24c1.57,0,2.96-1.03,2.96-2.72c0-0.66-0.18-1.21-0.54-1.63c0.42-0.18,0.97-0.3,1.45-0.3v-0.79
			c-0.6,0.06-1.33,0.36-1.75,0.66c-0.54-0.48-1.27-0.79-2.12-0.79c-1.63,0-2.96,1.15-2.96,2.78c0,0.97,0.42,1.75,1.15,2.24
			c-0.54,0.24-0.91,0.6-0.91,1.03c0,0.48,0.24,0.79,0.73,0.97c-0.97,0.36-1.45,0.97-1.45,1.81
			C269.73,49.31,270.87,50.04,273.35,50.04 M267.25,47.14h0.73V39.4h-0.73V47.14z M267.19,37.47h0.79v-0.91h-0.79V37.47z
			 M264.41,47.2c0.3,0,0.6-0.06,0.85-0.06v-0.66c-0.24,0.06-0.48,0.12-0.79,0.12c-0.97,0-1.27-0.48-1.27-1.27v-5.26h1.99v-0.6h-1.99
			v-2.78h-0.73v2.78h-1.33v0.6h1.33v5.38C262.53,46.71,263.14,47.2,264.41,47.2 M257.4,47.14h0.73v-7.07h1.69v-0.6h-1.69v-1.39
			c0-0.85,0.54-1.15,1.33-1.15c0.12,0,0.36,0,0.48,0v-0.66h-0.36c-1.27,0-2.12,0.54-2.12,1.87v1.33h-1.33v0.6h1.33v7.07H257.4z
			 M250.63,46.65c-0.97,0-1.51-0.48-1.51-1.33c0-1.09,0.85-1.99,4.59-2.66v2.66C252.81,46.11,251.78,46.65,250.63,46.65
			 M250.57,47.26c1.15,0,2.18-0.48,3.14-1.27c0,0.42,0.06,0.85,0.18,1.15h0.73c-0.18-0.42-0.24-0.97-0.24-1.93v-3.63
			c0-1.45-0.79-2.36-2.36-2.36c-1.45,0-2.48,0.54-3.38,1.45l0.42,0.42c0.85-0.79,1.69-1.27,2.96-1.27c1.03,0,1.69,0.6,1.69,1.75
			v0.48c-4.05,0.66-5.32,1.75-5.32,3.26C248.39,46.53,249.18,47.26,250.57,47.26 M250.15,38.55h0.97v-0.97h-0.97V38.55z
			 M252.56,38.55h0.97v-0.97h-0.97V38.55z M240.36,47.14h0.73v-5.8c0.97-0.91,1.87-1.45,2.9-1.45c1.15,0,1.69,0.54,1.69,1.75v5.5
			h0.73v-5.56c0-1.39-0.73-2.3-2.36-2.3c-1.15,0-2.12,0.6-2.96,1.45v-4.47h-0.73V47.14z M235.34,47.26c1.45,0,2.36-0.79,2.96-2.12
			l-0.54-0.3c-0.6,1.15-1.21,1.75-2.36,1.75c-1.39,0-2.54-1.27-2.54-3.38c0-2.48,1.39-3.38,2.6-3.38s1.81,0.66,2.3,1.75l0.6-0.3
			c-0.48-1.09-1.33-2.05-2.84-2.05c-1.75,0-3.32,1.33-3.32,3.99C232.14,45.75,233.59,47.26,235.34,47.26 M227.48,47.26
			c1.75,0,2.9-0.85,2.9-2.12c0-1.39-0.79-1.87-2.96-2.42c-1.51-0.36-1.93-0.73-1.93-1.51c0-0.66,0.54-1.27,1.81-1.27
			c1.03,0,1.69,0.36,2.3,0.97l0.48-0.48c-0.66-0.66-1.45-1.15-2.72-1.15c-1.63,0-2.54,0.97-2.54,1.93c0,1.21,0.66,1.69,2.6,2.18
			c1.75,0.42,2.3,0.79,2.3,1.75s-0.73,1.51-2.18,1.51c-1.09,0-1.81-0.48-2.42-1.21l-0.48,0.42
			C225.19,46.65,226.16,47.26,227.48,47.26 M217.33,42.72c0.18-1.93,1.33-2.84,2.54-2.84c1.45,0,2.24,1.27,2.36,2.84H217.33z
			 M219.87,47.26c1.51,0,2.42-0.73,3.02-1.87l-0.48-0.3c-0.6,1.03-1.27,1.57-2.48,1.57c-1.45,0-2.6-1.27-2.6-3.38h5.62v-0.12
			c0-2.42-1.21-3.93-3.02-3.93c-1.63,0-3.26,1.33-3.26,3.99C216.61,45.81,218.12,47.26,219.87,47.26 M207.85,46.41v-4.59h2.96
			c1.99,0,3.26,0.73,3.26,2.3c0,1.45-0.91,2.24-2.9,2.24h-3.32V46.41z M207.85,41.21v-4.29h2.9c1.99,0,2.9,0.66,2.9,2.12
			s-1.09,2.18-2.96,2.18H207.85z M207.12,47.14h3.99c2.6,0,3.69-1.33,3.69-2.96c0-1.51-1.15-2.42-2.48-2.66
			c1.15-0.24,2.12-1.09,2.12-2.48c0-1.63-1.09-2.72-3.63-2.72h-3.63v10.82H207.12z M197.39,46.65c-1.33,0-2.54-1.03-2.54-3.38
			s1.15-3.38,2.48-3.38c0.97,0,1.75,0.48,2.66,1.39v3.99C199.14,46.11,198.42,46.65,197.39,46.65 M197.33,47.26
			c1.15,0,1.99-0.6,2.6-1.27c0,0.42,0.06,0.91,0.18,1.15h0.79c-0.18-0.42-0.24-0.97-0.24-1.93v-8.94h-0.66v4.29
			c-0.6-0.66-1.51-1.27-2.6-1.27c-1.81,0-3.26,1.33-3.26,3.99C194.13,45.99,195.58,47.26,197.33,47.26 M185.97,47.14h0.73v-5.8
			c0.97-0.91,1.87-1.45,2.9-1.45c1.15,0,1.69,0.54,1.69,1.75v5.5h0.73v-5.56c0-1.39-0.73-2.3-2.36-2.3c-1.15,0-2.12,0.6-2.96,1.45
			v-1.27h-0.73V47.14z M179.75,47.26c1.15,0,2.12-0.6,2.96-1.45v1.33h0.73V39.4h-0.73v5.8c-0.97,0.91-1.87,1.45-2.9,1.45
			c-1.15,0-1.69-0.54-1.69-1.75v-5.5h-0.73v5.56C177.39,46.41,178.11,47.26,179.75,47.26"/>
		<path style="clip-path:url(#SVGID_4_);fill:#010202;" d="M340.73,29.07h0.73v-5.8c0.97-0.91,1.81-1.45,2.84-1.45
			c1.21,0,1.57,0.54,1.57,1.75v5.5h0.73v-5.8c0.97-0.91,1.81-1.45,2.84-1.45c1.15,0,1.57,0.54,1.57,1.75v5.5h0.73v-5.56
			c0-1.39-0.66-2.3-2.24-2.3c-1.09,0-2.12,0.66-2.96,1.45c-0.24-0.85-0.85-1.45-2.12-1.45c-1.15,0-2.05,0.6-2.9,1.45v-1.27h-0.73
			v7.67H340.73 M334.51,29.25c1.15,0,2.12-0.6,2.96-1.45v1.27h0.73v-7.67h-0.73v5.8c-0.97,0.91-1.87,1.45-2.9,1.45
			c-1.15,0-1.69-0.54-1.69-1.75v-5.5h-0.73v5.56C332.15,28.34,332.88,29.25,334.51,29.25 M329.43,29.19c0.3,0,0.6-0.06,0.85-0.06
			v-0.66c-0.24,0.06-0.48,0.12-0.79,0.12c-0.97,0-1.27-0.48-1.27-1.27v-5.26h1.99v-0.6h-1.99v-2.78h-0.73v2.78h-1.33v0.6h1.33v5.38
			C327.56,28.64,328.16,29.19,329.43,29.19 M321.88,29.19c1.75,0,2.9-0.85,2.9-2.12c0-1.39-0.79-1.87-2.9-2.42
			c-1.51-0.36-1.93-0.73-1.93-1.51c0-0.66,0.54-1.27,1.81-1.27c1.03,0,1.69,0.36,2.3,0.97l0.42-0.48c-0.66-0.66-1.45-1.15-2.72-1.15
			c-1.63,0-2.54,0.97-2.54,1.93c0,1.21,0.66,1.69,2.6,2.18c1.75,0.42,2.3,0.79,2.3,1.75c0,0.97-0.73,1.51-2.18,1.51
			c-1.09,0-1.81-0.48-2.42-1.21l-0.48,0.42C319.58,28.58,320.55,29.19,321.88,29.19 M311.06,29.07h0.73v-5.8
			c0.97-0.91,1.87-1.45,2.9-1.45c1.15,0,1.69,0.54,1.69,1.75v5.5h0.73v-5.56c0-1.39-0.73-2.3-2.36-2.3c-1.15,0-2.12,0.6-2.96,1.45
			v-4.41h-0.73V29.07z M306.04,29.25c1.45,0,2.36-0.79,2.96-2.12l-0.54-0.3c-0.6,1.15-1.21,1.75-2.36,1.75
			c-1.39,0-2.54-1.27-2.54-3.38c0-2.48,1.39-3.38,2.6-3.38c1.21,0,1.81,0.66,2.3,1.75l0.6-0.3c-0.48-1.09-1.33-2.05-2.84-2.05
			c-1.75,0-3.32,1.33-3.32,3.99C302.84,27.68,304.29,29.25,306.04,29.25 M296.98,28.58c-0.97,0-1.51-0.48-1.51-1.33
			c0-1.09,0.85-1.99,4.59-2.66v2.66C299.16,28.1,298.13,28.58,296.98,28.58 M296.92,29.19c1.15,0,2.18-0.48,3.14-1.27
			c0,0.42,0.06,0.85,0.18,1.15h0.73c-0.18-0.42-0.24-0.97-0.24-1.93v-3.63c0-1.45-0.79-2.36-2.36-2.36c-1.45,0-2.48,0.54-3.38,1.45
			l0.42,0.42c0.85-0.79,1.69-1.27,2.96-1.27c1.03,0,1.69,0.6,1.69,1.75v0.48c-4.05,0.66-5.32,1.75-5.32,3.26
			C294.74,28.46,295.47,29.19,296.92,29.19 M284.35,29.07h0.73l2.48-9.85l2.42,9.85h0.73l2.9-10.82h-0.73L291,25.32
			c-0.24,0.97-0.48,1.81-0.66,2.66c-0.12-0.79-0.42-1.69-0.66-2.72l-1.75-7.01h-0.85l-1.75,6.95c-0.24,1.03-0.48,2.12-0.66,2.78
			c-0.18-0.73-0.42-1.75-0.66-2.78l-1.81-6.95h-0.73L284.35,29.07z M269.91,29.07h0.73v-5.8c0.97-0.91,1.87-1.45,2.9-1.45
			c1.15,0,1.69,0.54,1.69,1.75v5.5h0.73v-5.56c0-1.39-0.73-2.3-2.36-2.3c-1.15,0-2.12,0.6-2.96,1.45v-1.27h-0.73V29.07z
			 M266.58,29.07h0.73v-7.67h-0.73V29.07z M266.58,19.4h0.79v-0.91h-0.79V19.4z M254.38,29.07h0.73v-5.8
			c0.97-0.91,1.87-1.45,2.9-1.45c1.15,0,1.69,0.54,1.69,1.75v5.5h0.73v-5.56c0-1.39-0.73-2.3-2.36-2.3c-1.15,0-2.12,0.6-2.96,1.45
			v-1.27h-0.73V29.07z M246.58,24.66c0.18-1.93,1.33-2.84,2.54-2.84c1.45,0,2.24,1.27,2.36,2.84H246.58z M249.12,29.25
			c1.51,0,2.42-0.73,3.02-1.87l-0.48-0.3c-0.6,1.03-1.27,1.57-2.48,1.57c-1.45,0-2.6-1.27-2.6-3.38h5.62v-0.12
			c0-2.42-1.21-3.93-3.02-3.93c-1.63,0-3.26,1.33-3.26,3.99C245.86,27.74,247.37,29.25,249.12,29.25 M237.76,29.07h0.73v-5.8
			c0.97-0.91,1.87-1.45,2.9-1.45c1.15,0,1.69,0.54,1.69,1.75v5.5h0.73v-5.56c0-1.39-0.73-2.3-2.36-2.3c-1.15,0-2.12,0.6-2.96,1.45
			v-1.27h-0.73V29.07z M232.2,28.64c-1.75,0-2.66-1.57-2.66-3.38c0-1.93,1.03-3.38,2.66-3.38c1.75,0,2.66,1.57,2.66,3.38
			C234.86,27.19,233.83,28.64,232.2,28.64 M232.2,29.25c1.87,0,3.38-1.57,3.38-3.99c0-2.48-1.51-3.99-3.38-3.99
			c-1.93,0-3.38,1.51-3.38,3.99C228.81,27.68,230.33,29.25,232.2,29.25 M225.91,29.07h0.73v-7.67h-0.73V29.07z M225.91,19.4h0.79
			v-0.91h-0.79V19.4z M223.07,29.19c0.3,0,0.6-0.06,0.85-0.06v-0.66c-0.24,0.06-0.48,0.12-0.79,0.12c-0.97,0-1.27-0.48-1.27-1.27
			v-5.26h1.99v-0.6h-1.99v-2.78h-0.73v2.78h-1.33v0.6h1.33v5.38C221.2,28.64,221.8,29.19,223.07,29.19 M217.33,29.07h0.73v-7.67
			h-0.73V29.07z M217.33,19.4h0.79v-0.91h-0.79V19.4z M214.49,29.19c0.3,0,0.6-0.06,0.85-0.06v-0.66c-0.24,0.06-0.48,0.12-0.79,0.12
			c-0.97,0-1.27-0.48-1.27-1.27v-5.26h1.99v-0.6h-1.99v-2.78h-0.73v2.78h-1.33v0.6h1.33v5.38
			C212.62,28.64,213.22,29.19,214.49,29.19 M207,29.19c1.75,0,2.9-0.85,2.9-2.12c0-1.39-0.79-1.87-2.9-2.42
			c-1.51-0.36-1.93-0.73-1.93-1.51c0-0.66,0.54-1.27,1.81-1.27c1.03,0,1.69,0.36,2.3,0.97l0.48-0.48c-0.66-0.66-1.45-1.15-2.72-1.15
			c-1.63,0-2.54,0.97-2.54,1.93c0,1.21,0.66,1.69,2.6,2.18c1.75,0.42,2.3,0.79,2.3,1.75c0,0.97-0.73,1.51-2.18,1.51
			c-1.09,0-1.81-0.48-2.42-1.21l-0.48,0.42C204.64,28.58,205.61,29.19,207,29.19 M196.85,24.66c0.18-1.93,1.33-2.84,2.54-2.84
			c1.45,0,2.24,1.27,2.36,2.84H196.85z M199.38,29.25c1.51,0,2.42-0.73,3.02-1.87l-0.48-0.3c-0.6,1.03-1.27,1.57-2.48,1.57
			c-1.45,0-2.6-1.27-2.6-3.38h5.62v-0.12c0-2.42-1.21-3.93-3.02-3.93c-1.63,0-3.26,1.33-3.26,3.99
			C196.12,27.74,197.63,29.25,199.38,29.25 M191.41,29.13h0.73l2.84-7.74h-0.79l-2.42,6.83l-2.42-6.83h-0.79L191.41,29.13z
			 M181.01,29.07h0.73v-5.8c0.97-0.91,1.87-1.45,2.9-1.45c1.15,0,1.69,0.54,1.69,1.75v5.5h0.73v-5.56c0-1.39-0.73-2.3-2.36-2.3
			c-1.15,0-2.12,0.6-2.96,1.45v-1.27h-0.73V29.07z M177.39,29.07h0.73V18.25h-0.73V29.07z"/>
	</g>
</g>
</svg>
