<?xml version="1.0" encoding="utf-8"?>
<!-- Generator: Adobe Illustrator 23.0.2, SVG Export Plug-In . SVG Version: 6.00 Build 0)  -->
<svg version="1.1" id="Ebene_1" xmlns="http://www.w3.org/2000/svg" xmlns:xlink="http://www.w3.org/1999/xlink" x="0px" y="0px"
	 viewBox="0 0 230.29 50" style="enable-background:new 0 0 230.29 50;" xml:space="preserve">
<style type="text/css">
	.st0{fill:#009FE3;}
	.st1{fill:#878787;}
	.st2{fill:#164194;}
	.st3{fill:#FFED00;}
	.st4{clip-path:url(#SVGID_2_);}
	.st5{clip-path:url(#SVGID_4_);}
	.st6{clip-path:url(#SVGID_6_);fill:#144391;}
	.st7{fill:#009640;}
	.st8{fill:#E30A17;}
	.st9{clip-path:url(#SVGID_8_);fill:#010202;}
	.st10{clip-path:url(#SVGID_10_);}
	.st11{fill:#04567E;}
	.st12{fill:#5A595B;}
	.st13{fill:#020203;}
	.st14{fill-rule:evenodd;clip-rule:evenodd;fill:#020203;}
	.st15{fill:#D60F27;}
	.st16{fill-rule:evenodd;clip-rule:evenodd;fill:#015383;}
	.st17{fill-rule:evenodd;clip-rule:evenodd;fill:#FFFFFF;}
</style>
<g>
	<rect x="1.51" y="1.38" class="st2" width="68.91" height="46.23"/>
	<polyline class="st3" points="51.11,31.15 53.07,31.15 51.49,32.33 52.11,34.21 50.53,33.05 48.96,34.21 49.58,32.33 47.99,31.15 
		49.94,31.15 50.53,29.32 51.11,31.15 	"/>
	<polyline class="st3" points="36.99,8 38.95,8 37.37,9.19 37.98,11.07 36.41,9.91 34.84,11.07 35.46,9.19 33.87,8 35.82,8 
		36.41,6.18 36.99,8 	"/>
	<polyline class="st3" points="36.99,39.48 38.95,39.48 37.37,40.67 37.98,42.55 36.41,41.39 34.84,42.55 35.46,40.67 33.87,39.48 
		35.82,39.48 36.41,37.65 36.99,39.48 	"/>
	<polyline class="st3" points="28.31,37.27 30.27,37.27 28.7,38.45 29.3,40.34 27.73,39.18 26.16,40.34 26.78,38.45 25.19,37.27 
		27.14,37.27 27.73,35.44 28.31,37.27 	"/>
	<polyline class="st3" points="51.45,16.51 53.41,16.51 51.84,17.7 52.45,19.57 50.87,18.42 49.3,19.57 49.92,17.7 48.33,16.51 
		50.28,16.51 50.87,14.68 51.45,16.51 	"/>
	<polyline class="st3" points="23.04,16.34 24.99,16.34 23.41,17.52 24.03,19.4 22.46,18.25 20.88,19.4 21.5,17.52 19.91,16.34 
		21.86,16.34 22.46,14.51 23.04,16.34 	"/>
	<polyline class="st3" points="45.49,10.73 47.46,10.73 45.88,11.91 46.49,13.79 44.92,12.63 43.35,13.79 43.96,11.91 42.37,10.73 
		44.32,10.73 44.92,8.89 45.49,10.73 	"/>
	<polyline class="st3" points="29.16,10.56 31.12,10.56 29.54,11.74 30.15,13.62 28.58,12.46 27.01,13.62 27.63,11.74 26.03,10.56 
		27.99,10.56 28.58,8.72 29.16,10.56 	"/>
	<polyline class="st3" points="46.18,37.27 48.13,37.27 46.56,38.45 47.17,40.34 45.6,39.18 44.03,40.34 44.65,38.45 43.05,37.27 
		45,37.27 45.6,35.44 46.18,37.27 	"/>
	<polyline class="st3" points="21.33,23.49 23.29,23.49 21.71,24.67 22.33,26.55 20.75,25.39 19.18,26.55 19.8,24.67 18.21,23.49 
		20.17,23.49 20.75,21.65 21.33,23.49 	"/>
	<polyline class="st3" points="52.81,23.65 54.77,23.65 53.19,24.84 53.81,26.72 52.23,25.57 50.66,26.72 51.28,24.84 49.69,23.65 
		51.64,23.65 52.23,21.83 52.81,23.65 	"/>
	<polyline class="st3" points="23.2,31.15 25.17,31.15 23.59,32.33 24.2,34.21 22.62,33.05 21.06,34.21 21.67,32.33 20.08,31.15 
		22.03,31.15 22.62,29.32 23.2,31.15 	"/>
	<polyline points="87.39,1.58 92.57,1.58 92.57,2.5 88.39,2.5 88.39,5.14 91.49,5.14 91.49,6.04 88.39,6.04 88.39,9.11 92.81,9.11 
		92.81,10.03 87.39,10.03 87.39,1.58 	"/>
	<path d="M94.42,7.1V1.58h1.01v5.39c0,1.35,0.65,2.3,2.15,2.3c1.48,0,2.13-0.91,2.13-2.28V1.58h0.99v5.5c0,1.76-1.04,3.1-3.13,3.1
		C95.39,10.18,94.42,8.85,94.42,7.1"/>
	<path d="M103.02,1.58h2.9c1.92,0,3,0.81,3,2.37c0,1.35-0.77,2.06-1.96,2.31l2.07,3.77h-1.09l-2.02-3.64h-1.91v3.64h-0.99V1.58
		 M105.87,5.49c1.32,0,2.07-0.37,2.07-1.52c0-1.11-0.74-1.48-2.08-1.48h-1.84v3H105.87z"/>
	<path d="M110.57,5.8c0-2.71,1.57-4.38,3.65-4.38c2.09,0,3.63,1.67,3.63,4.38c0,2.72-1.55,4.39-3.63,4.39
		C112.14,10.19,110.57,8.52,110.57,5.8 M116.85,5.8c0-2.2-1.1-3.47-2.63-3.47c-1.55,0-2.63,1.27-2.63,3.47
		c0,2.21,1.08,3.49,2.63,3.49C115.76,9.28,116.85,8.01,116.85,5.8z"/>
	<path d="M119.88,1.58h2.87c1.82,0,3.05,0.72,3.05,2.4c0,1.8-1.35,2.48-3.11,2.48h-1.8v3.57h-1V1.58 M122.73,5.56
		c1.35,0,2.07-0.41,2.07-1.55c0-1.08-0.71-1.52-2.08-1.52h-1.84v3.07H122.73z"/>
	<path d="M129.31,1.54h1.05l3,8.48h-1.04l-0.84-2.42h-3.36l-0.83,2.42h-0.97L129.31,1.54 M128.29,0h1v1.08h-1V0z M131.17,6.73
		l-1.34-3.97h-0.02l-1.38,3.97H131.17z M130.36,0h1.02v1.08h-1.02V0z"/>
	<rect x="135.12" y="1.58" width="1" height="8.45"/>
	<path d="M138.09,7.98l0.84-0.38c0.43,1.13,1.26,1.69,2.4,1.69c1.19,0,1.98-0.5,1.98-1.39c0-0.84-0.46-1.25-2.13-1.77
		c-1.76-0.54-2.81-1.01-2.81-2.48c0-1.29,1.11-2.24,2.72-2.24c1.6,0,2.54,0.82,2.98,1.89l-0.8,0.45c-0.46-1.01-1.19-1.42-2.19-1.42
		c-1.07,0-1.71,0.53-1.71,1.24c0,0.9,0.56,1.2,2.22,1.72c1.7,0.52,2.7,1.1,2.7,2.53c0,1.4-1.22,2.36-3.01,2.36
		C139.68,10.19,138.53,9.32,138.09,7.98"/>
	<path d="M145.87,5.76c0-2.63,1.47-4.34,3.58-4.34c1.79,0,2.74,1.04,3.13,2.59l-0.97,0.26c-0.37-1.28-0.94-1.93-2.18-1.93
		c-1.58,0-2.56,1.32-2.56,3.41c0,2.24,1,3.51,2.58,3.51c1.2,0,1.94-0.68,2.3-2.04l0.95,0.22c-0.42,1.67-1.49,2.74-3.26,2.74
		C147.32,10.19,145.87,8.53,145.87,5.76"/>
	<polyline points="154.6,1.58 155.6,1.58 155.6,5.12 159.95,5.12 159.95,1.58 160.96,1.58 160.96,10.03 159.95,10.03 159.95,6.04 
		155.6,6.04 155.6,10.03 154.6,10.03 154.6,1.58 	"/>
	<polyline points="163.35,1.58 168.54,1.58 168.54,2.5 164.36,2.5 164.36,5.14 167.47,5.14 167.47,6.04 164.36,6.04 164.36,9.11 
		168.78,9.11 168.78,10.03 163.35,10.03 163.35,1.58 	"/>
	<path d="M173.13,7.1V1.58h1v5.39c0,1.35,0.65,2.3,2.14,2.3c1.48,0,2.13-0.91,2.13-2.28V1.58h0.99v5.5c0,1.76-1.04,3.1-3.13,3.1
		C174.09,10.18,173.13,8.85,173.13,7.1"/>
	<polyline points="181.73,1.58 182.79,1.58 187.23,8.26 187.25,8.26 187.25,1.58 188.2,1.58 188.2,10.03 187.3,10.03 182.69,3.17 
		182.67,3.17 182.67,10.03 181.73,10.03 181.73,1.58 	"/>
	<rect x="190.66" y="1.58" width="1.01" height="8.45"/>
	<path d="M193.74,5.8c0-2.71,1.57-4.38,3.66-4.38c2.08,0,3.63,1.67,3.63,4.38c0,2.72-1.55,4.39-3.63,4.39
		C195.3,10.19,193.74,8.52,193.74,5.8 M200.03,5.8c0-2.2-1.1-3.47-2.63-3.47c-1.55,0-2.63,1.27-2.63,3.47
		c0,2.21,1.08,3.49,2.63,3.49C198.92,9.28,200.03,8.01,200.03,5.8z"/>
	<polyline points="203.05,1.58 204.11,1.58 208.56,8.26 208.57,8.26 208.57,1.58 209.52,1.58 209.52,10.03 208.62,10.03 
		204.03,3.17 204,3.17 204,10.03 203.05,10.03 203.05,1.58 	"/>
	<polyline points="87.39,26.7 92.57,26.7 92.57,27.62 88.39,27.62 88.39,30.26 91.49,30.26 91.49,31.16 88.39,31.16 88.39,34.24 
		92.81,34.24 92.81,35.15 87.39,35.15 87.39,26.7 	"/>
	<path d="M94.36,33.47v-4.35h0.98v4.15c0,0.79,0.34,1.17,1.1,1.17c0.74,0,1.33-0.38,1.95-0.97v-4.35h0.99v6.03H98.4v-0.9
		c-0.53,0.51-1.28,1.02-2.26,1.02C94.98,35.27,94.36,34.61,94.36,33.47"/>
	<path d="M101.41,29.12h0.98v1.12h0.03c0.44-0.7,1.15-1.25,2.33-1.25h0.13l-0.06,0.91c-0.04-0.01-0.25-0.01-0.29-0.01
		c-0.96,0-1.67,0.5-2.12,1.37v3.89h-0.98V29.12"/>
	<path d="M105.82,32.13c0-2.07,1.32-3.14,2.81-3.14c1.48,0,2.8,1.07,2.8,3.14c0,2.07-1.32,3.14-2.8,3.14
		C107.16,35.27,105.82,34.2,105.82,32.13 M110.43,32.13c0-1.25-0.6-2.29-1.8-2.29c-1.15,0-1.81,0.94-1.81,2.29
		c0,1.28,0.59,2.31,1.81,2.31C109.78,34.44,110.43,33.52,110.43,32.13z"/>
	<path d="M113.15,29.12h0.98v0.84c0.46-0.51,1.09-0.96,1.98-0.96c1.39,0,2.46,1.03,2.46,3.13c0,2.1-1.08,3.12-2.56,3.12
		c-0.74,0-1.37-0.34-1.88-0.87v3.06h-0.98V29.12 M117.59,32.13c0-1.54-0.73-2.29-1.7-2.29c-0.7,0-1.26,0.37-1.76,0.92v2.76
		c0.52,0.59,1.11,0.91,1.75,0.91C116.93,34.44,117.59,33.74,117.59,32.13z"/>
	<path d="M119.91,33.72c0-1.22,1.04-2.09,4.03-2.51v-0.28c0-0.75-0.39-1.11-1.14-1.11c-0.91,0-1.59,0.39-2.18,0.91l-0.51-0.62
		c0.69-0.64,1.6-1.12,2.8-1.12c1.44,0,2.01,0.75,2.01,2.01v2.65c0,0.73,0.05,1.18,0.17,1.49h-1.01c-0.08-0.25-0.14-0.49-0.14-0.84
		c-0.67,0.62-1.42,0.93-2.33,0.93C120.57,35.24,119.91,34.69,119.91,33.72 M123.93,33.58v-1.69c-2.3,0.37-3.05,0.92-3.05,1.68
		c0,0.58,0.38,0.89,1.01,0.89C122.7,34.46,123.38,34.13,123.93,33.58z M121.14,27.41h1v1.08h-1V27.41z M123.22,27.41h1.02v1.08
		h-1.02V27.41z"/>
	<path d="M126.92,26.87h1.02v0.96h-1.02V26.87z M126.95,29.12h0.98v6.03h-0.98V29.12z"/>
	<path d="M129.53,34.24l0.59-0.6c0.45,0.5,1.07,0.84,1.88,0.84c0.94,0,1.46-0.33,1.46-0.95c0-0.61-0.53-0.84-1.56-1.07
		c-1.28-0.31-2.16-0.65-2.16-1.82c0-0.91,0.81-1.64,2.12-1.64c1.06,0,1.75,0.34,2.3,0.87l-0.51,0.65c-0.46-0.42-1.07-0.72-1.75-0.72
		c-0.88,0-1.22,0.38-1.22,0.81c0,0.55,0.48,0.77,1.42,0.98c1.37,0.33,2.3,0.66,2.3,1.91c0,1.15-1.04,1.77-2.41,1.77
		C130.9,35.27,130.02,34.83,129.53,34.24"/>
	<path d="M135.75,32.13c0-2.2,1.42-3.14,2.77-3.14c1.36,0,2,0.8,2.37,1.69l-0.84,0.35c-0.29-0.78-0.77-1.2-1.55-1.2
		c-0.87,0-1.74,0.6-1.74,2.3c0,1.49,0.71,2.32,1.72,2.32c0.77,0,1.24-0.33,1.62-1.21l0.81,0.32c-0.47,1.01-1.17,1.71-2.47,1.71
		C137.05,35.27,135.75,34.2,135.75,32.13"/>
	<path d="M142.49,26.7h1v3.32c0.52-0.51,1.27-1.03,2.26-1.03c1.15,0,1.78,0.66,1.78,1.81v4.35h-0.99v-4.13
		c0-0.81-0.34-1.18-1.1-1.18c-0.72,0-1.32,0.37-1.95,0.97v4.34h-1V26.7"/>
	<path d="M149.19,32.13c0-2.19,1.47-3.14,2.73-3.14c1.43,0,2.51,1.01,2.51,3.19v0.21h-4.26c0.04,1.36,0.82,2.09,1.82,2.09
		c0.87,0,1.36-0.35,1.82-0.98l0.57,0.5c-0.55,0.8-1.32,1.28-2.46,1.28C150.49,35.27,149.19,34.24,149.19,32.13 M153.5,31.62
		c-0.08-1.07-0.59-1.8-1.59-1.8c-0.81,0-1.57,0.56-1.71,1.8H153.5z"/>
	<path d="M156.16,29.12h0.98v1.12h0.02c0.44-0.7,1.16-1.25,2.33-1.25h0.12l-0.07,0.91c-0.03-0.01-0.25-0.01-0.28-0.01
		c-0.95,0-1.67,0.5-2.12,1.37v3.89h-0.98V29.12"/>
	<polyline points="163.8,26.7 168.87,26.7 168.87,27.62 164.81,27.62 164.81,30.34 167.8,30.34 167.8,31.25 164.81,31.25 
		164.81,35.15 163.8,35.15 163.8,26.7 	"/>
	<path d="M169.72,32.13c0-2.07,1.32-3.14,2.81-3.14c1.47,0,2.79,1.07,2.79,3.14c0,2.07-1.32,3.14-2.79,3.14
		C171.06,35.27,169.72,34.2,169.72,32.13 M174.34,32.13c0-1.25-0.61-2.29-1.8-2.29c-1.15,0-1.82,0.94-1.82,2.29
		c0,1.28,0.6,2.31,1.82,2.31C173.68,34.44,174.34,33.52,174.34,32.13z"/>
	<path d="M177.04,29.12h0.99v0.91c0.52-0.51,1.28-1.03,2.26-1.03c1.15,0,1.78,0.66,1.78,1.81v4.35h-0.99v-4.13
		c0-0.81-0.34-1.18-1.11-1.18c-0.72,0-1.32,0.37-1.95,0.97v4.34h-0.99V29.12"/>
	<path d="M183.77,32.14c0-2.1,1.1-3.15,2.57-3.15c0.74,0,1.42,0.37,1.88,0.89V26.7h0.98v6.96c0,0.73,0.05,1.18,0.18,1.49h-1.02
		c-0.06-0.2-0.14-0.55-0.14-0.86c-0.48,0.53-1.09,0.95-1.99,0.95C184.84,35.24,183.77,34.25,183.77,32.14 M188.22,33.51v-2.77
		c-0.53-0.59-1.1-0.91-1.74-0.91c-1.05,0-1.72,0.74-1.72,2.33c0,1.54,0.74,2.27,1.71,2.27C187.16,34.43,187.71,34.05,188.22,33.51z"
		/>
	<path d="M190.77,34.24l0.59-0.6c0.46,0.5,1.07,0.84,1.88,0.84c0.94,0,1.45-0.33,1.45-0.95c0-0.61-0.53-0.84-1.55-1.07
		c-1.28-0.31-2.16-0.65-2.16-1.82c0-0.91,0.8-1.64,2.11-1.64c1.06,0,1.75,0.34,2.31,0.87l-0.51,0.65c-0.46-0.42-1.07-0.72-1.75-0.72
		c-0.88,0-1.22,0.38-1.22,0.81c0,0.55,0.48,0.77,1.43,0.98c1.35,0.33,2.3,0.66,2.3,1.91c0,1.15-1.04,1.77-2.41,1.77
		C192.15,35.27,191.25,34.83,190.77,34.24"/>
	<path d="M87.68,42.48h-1.05v-0.81h1.05v-0.81c0-1.02,0.54-1.64,1.82-1.64c0.17,0,0.47,0.04,0.56,0.04v0.8
		c-0.09-0.02-0.29-0.04-0.42-0.04c-0.55,0-0.97,0.19-0.97,0.84v0.8h1.32v0.81h-1.32v5.22h-0.98V42.48"/>
	<path d="M91.41,46.03v-4.36h0.98v4.15c0,0.79,0.34,1.17,1.11,1.17c0.73,0,1.32-0.38,1.95-0.97v-4.36h0.99v6.03h-0.99v-0.9
		c-0.52,0.52-1.28,1.02-2.26,1.02C92.04,47.82,91.41,47.17,91.41,46.03 M92.39,39.98h1v1.08h-1V39.98z M94.47,39.98h1.02v1.08h-1.02
		V39.98z"/>
	<path d="M98.46,41.68h0.98v1.12h0.02c0.45-0.7,1.15-1.25,2.33-1.25h0.13l-0.07,0.91c-0.04-0.01-0.25-0.01-0.28-0.01
		c-0.97,0-1.68,0.5-2.13,1.36v3.89h-0.98V41.68"/>
	<path d="M106.41,41.68h0.98v1.12h0.02c0.45-0.7,1.15-1.25,2.33-1.25h0.13l-0.07,0.91c-0.04-0.01-0.25-0.01-0.28-0.01
		c-0.97,0-1.68,0.5-2.13,1.36v3.89h-0.98V41.68"/>
	<g>
		<defs>
			<rect id="SVGID_1_" x="1.51" width="225.19" height="50"/>
		</defs>
		<clipPath id="SVGID_2_">
			<use xlink:href="#SVGID_1_"  style="overflow:visible;"/>
		</clipPath>
		<path class="st4" d="M110.48,44.69c0-2.2,1.46-3.14,2.73-3.14c1.43,0,2.51,1.01,2.51,3.19v0.21h-4.26
			c0.04,1.36,0.82,2.08,1.81,2.08c0.87,0,1.36-0.35,1.82-0.98l0.57,0.51c-0.56,0.79-1.32,1.28-2.45,1.28
			C111.78,47.84,110.48,46.8,110.48,44.69 M114.78,44.18c-0.08-1.07-0.59-1.81-1.58-1.81c-0.82,0-1.58,0.56-1.71,1.81H114.78z"/>
		<path class="st4" d="M116.76,48.53c0-0.62,0.42-1.08,1.09-1.34c-0.34-0.16-0.51-0.41-0.51-0.77c0-0.38,0.32-0.72,0.75-0.97
			c-0.58-0.37-0.93-0.98-0.93-1.74c0-1.27,1.02-2.17,2.45-2.17c0.75,0,1.37,0.25,1.78,0.62c0.37-0.27,0.94-0.5,1.43-0.55v0.86
			c-0.33,0-0.73,0.06-1.08,0.2c0.19,0.27,0.31,0.63,0.31,1.04c0,1.3-1.04,2.15-2.44,2.15c-0.35,0-0.65-0.05-0.96-0.15
			c-0.25,0.11-0.42,0.26-0.42,0.47c0,0.25,0.19,0.37,0.84,0.42l1.22,0.1c1.54,0.11,2.31,0.6,2.31,1.57c0,1.14-1.2,1.75-2.95,1.75
			C117.63,50.03,116.76,49.44,116.76,48.53 M121.71,48.37c0-0.54-0.4-0.78-1.67-0.87l-1.14-0.08c-0.12-0.01-0.23-0.02-0.34-0.04
			c-0.58,0.21-0.89,0.58-0.89,0.99c0,0.6,0.63,0.9,2.13,0.9C120.99,49.28,121.71,48.92,121.71,48.37z M121.14,43.74
			c0-0.88-0.55-1.42-1.52-1.42c-0.94,0-1.51,0.56-1.51,1.42c0,0.87,0.61,1.41,1.53,1.41C120.56,45.15,121.14,44.62,121.14,43.74z"/>
	</g>
	<path d="M124.3,39.43h1.02v0.96h-1.02V39.43z M124.33,41.68h0.98v6.03h-0.98V41.68z"/>
	<path d="M127.03,44.69c0-2.08,1.32-3.14,2.81-3.14c1.47,0,2.8,1.06,2.8,3.14c0,2.07-1.32,3.14-2.8,3.14
		C128.37,47.84,127.03,46.76,127.03,44.69 M131.65,44.69c0-1.25-0.61-2.3-1.8-2.3c-1.16,0-1.82,0.94-1.82,2.3
		c0,1.28,0.6,2.31,1.82,2.31C130.98,47,131.65,46.08,131.65,44.69z"/>
	<path d="M134.36,41.68h0.99v0.91c0.53-0.52,1.28-1.03,2.26-1.03c1.15,0,1.79,0.66,1.79,1.8v4.35h-0.98v-4.13
		c0-0.8-0.35-1.18-1.11-1.18c-0.72,0-1.32,0.38-1.95,0.97v4.34h-0.99V41.68"/>
	<path d="M140.99,46.28c0-1.21,1.04-2.08,4.03-2.5v-0.28c0-0.75-0.4-1.12-1.14-1.12c-0.91,0-1.59,0.41-2.18,0.92l-0.52-0.62
		c0.69-0.64,1.6-1.12,2.8-1.12c1.44,0,2.01,0.75,2.01,2.01v2.65c0,0.73,0.04,1.18,0.17,1.48h-1c-0.08-0.25-0.14-0.49-0.14-0.83
		c-0.67,0.62-1.42,0.92-2.33,0.92C141.66,47.8,140.99,47.25,140.99,46.28 M145.02,46.15v-1.7c-2.3,0.37-3.06,0.93-3.06,1.68
		c0,0.58,0.39,0.89,1.02,0.89C143.78,47.02,144.47,46.69,145.02,46.15z"/>
	<rect x="148.02" y="39.26" width="0.98" height="8.45"/>
	<path d="M150.75,44.69c0-2.2,1.45-3.14,2.73-3.14c1.43,0,2.51,1.01,2.51,3.19v0.21h-4.26c0.03,1.36,0.82,2.08,1.81,2.08
		c0.87,0,1.35-0.35,1.81-0.98l0.58,0.51c-0.56,0.79-1.33,1.28-2.46,1.28C152.05,47.84,150.75,46.8,150.75,44.69 M155.06,44.18
		c-0.08-1.07-0.6-1.81-1.59-1.81c-0.81,0-1.58,0.56-1.71,1.81H155.06z"/>
	<polyline points="160.47,39.26 165.65,39.26 165.65,40.18 161.47,40.18 161.47,42.82 164.58,42.82 164.58,43.72 161.47,43.72 
		161.47,46.8 165.89,46.8 165.89,47.71 160.47,47.71 160.47,39.26 	"/>
	<path d="M167.51,41.68h0.99v0.91c0.53-0.52,1.28-1.03,2.26-1.03c1.15,0,1.78,0.66,1.78,1.8v4.35h-0.98v-4.13
		c0-0.8-0.34-1.18-1.11-1.18c-0.72,0-1.32,0.38-1.95,0.97v4.34h-0.99V41.68"/>
	<path d="M174.96,46.25v-3.76h-1.05v-0.81h1.05v-2.14h0.98v2.14h1.57v0.81h-1.57v3.55c0,0.64,0.21,0.95,0.94,0.95
		c0.22,0,0.45-0.04,0.62-0.08v0.81c-0.18,0.04-0.55,0.07-0.86,0.07C175.37,47.79,174.96,47.3,174.96,46.25"/>
	<path d="M178.71,41.68h1.02l0.79,2.83c0.21,0.74,0.35,1.23,0.53,2.01h0.02c0.2-0.84,0.32-1.28,0.52-2.02l0.77-2.82h0.85l0.79,2.88
		c0.21,0.72,0.32,1.17,0.51,1.96h0.02c0.2-0.8,0.32-1.22,0.52-1.94l0.82-2.9h0.93l-1.84,6.03h-0.91l-1.28-4.71h-0.02l-1.29,4.71
		h-0.9L178.71,41.68"/>
	<path d="M188.24,39.43h1.03v0.96h-1.03V39.43z M188.27,41.68h0.98v6.03h-0.98V41.68z"/>
	<path d="M190.98,44.69c0-2.21,1.42-3.14,2.77-3.14c1.36,0,2,0.8,2.36,1.68l-0.84,0.35c-0.29-0.78-0.76-1.2-1.55-1.2
		c-0.87,0-1.75,0.61-1.75,2.31c0,1.48,0.71,2.32,1.72,2.32c0.77,0,1.24-0.33,1.62-1.21l0.81,0.32c-0.47,1-1.17,1.71-2.47,1.71
		C192.27,47.84,190.98,46.76,190.98,44.69"/>
	<polyline points="197.72,39.26 198.7,39.26 198.7,44.69 201.4,41.68 202.51,41.68 200.54,43.84 202.73,47.71 201.68,47.71 
		199.9,44.57 198.7,45.86 198.7,47.71 197.72,47.71 197.72,39.26 	"/>
	<rect x="204.22" y="39.26" width="0.98" height="8.45"/>
	<path d="M207.21,46.03v-4.36h0.99v4.15c0,0.79,0.33,1.17,1.1,1.17c0.73,0,1.32-0.38,1.95-0.97v-4.36h0.99v6.03h-0.99v-0.9
		c-0.52,0.52-1.28,1.02-2.26,1.02C207.84,47.82,207.21,47.17,207.21,46.03"/>
	<g>
		<defs>
			<rect id="SVGID_3_" x="1.51" width="225.19" height="50"/>
		</defs>
		<clipPath id="SVGID_4_">
			<use xlink:href="#SVGID_3_"  style="overflow:visible;"/>
		</clipPath>
		<path class="st5" d="M214.27,41.68h0.99v0.91c0.52-0.52,1.28-1.03,2.26-1.03c1.15,0,1.78,0.66,1.78,1.8v4.35h-0.99v-4.13
			c0-0.8-0.34-1.18-1.1-1.18c-0.73,0-1.33,0.38-1.95,0.97v4.34h-0.99V41.68"/>
		<path class="st5" d="M220.63,48.53c0-0.62,0.42-1.08,1.1-1.34c-0.35-0.16-0.52-0.41-0.52-0.77c0-0.38,0.32-0.72,0.75-0.97
			c-0.58-0.37-0.93-0.98-0.93-1.74c0-1.27,1.02-2.17,2.46-2.17c0.74,0,1.36,0.25,1.78,0.62c0.37-0.27,0.94-0.5,1.44-0.55v0.86
			c-0.33,0-0.73,0.06-1.09,0.2c0.19,0.27,0.31,0.63,0.31,1.04c0,1.3-1.02,2.15-2.43,2.15c-0.35,0-0.65-0.05-0.97-0.15
			c-0.25,0.11-0.42,0.26-0.42,0.47c0,0.25,0.19,0.37,0.84,0.42l1.22,0.1c1.53,0.11,2.31,0.6,2.31,1.57c0,1.14-1.2,1.75-2.94,1.75
			C221.5,50.03,220.63,49.44,220.63,48.53 M225.58,48.37c0-0.54-0.4-0.78-1.67-0.87l-1.14-0.08c-0.12-0.01-0.24-0.02-0.34-0.04
			c-0.58,0.21-0.9,0.58-0.9,0.99c0,0.6,0.63,0.9,2.13,0.9C224.87,49.28,225.58,48.92,225.58,48.37z M225.01,43.74
			c0-0.88-0.55-1.42-1.52-1.42c-0.94,0-1.52,0.56-1.52,1.42c0,0.87,0.61,1.41,1.53,1.41C224.43,45.15,225.01,44.62,225.01,43.74z"/>
	</g>
	<rect x="87.39" y="14.04" class="st2" width="0.94" height="7.89"/>
	<path class="st2" d="M90.22,16.3h0.93v0.84c0.49-0.48,1.19-0.96,2.11-0.96c1.08,0,1.66,0.62,1.66,1.69v4.06H94v-3.86
		c0-0.75-0.32-1.1-1.03-1.1c-0.67,0-1.24,0.35-1.82,0.91v4.05h-0.93V16.3"/>
	<polyline class="st2" points="95.79,16.3 96.77,16.3 98.35,20.87 98.37,20.87 99.92,16.3 100.84,16.3 98.78,21.96 97.85,21.96 
		95.79,16.3 	"/>
	<path class="st2" d="M101.29,19.12c0-2.05,1.36-2.93,2.55-2.93c1.33,0,2.35,0.94,2.35,2.98v0.19h-3.98
		c0.03,1.27,0.77,1.95,1.7,1.95c0.81,0,1.27-0.33,1.7-0.92l0.53,0.47c-0.52,0.75-1.24,1.19-2.29,1.19
		C102.51,22.05,101.29,21.08,101.29,19.12 M105.31,18.64c-0.07-1-0.55-1.68-1.48-1.68c-0.76,0-1.47,0.52-1.6,1.68H105.31z"/>
	<path class="st2" d="M106.99,21.08l0.55-0.55c0.43,0.46,0.99,0.78,1.76,0.78c0.87,0,1.35-0.31,1.35-0.89c0-0.56-0.49-0.78-1.45-1
		c-1.19-0.29-2.02-0.61-2.02-1.7c0-0.85,0.75-1.54,1.97-1.54c0.99,0,1.63,0.32,2.15,0.81l-0.48,0.61c-0.43-0.39-1-0.67-1.63-0.67
		c-0.82,0-1.14,0.36-1.14,0.76c0,0.52,0.45,0.71,1.33,0.92c1.27,0.31,2.14,0.62,2.14,1.78c0,1.08-0.97,1.65-2.25,1.65
		C108.28,22.04,107.45,21.63,106.99,21.08"/>
	<path class="st2" d="M113.16,20.57v-3.51h-0.98V16.3h0.98v-2h0.92v2h1.46v0.76h-1.46v3.31c0,0.6,0.19,0.9,0.87,0.9
		c0.2,0,0.43-0.03,0.58-0.07v0.76c-0.16,0.03-0.51,0.06-0.8,0.06C113.54,22.01,113.16,21.55,113.16,20.57"/>
	<path class="st2" d="M116.82,14.2h0.96v0.9h-0.96V14.2z M116.84,16.3h0.92v5.63h-0.92V16.3z"/>
	<path class="st2" d="M119.85,20.57v-3.51h-0.98V16.3h0.98v-2h0.92v2h1.46v0.76h-1.46v3.31c0,0.6,0.19,0.9,0.87,0.9
		c0.2,0,0.43-0.03,0.58-0.07v0.76c-0.16,0.03-0.51,0.06-0.8,0.06C120.23,22.01,119.85,21.55,119.85,20.57"/>
	<path class="st2" d="M123.51,14.2h0.96v0.9h-0.96V14.2z M123.53,16.3h0.92v5.63h-0.92V16.3z"/>
	<path class="st2" d="M125.81,19.12c0-1.94,1.24-2.93,2.62-2.93c1.38,0,2.61,0.99,2.61,2.93c0,1.93-1.24,2.93-2.61,2.93
		C127.06,22.05,125.81,21.05,125.81,19.12 M130.12,19.12c0-1.17-0.57-2.14-1.68-2.14c-1.08,0-1.7,0.87-1.7,2.14
		c0,1.19,0.55,2.15,1.7,2.15C129.5,21.27,130.12,20.41,130.12,19.12z"/>
	<path class="st2" d="M132.35,16.3h0.93v0.84c0.49-0.48,1.2-0.96,2.11-0.96c1.08,0,1.66,0.62,1.66,1.69v4.06h-0.92v-3.86
		c0-0.75-0.32-1.1-1.03-1.1c-0.67,0-1.24,0.35-1.82,0.91v4.05h-0.93V16.3"/>
	<path class="st2" d="M141.17,14.2h0.96v0.9h-0.96V14.2z M141.19,16.3h0.92v5.63h-0.92V16.3z"/>
	<path class="st2" d="M143.79,16.3h0.93v0.84c0.49-0.48,1.19-0.96,2.11-0.96c1.08,0,1.66,0.62,1.66,1.69v4.06h-0.92v-3.86
		c0-0.75-0.32-1.1-1.03-1.1c-0.67,0-1.24,0.35-1.82,0.91v4.05h-0.93V16.3"/>
	<path class="st2" d="M152.51,20.37V16.3h0.92v3.87c0,0.75,0.32,1.1,1.03,1.1c0.68,0,1.24-0.35,1.82-0.91V16.3h0.93v5.63h-0.93
		v-0.84c-0.49,0.48-1.19,0.95-2.11,0.95C153.1,22.04,152.51,21.43,152.51,20.37"/>
	<path class="st2" d="M158.84,16.3h0.93v0.84c0.49-0.48,1.19-0.96,2.11-0.96c1.08,0,1.66,0.62,1.66,1.69v4.06h-0.92v-3.86
		c0-0.75-0.32-1.1-1.03-1.1c-0.67,0-1.24,0.35-1.82,0.91v4.05h-0.93V16.3"/>
	<path class="st2" d="M164.71,21.08l0.55-0.55c0.43,0.46,0.99,0.78,1.76,0.78c0.87,0,1.35-0.31,1.35-0.89c0-0.56-0.49-0.78-1.45-1
		c-1.19-0.29-2.02-0.61-2.02-1.7c0-0.85,0.75-1.54,1.97-1.54c0.99,0,1.63,0.32,2.15,0.81l-0.48,0.61c-0.43-0.39-1-0.67-1.63-0.67
		c-0.82,0-1.14,0.36-1.14,0.76c0,0.52,0.45,0.71,1.33,0.92c1.27,0.31,2.14,0.62,2.14,1.78c0,1.08-0.97,1.65-2.25,1.65
		C166,22.04,165.17,21.63,164.71,21.08"/>
	<path class="st2" d="M170.16,19.12c0-2.05,1.36-2.93,2.55-2.93c1.33,0,2.35,0.94,2.35,2.98v0.19h-3.98
		c0.03,1.27,0.77,1.95,1.7,1.95c0.81,0,1.27-0.33,1.7-0.92l0.53,0.47c-0.52,0.75-1.24,1.19-2.29,1.19
		C171.37,22.05,170.16,21.08,170.16,19.12 M174.18,18.64c-0.07-1-0.56-1.68-1.48-1.68c-0.76,0-1.47,0.52-1.6,1.68H174.18z"/>
	<path class="st2" d="M176.37,16.3h0.92v1.05h0.02c0.42-0.65,1.08-1.16,2.18-1.16h0.12l-0.06,0.85c-0.03-0.01-0.24-0.01-0.27-0.01
		c-0.9,0-1.57,0.47-1.98,1.27v3.64h-0.92V16.3"/>
	<path class="st2" d="M180.03,19.12c0-2.05,1.37-2.93,2.55-2.93c1.33,0,2.35,0.94,2.35,2.98v0.19h-3.98
		c0.03,1.27,0.77,1.95,1.7,1.95c0.81,0,1.27-0.33,1.7-0.92l0.53,0.47c-0.52,0.75-1.24,1.19-2.29,1.19
		C181.24,22.05,180.03,21.08,180.03,19.12 M184.05,18.64c-0.08-1-0.55-1.68-1.48-1.68c-0.76,0-1.47,0.52-1.6,1.68H184.05z"/>
	<polyline class="st2" points="188.14,21.27 192.75,14.83 188.43,14.83 188.43,14.04 193.91,14.04 193.91,14.72 189.32,21.16 
		193.91,21.16 193.91,21.93 188.14,21.93 188.14,21.27 	"/>
	<path class="st2" d="M195.03,20.37V16.3h0.92v3.87c0,0.75,0.32,1.1,1.03,1.1c0.68,0,1.24-0.35,1.82-0.91V16.3h0.93v5.63h-0.93
		v-0.84c-0.49,0.48-1.2,0.95-2.11,0.95C195.62,22.04,195.03,21.43,195.03,20.37"/>
	<polyline class="st2" points="201.36,14.04 202.27,14.04 202.27,19.12 204.79,16.3 205.84,16.3 203.99,18.32 206.04,21.93 
		205.06,21.93 203.39,19 202.27,20.21 202.27,21.93 201.36,21.93 201.36,14.04 	"/>
	<path class="st2" d="M207.07,20.37V16.3h0.92v3.87c0,0.75,0.32,1.1,1.03,1.1c0.68,0,1.24-0.35,1.82-0.91V16.3h0.93v5.63h-0.93
		v-0.84c-0.49,0.48-1.19,0.95-2.11,0.95C207.65,22.04,207.07,21.43,207.07,20.37"/>
	<path class="st2" d="M213.39,16.3h0.93v0.84c0.49-0.48,1.19-0.96,2.11-0.96c1.08,0,1.66,0.62,1.66,1.69v4.06h-0.92v-3.86
		c0-0.75-0.32-1.1-1.03-1.1c-0.67,0-1.24,0.35-1.82,0.91v4.05h-0.93V16.3"/>
	<path class="st2" d="M220.1,17.06h-0.98V16.3h0.98v-0.76c0-0.95,0.5-1.53,1.7-1.53c0.16,0,0.44,0.03,0.52,0.03v0.75
		c-0.08-0.02-0.27-0.03-0.39-0.03c-0.51,0-0.91,0.18-0.91,0.79v0.75h1.24v0.76h-1.24v4.87h-0.92V17.06"/>
	<path class="st2" d="M223.74,20.57v-3.51h-0.98V16.3h0.98v-2h0.92v2h1.46v0.76h-1.46v3.31c0,0.6,0.19,0.9,0.87,0.9
		c0.2,0,0.43-0.03,0.58-0.07v0.76c-0.16,0.03-0.51,0.06-0.8,0.06C224.13,22.01,223.74,21.55,223.74,20.57"/>
</g>
</svg>
