<?xml version="1.0" encoding="utf-8"?>
<!-- Generator: Adobe Illustrator 22.0.1, SVG Export Plug-In . SVG Version: 6.00 Build 0)  -->
<svg version="1.1" id="Ebene_1" xmlns="http://www.w3.org/2000/svg" xmlns:xlink="http://www.w3.org/1999/xlink" x="0px" y="0px"
	 viewBox="0 0 101.5 42.5" style="enable-background:new 0 0 101.5 42.5;" xml:space="preserve">
<title>07_studio-arrenberg</title>
<g>
	<path d="M6.6,9C6.1,8.4,5.4,8.1,4.7,8.1c-0.3,0-0.6,0.1-0.8,0.2C3.6,8.4,3.5,8.7,3.5,9s0.2,0.5,0.4,0.6c0.3,0.1,0.7,0.3,1,0.3
		l1.3,0.3c0.5,0.1,0.9,0.3,1.3,0.5c0.4,0.2,0.7,0.6,1,0.9c0.3,0.5,0.4,1,0.4,1.6s-0.1,1.2-0.4,1.7c-0.3,0.4-0.7,0.8-1.1,1.1
		c-0.5,0.3-1,0.5-1.6,0.6s-1.1,0.2-1.7,0.2c-0.7,0-1.5-0.1-2.2-0.3S0.5,15.9,0,15.4l2-2.2c0.3,0.4,0.6,0.6,1,0.9
		c0.4,0.2,0.8,0.3,1.3,0.3c0.3,0,0.7-0.1,1-0.2c0.3-0.1,0.5-0.3,0.4-0.6c0-0.3-0.2-0.5-0.4-0.6c-0.3-0.2-0.7-0.3-1-0.3L3,12.4
		c-0.5-0.1-0.9-0.3-1.3-0.5c-0.4-0.2-0.8-0.5-1-0.9c-0.3-0.5-0.4-1-0.4-1.6s0.1-1.1,0.4-1.6c0.2-0.4,0.6-0.8,1-1.1
		c0.4-0.3,0.9-0.5,1.4-0.6c0.5-0.4,1-0.5,1.6-0.5c0.7,0,1.4,0.1,2.1,0.3C7.5,6.1,8.1,6.5,8.6,7L6.6,9z"/>
	<path d="M17.9,8.5H15V12c0,0.3,0,0.5,0,0.8c0,0.2,0.1,0.4,0.2,0.6c0.1,0.2,0.3,0.3,0.5,0.4c0.3,0.1,0.5,0.1,0.8,0.1
		c0.2,0,0.4,0,0.7,0c0.2,0,0.5-0.1,0.6-0.2v2.7c-0.4,0.1-0.7,0.2-1.1,0.3c-0.4,0-0.8,0.1-1.1,0.1c-0.5,0-1-0.1-1.4-0.2
		c-0.4-0.1-0.9-0.3-1.2-0.5c-0.3-0.3-0.6-0.6-0.8-1c-0.2-0.5-0.3-1-0.3-1.5v-5H9.8V6h2.1V2.9h3.2V6H18v2.5H17.9z"/>
	<path d="M29.9,16.4h-3.1V15l0,0c-0.1,0.2-0.3,0.4-0.5,0.6c-0.2,0.2-0.4,0.4-0.7,0.5c-0.3,0.2-0.6,0.3-0.9,0.4
		c-0.4,0.1-0.7,0.2-1.1,0.1c-0.7,0-1.4-0.1-2-0.4c-0.5-0.2-0.9-0.6-1.2-1c-0.3-0.5-0.5-1-0.6-1.6c-0.1-0.7-0.1-1.3-0.1-2V5.8h3.2V11
		c0,0.3,0,0.6,0,0.9c0,0.3,0.1,0.6,0.2,0.9c0.1,0.3,0.3,0.5,0.5,0.7c0.3,0.2,0.6,0.3,1,0.3c0.3,0,0.7-0.1,1-0.2
		c0.3-0.1,0.5-0.3,0.6-0.6s0.2-0.6,0.3-0.9c0-0.3,0.1-0.7,0.1-1V5.9h3.2L29.9,16.4z"/>
	<path d="M43,16.4h-3V15l0,0c-0.1,0.2-0.3,0.4-0.5,0.6c-0.2,0.2-0.5,0.4-0.7,0.5c-0.3,0.2-0.6,0.3-0.9,0.4c-0.3,0.1-0.7,0.1-1,0.1
		c-0.7,0-1.4-0.1-2.1-0.4c-0.6-0.3-1.2-0.6-1.6-1.1c-0.4-0.5-0.8-1.1-1-1.7c-0.2-0.7-0.4-1.4-0.4-2.2c0-0.7,0.1-1.4,0.3-2.1
		c0.2-0.6,0.6-1.2,1-1.8c0.4-0.5,0.9-0.9,1.5-1.2s1.3-0.5,2-0.5c0.6,0,1.3,0.1,1.9,0.3c0.6,0.2,1.1,0.6,1.4,1.1l0,0V0h3.2L43,16.4z
		 M40,11.1c0-0.7-0.2-1.4-0.7-1.9s-1.2-0.8-1.9-0.7c-0.7,0-1.4,0.2-1.9,0.7s-0.7,1.2-0.7,1.9s0.2,1.4,0.7,1.9s1.2,0.8,1.9,0.7
		c0.7,0,1.4-0.2,1.9-0.7S40.1,11.8,40,11.1L40,11.1z"/>
	<path d="M45.6,2.6c0-1,0.8-1.9,1.9-1.9l0,0c0.5,0,1,0.2,1.3,0.5c0.4,0.4,0.6,0.8,0.5,1.3c0,1-0.8,1.9-1.9,1.9l0,0
		c-0.5,0-1-0.2-1.3-0.5C45.8,3.6,45.6,3.1,45.6,2.6z M45.9,5.9h3.3v10.5h-3.3V5.9z"/>
	<path d="M51.1,11.1c0-0.8,0.1-1.6,0.5-2.3c0.6-1.3,1.7-2.4,3.1-2.9c0.7-0.3,1.5-0.4,2.3-0.4s1.6,0.1,2.3,0.4
		C60,6.1,60.6,6.5,61.2,7c0.5,0.5,0.9,1.1,1.2,1.7c0.6,1.5,0.6,3.1,0,4.6c-0.3,0.7-0.7,1.3-1.2,1.7c-0.5,0.5-1.2,0.9-1.9,1.1
		c-0.7,0.3-1.5,0.4-2.3,0.4s-1.5-0.1-2.3-0.4c-0.7-0.2-1.3-0.6-1.9-1.1c-0.5-0.5-1-1.1-1.2-1.8C51.3,12.7,51.1,11.9,51.1,11.1z
		 M54.4,11.1c0,0.7,0.2,1.4,0.7,1.9s1.2,0.8,1.9,0.7c0.7,0,1.4-0.2,1.9-0.7s0.7-1.2,0.7-1.9s-0.2-1.4-0.7-1.9S57.7,8.4,57,8.5
		c-0.7,0-1.4,0.2-1.9,0.7S54.3,10.4,54.4,11.1z"/>
	<path d="M7.2,36L7.2,36c-0.3,0.5-0.8,1-1.4,1.2c-0.6,0.2-1.2,0.4-1.9,0.4c-0.5,0-1-0.1-1.5-0.2c-0.4-0.1-0.8-0.3-1.2-0.6
		c-0.3-0.3-0.6-0.6-0.8-1c-0.2-0.4-0.3-0.9-0.3-1.4s0.1-1.1,0.3-1.5c0.2-0.4,0.5-0.7,0.9-1c0.4-0.3,0.9-0.6,1.3-0.7
		c0.5-0.2,1-0.3,1.6-0.4c0.5-0.1,1-0.1,1.6-0.1h1.5c0-0.5-0.2-1-0.6-1.4c-0.4-0.3-0.9-0.5-1.5-0.5c-0.5,0-1,0.1-1.5,0.3
		c-0.4,0.2-0.8,0.5-1.2,0.9l-1.8-1.7c0.6-0.6,1.3-1,2.1-1.3s1.7-0.4,2.5-0.4s1.6,0.1,2.4,0.4c0.6,0.2,1.1,0.6,1.5,1
		c0.4,0.5,0.6,1.1,0.8,1.7c0.2,0.8,0.2,1.5,0.2,2.3v5.4h-3V36z M6.4,32.8H5.5c-0.4,0-0.7,0.1-1.1,0.2c-0.3,0.1-0.6,0.2-0.9,0.5
		c-0.2,0.2-0.4,0.5-0.4,0.8c0,0.4,0.2,0.7,0.5,0.9c0.3,0.2,0.6,0.3,1,0.3c0.3,0,0.6,0,0.9-0.1C5.8,35.3,6,35.2,6.3,35
		c0.5-0.3,0.8-0.9,0.8-1.4v-0.7L6.4,32.8z"/>
	<path d="M12.4,26.8h3.3v1.7l0,0c0.3-0.6,0.7-1.1,1.2-1.5c0.5-0.3,1.2-0.5,1.8-0.5h0.6c0.2,0,0.4,0,0.5,0.1v3
		c-0.2-0.1-0.5-0.1-0.7-0.2c-0.2,0-0.5,0-0.7,0c-0.5,0-1,0.1-1.5,0.3c-0.3,0.2-0.6,0.4-0.8,0.7c-0.2,0.3-0.3,0.7-0.4,1.1
		c0,0.6,0,1.1,0,1.5v4.3h-3.2L12.4,26.8L12.4,26.8z"/>
	<path d="M21.5,26.8h3.2v1.7l0,0c0.3-0.6,0.7-1.1,1.3-1.5c0.5-0.3,1.2-0.5,1.8-0.5h0.6c0.2,0,0.3,0,0.5,0.1v3
		c-0.2-0.1-0.5-0.1-0.7-0.2c-0.2,0-0.5,0-0.7,0c-0.5,0-1,0.1-1.5,0.3c-0.3,0.2-0.6,0.4-0.8,0.7c-0.2,0.3-0.3,0.7-0.4,1.1
		c-0.1,0.6-0.1,1.1-0.1,1.5v4.3h-3.2V26.8z"/>
	<path d="M40.1,35.5c-0.5,0.7-1.2,1.2-2,1.5c-0.8,0.4-1.6,0.5-2.5,0.5c-0.8,0-1.6-0.1-2.3-0.4c-0.7-0.2-1.3-0.6-1.9-1.1
		c-0.5-0.5-1-1.1-1.2-1.7c-0.6-1.5-0.6-3.1,0-4.5c0.3-0.7,0.7-1.3,1.2-1.7c0.5-0.5,1.2-0.9,1.9-1.1c0.7-0.3,1.5-0.4,2.3-0.4
		c0.7,0,1.4,0.1,2,0.4c0.6,0.2,1.2,0.6,1.6,1.1c0.4,0.5,0.8,1.1,1,1.7c0.2,0.7,0.4,1.5,0.3,2.3v1H33c0.1,0.6,0.4,1.1,0.8,1.5
		c0.5,0.4,1,0.6,1.6,0.6c0.5,0,0.9-0.1,1.3-0.4c0.4-0.2,0.7-0.6,1-0.9L40.1,35.5z M37.3,30.9c0-1.1-0.8-2-1.8-2c-0.1,0-0.1,0-0.2,0
		c-0.3,0-0.7,0-1,0.2c-0.3,0.1-0.5,0.3-0.7,0.4c-0.2,0.2-0.4,0.4-0.5,0.6s-0.2,0.5-0.2,0.8H37.3z"/>
	<path d="M42.7,26.8h3.1v1.4l0,0c0.1-0.2,0.3-0.4,0.4-0.6c0.2-0.2,0.4-0.4,0.7-0.5c0.3-0.2,0.6-0.3,0.9-0.4c0.4-0.1,0.7-0.2,1.1-0.1
		c0.7,0,1.4,0.1,2,0.4c0.5,0.2,1,0.6,1.3,1.1c0.3,0.5,0.5,1,0.6,1.6c0.1,0.7,0.2,1.3,0.2,2v5.8h-3.3v-5.2c0-0.3,0-0.6,0-1
		c0-0.3-0.1-0.6-0.2-0.9c-0.2-0.6-0.8-1-1.5-0.9c-0.3,0-0.7,0.1-1,0.2s-0.5,0.4-0.6,0.6c-0.1,0.3-0.2,0.6-0.3,0.8
		c0,0.3-0.1,0.7-0.1,1v5.3h-3.3V26.8z"/>
	<path d="M55.2,21h3.2v7l0,0c0.4-0.5,0.9-0.9,1.4-1.1c0.6-0.2,1.2-0.3,1.9-0.3c0.7,0,1.4,0.1,2,0.5c0.6,0.3,1.1,0.7,1.5,1.2
		s0.8,1.1,1,1.8c0.2,0.7,0.3,1.4,0.3,2.1s-0.1,1.5-0.4,2.2c-0.2,0.6-0.6,1.2-1.1,1.7s-1,0.9-1.6,1.1c-0.7,0.3-1.4,0.4-2.1,0.4
		c-0.4,0-0.7,0-1.1-0.2c-0.3-0.1-0.6-0.2-0.9-0.4c-0.3-0.1-0.5-0.3-0.7-0.5s-0.4-0.4-0.5-0.6l0,0v1.4h-3L55.2,21z M58.2,32.1
		c0,0.7,0.2,1.4,0.7,1.9c1.1,1,2.7,1,3.8,0c0.9-1.1,0.9-2.7,0-3.8c-1.1-1-2.7-1-3.8,0C58.4,30.7,58.2,31.4,58.2,32.1L58.2,32.1z"/>
	<path d="M78.3,35.5c-0.5,0.7-1.2,1.2-2,1.5c-0.8,0.4-1.6,0.6-2.4,0.6s-1.6-0.1-2.3-0.4c-0.7-0.2-1.3-0.6-1.9-1.1
		c-0.5-0.5-0.9-1.1-1.2-1.7c-0.6-1.5-0.6-3.1,0-4.5c0.3-0.7,0.7-1.3,1.2-1.7c0.5-0.5,1.2-0.9,1.9-1.1c0.7-0.3,1.5-0.4,2.3-0.4
		c0.7,0,1.4,0.1,2,0.4c0.6,0.2,1.1,0.6,1.6,1.1c0.4,0.5,0.8,1.1,1,1.7c0.2,0.7,0.4,1.5,0.3,2.3v1h-7.5c0.1,0.6,0.4,1.1,0.8,1.5
		s1,0.6,1.6,0.6c0.5,0,1-0.1,1.4-0.4c0.4-0.2,0.7-0.6,1-0.9L78.3,35.5z M75.6,30.9c0-0.5-0.2-1-0.5-1.4c-0.4-0.4-0.9-0.6-1.4-0.6
		c-0.3,0-0.7,0-1,0.2c-0.3,0.1-0.5,0.3-0.7,0.4c-0.2,0.2-0.4,0.4-0.5,0.6s-0.2,0.5-0.2,0.8H75.6z"/>
	<path d="M81,26.8h3.2v1.7l0,0c0.3-0.6,0.7-1.1,1.2-1.5c0.5-0.3,1.2-0.5,1.8-0.5h0.6c0.2,0,0.4,0,0.5,0.1v3c-0.2,0-0.4,0-0.6-0.1
		c-0.2,0-0.5,0-0.7,0c-0.5,0-1,0.1-1.5,0.3c-0.3,0.2-0.6,0.4-0.8,0.7c-0.2,0.3-0.3,0.7-0.4,1.1c-0.1,0.5-0.1,0.9-0.1,1.4v4.3H81
		V26.8z"/>
	<path d="M100.7,36.5c0.1,1.7-0.4,3.3-1.5,4.5c-1.3,1.1-2.9,1.7-4.6,1.5c-0.9,0-1.9-0.1-2.8-0.3C90.9,42,90,41.6,89.3,41l1.8-2.7
		c0.5,0.4,1,0.7,1.6,1c0.6,0.2,1.2,0.4,1.8,0.4c0.8,0.1,1.6-0.2,2.2-0.7c0.5-0.5,0.7-1.2,0.7-1.8v-1l0,0c-0.3,0.5-0.8,0.9-1.4,1.1
		c-0.5,0.2-1,0.3-1.6,0.3c-0.7,0-1.4-0.1-2.1-0.4c-0.6-0.3-1.2-0.6-1.6-1.1s-0.8-1.1-1-1.7c-0.5-1.4-0.5-2.9,0-4.2
		c0.2-0.6,0.5-1.2,0.9-1.8c0.4-0.5,0.9-0.9,1.5-1.2s1.3-0.5,2-0.5c0.4,0,0.9,0,1.3,0.1c0.3,0.1,0.7,0.2,1,0.4
		c0.3,0.1,0.5,0.3,0.8,0.5c0.2,0.2,0.4,0.4,0.5,0.6h0.1v-1.4h3L100.7,36.5z M92.5,32c0,0.7,0.3,1.3,0.8,1.8c0.2,0.2,0.5,0.4,0.8,0.6
		c0.3,0.1,0.7,0.2,1,0.2s0.7-0.1,1-0.2s0.6-0.3,0.8-0.6c0.7-0.7,1-1.8,0.6-2.8c-0.1-0.3-0.3-0.6-0.6-0.8c-0.2-0.2-0.5-0.4-0.8-0.6
		c-0.3-0.1-0.7-0.2-1-0.2s-0.7,0.1-1,0.2s-0.6,0.3-0.8,0.6c-0.2,0.2-0.4,0.5-0.6,0.8C92.6,31.4,92.5,31.7,92.5,32z"/>
</g>
</svg>
