<?xml version="1.0" encoding="utf-8"?>
<!-- Generator: Adobe Illustrator 23.0.2, SVG Export Plug-In . SVG Version: 6.00 Build 0)  -->
<svg version="1.1" id="Ebene_1" xmlns="http://www.w3.org/2000/svg" xmlns:xlink="http://www.w3.org/1999/xlink" x="0px" y="0px"
	 viewBox="0 0 125.82 50" style="enable-background:new 0 0 125.82 50;" xml:space="preserve">
<style type="text/css">
	.st0{fill:#009FE3;}
	.st1{fill:#878787;}
	.st2{fill:#164194;}
	.st3{fill:#FFED00;}
	.st4{clip-path:url(#SVGID_2_);}
	.st5{clip-path:url(#SVGID_4_);}
	.st6{clip-path:url(#SVGID_6_);fill:#144391;}
	.st7{fill:#009640;}
	.st8{fill:#E30A17;}
	.st9{clip-path:url(#SVGID_8_);fill:#010202;}
	.st10{clip-path:url(#SVGID_10_);}
	.st11{fill:#04567E;}
	.st12{fill:#5A595B;}
	.st13{fill:#020203;}
	.st14{fill-rule:evenodd;clip-rule:evenodd;fill:#020203;}
	.st15{fill:#D60F27;}
	.st16{fill-rule:evenodd;clip-rule:evenodd;fill:#015383;}
	.st17{fill-rule:evenodd;clip-rule:evenodd;fill:#FFFFFF;}
</style>
<g id="layer1">
	<path id="path2420" class="st15" d="M109.3,39.59c0-4.15,3.36-7.52,7.52-7.52c4.15,0,7.52,3.36,7.52,7.52
		c0,4.15-3.36,7.52-7.52,7.52C112.67,47.1,109.3,43.74,109.3,39.59z"/>
	<path id="path2422" class="st16" d="M105.28,47.14H1.59V2.86H116.8v25.38c-6.29,0-11.37,5.04-11.37,11.34
		c0,2.87,1.06,5.55,2.81,7.55L105.28,47.14z"/>
	<path id="path2424" class="st17" d="M56.38,9.16c-6.23,0-10.54,3.75-10.54,9.13c0,1.65,0.41,3.17,1.22,4.48
		c1.06,1.78,2.88,2.93,5.81,3.74l3.26,0.89c2.63,0.68,3.85,1.91,3.85,3.82c0,2.63-1.78,4.04-5.17,4.04c-2.97,0-5.32-0.94-8.08-2.38
		l-2.21,4.62c2.97,1.7,6.69,2.68,10.04,2.68c7.34,0,12.17-3.95,12.17-9.93c0-4.37-2.64-7.46-7.47-8.77l-3.54-0.97
		c-2.46-0.68-3.26-1.46-3.26-2.99c0-1.99,1.68-3.38,4.09-3.38c2.2,0,4.22,0.63,6.89,2.24l2.79-4.23
		C63.65,10.28,59.99,9.16,56.38,9.16z M8.21,10.07l7.06,29.72h6.72l2.43-12.09c0.85-4.33,1.44-8.47,1.44-8.47
		c0.04,0.25,0.37,3.97,1.38,8.55l2.63,12.01h6.5l7.11-29.72h-6.23l-2.41,11.18c-0.51,2.46-1.52,8.86-1.6,9.79
		c0,0-0.72-5.05-1.27-7.8l-2.74-13.17h-6.47l-2.63,11.9c-0.89,4.07-1.39,8.26-1.52,9.41c0,0-0.35-4.17-1.58-9.68l-2.55-11.62H8.21z
		 M68.75,10.07l7.06,29.72h6.72l2.43-12.09c0.85-4.33,1.44-8.47,1.44-8.47c0.04,0.25,0.37,3.97,1.38,8.55l2.63,12.01h6.5l7.11-29.72
		H97.8L95.4,21.25c-0.51,2.46-1.55,8.86-1.63,9.79c0,0-0.72-5.05-1.27-7.8l-2.71-13.17h-6.47l-2.63,11.9
		c-0.89,4.07-1.39,8.26-1.52,9.41c0,0-0.35-4.17-1.58-9.68l-2.55-11.62H68.75z"/>
</g>
</svg>
