<?xml version="1.0" encoding="utf-8"?>
<!-- Generator: Adobe Illustrator 22.0.1, SVG Export Plug-In . SVG Version: 6.00 Build 0)  -->
<svg version="1.1" id="Ebene_1" xmlns="http://www.w3.org/2000/svg" xmlns:xlink="http://www.w3.org/1999/xlink" x="0px" y="0px"
	 viewBox="0 0 124 27.5" style="enable-background:new 0 0 124 27.5;" xml:space="preserve">
<style type="text/css">
	.st0{fill:#E40033;}
	.st1{fill:#006D72;}
</style>
<g>
	<path class="st0" d="M25.8,13.8L25.8,13.8L25.8,13.8z M32.1,1.3l-9.4,9.4l3.1,3.1l6.2-6.2l6.2,6.2L32.1,20l-4.5-4.5l-3.2,3.1
		l7.7,7.7l12.5-12.5L32.1,1.3z"/>
	<path class="st1" d="M19.6,13.8C19.6,13.8,19.6,13.8,19.6,13.8c0,0-3.1,3.3-4.1,4.2c-1.1,1-2.5,1.6-4.1,1.6c-3.2,0-5.8-2.6-5.8-5.8
		S8.1,8,11.3,8c1.6,0,3,0.6,4.1,1.6C16,10,17,11.1,17.9,12L21,8.9c-1-1-2-2-2.6-2.5c-2-1.7-4.4-2.8-7.2-2.8C5.6,3.6,1,8.1,1,13.8
		C1,19.4,5.6,24,11.2,24c2.8,0,5.3-1.1,7.2-2.8c0.9-0.8,2.7-2.6,4.3-4.3l0,0L19.6,13.8L19.6,13.8L19.6,13.8z"/>
	<rect x="20.5" y="11.6" transform="matrix(0.7064 -0.7078 0.7078 0.7064 -3.0893 20.1233)" width="4.4" height="4.4"/>
	<g>
		<path d="M97.1,26.1c0.7,0,1.2-0.2,1.6-0.4V24c-0.3,0.2-0.6,0.3-1,0.3c-0.5,0-0.7-0.2-0.7-0.7v-3h1.7v-1.7h-1.7V17h-2v1.8h-0.9v1.7
			h0.9v3.4C95.1,25.6,95.9,26.1,97.1,26.1 M88.8,26.1c1,0,1.6-0.5,2.1-1.1v1h2v-7.1h-2v4c0,1-0.5,1.4-1.3,1.4
			c-0.8,0-1.2-0.5-1.2-1.4v-4h-2v4.6C86.4,25.1,87.3,26.1,88.8,26.1 M83.3,26.1c0.7,0,1.2-0.2,1.6-0.4V24c-0.3,0.2-0.6,0.3-1,0.3
			c-0.5,0-0.7-0.2-0.7-0.7v-3h1.7v-1.7h-1.7V17h-2v1.8h-0.9v1.7h0.9v3.4C81.3,25.6,82.1,26.1,83.3,26.1 M77,26h2v-7.1h-2V26z
			 M76.9,18.1h2.1v-1.8h-2.1V18.1z M73.8,26.1c0.7,0,1.2-0.2,1.6-0.4V24c-0.3,0.2-0.6,0.3-1,0.3c-0.5,0-0.7-0.2-0.7-0.7v-3h1.7v-1.7
			h-1.7V17h-2v1.8h-0.9v1.7h0.9v3.4C71.7,25.6,72.6,26.1,73.8,26.1 M67.1,26.1c1.5,0,2.7-0.7,2.7-2.3v0c0-1.3-1.2-1.8-2.2-2.1
			c-0.8-0.3-1.4-0.5-1.4-0.9v0c0-0.3,0.3-0.5,0.7-0.5c0.5,0,1.2,0.3,1.9,0.7l0.8-1.4c-0.8-0.5-1.8-0.8-2.7-0.8
			c-1.4,0-2.6,0.8-2.6,2.3v0c0,1.4,1.1,1.9,2.1,2.1c0.8,0.2,1.5,0.4,1.5,0.8v0c0,0.3-0.3,0.5-0.9,0.5c-0.7,0-1.5-0.3-2.2-0.9L64,25
			C65,25.8,66.1,26.1,67.1,26.1 M56.3,26h2v-4c0-1,0.5-1.4,1.3-1.4c0.8,0,1.2,0.5,1.2,1.4v4h2v-4.6c0-1.6-0.9-2.6-2.4-2.6
			c-1,0-1.6,0.5-2.1,1.1v-1h-2V26z M52.4,26h2v-9.3h-2V26z"/>
		<path d="M119.3,10.9h2V1.2h-2V10.9z M113.9,9.7c-0.7,0-1.1-0.3-1.1-0.9v0c0-0.6,0.5-1,1.4-1c0.5,0,0.9,0.1,1.3,0.3v0.4
			C115.5,9.2,114.9,9.7,113.9,9.7 M113.3,11.1c1,0,1.7-0.4,2.2-0.9v0.8h2V6.8c0-1-0.2-1.7-0.8-2.3c-0.5-0.5-1.3-0.8-2.4-0.8
			c-1.2,0-2,0.2-2.8,0.6l0.5,1.5c0.7-0.2,1.2-0.4,2-0.4c1,0,1.5,0.5,1.5,1.3v0.1c-0.5-0.2-1-0.3-1.7-0.3c-1.7,0-2.9,0.7-2.9,2.3v0
			C110.9,10.3,112,11.1,113.3,11.1 M108.2,11.1c0.7,0,1.2-0.2,1.6-0.4V9c-0.3,0.2-0.6,0.3-1,0.3c-0.5,0-0.7-0.2-0.7-0.7v-3h1.7V3.8
			h-1.7V2h-2v1.8h-0.9v1.7h0.9v3.4C106.1,10.6,107,11.1,108.2,11.1 M99.7,10.9h2V8.3c0-1.7,0.8-2.5,2.2-2.5h0.1V3.7
			c-1.2-0.1-1.9,0.6-2.3,1.6V3.8h-2V10.9z M93.2,6.8c0.2-0.9,0.7-1.5,1.5-1.5c0.9,0,1.4,0.6,1.5,1.5H93.2z M94.9,11.1
			c1.3,0,2.2-0.5,2.9-1.3l-1.2-1c-0.6,0.5-1,0.7-1.7,0.7c-0.9,0-1.5-0.5-1.7-1.4h5c0-0.2,0-0.4,0-0.5c0-2-1.1-3.9-3.5-3.9
			c-2.1,0-3.5,1.7-3.5,3.7v0C91.2,9.6,92.8,11.1,94.9,11.1 M86.3,9.4c-0.9,0-1.7-0.8-1.7-2v0c0-1.2,0.8-2,1.7-2c0.9,0,1.7,0.8,1.7,2
			v0C88,8.6,87.2,9.4,86.3,9.4 M82.6,13.1h2V10c0.5,0.6,1.1,1.1,2.2,1.1c1.7,0,3.2-1.3,3.2-3.7v0c0-2.4-1.6-3.7-3.2-3.7
			c-1.1,0-1.7,0.5-2.2,1.2v-1h-2V13.1z M77.3,9.4c-0.9,0-1.7-0.8-1.7-2v0c0-1.2,0.8-2,1.7-2s1.7,0.8,1.7,2v0
			C79.1,8.6,78.3,9.4,77.3,9.4 M73.6,13.1h2V10c0.5,0.6,1.1,1.1,2.2,1.1c1.7,0,3.2-1.3,3.2-3.7v0c0-2.4-1.6-3.7-3.2-3.7
			c-1,0-1.7,0.5-2.2,1.2v-1h-2V13.1z M67.7,11.1c1,0,1.6-0.5,2.1-1.1v1h2V3.8h-2v4c0,1-0.5,1.4-1.3,1.4c-0.8,0-1.2-0.5-1.2-1.4v-4
			h-2v4.6C65.3,10.1,66.1,11.1,67.7,11.1 M53.8,11h1.8l2.1-6.1l2.1,6.1h1.8l3.2-9.4h-2.1l-1.9,6.3l-2.1-6.3h-1.8l-2.1,6.3l-1.9-6.3
			h-2.2L53.8,11z"/>
	</g>
</g>
</svg>
