<svg xmlns="http://www.w3.org/2000/svg" width="184.35mm" height="121.59mm" viewBox="0 0 522.57 344.66">
    <defs>
        <style>
           .cls-1{
               fill: black;

            }
            .cls-10 {
                stroke: black;
                fill: transparent;
            }

             .white {
                fill: white;
                stroke: white;
            }
            .cls-2 {
                fill: #3e3e3f;
            }

            .cls-3,
            .cls-4 {
                fill: none;
                stroke: #d5dae2;
            }

            .cls-3,
            .cls-4,
            .cls-10 {
                stroke-linecap: round;
                stroke-width: 2px;
            }

            .cls-3,
            .cls-10 {
                stroke-linejoin: round;
            }

            .cls-4 {
                stroke-miterlimit: 10;
            }

            .cls-5,
            .cls-7,
            .cls-8 {
                fill: #da4d35;
            }

            .cls-6,
            .cls-7,
            .cls-8 {
                isolation: isolate;
            }

            .cls-7 {
                opacity: 0.86;
            }

            .cls-8 {
                opacity: 0.3;
            }

            .cls-9 {
                stroke: #3e3e3e;
            }

            #eco path {
                stroke-dasharray: 0 35;
                stroke-width: 0;

                stroke: #da4d35;
                fill: ;

            }

            #city path {
                stroke-dasharray: 0 35;
                stroke-width: 10;
                animation: dash 14s linear infinite;
                stroke: #da4d35;
                fill: ;

            }

            #production line {
                stroke-dasharray: 0 35;
                stroke-width: 10;
                animation: dash 20s linear infinite;
                animation-direction: reverse;
                stroke: #da4d35;

            }



            @keyframes dash {
                to {
                    stroke-dashoffset: 1000;
                }
            }



            @-moz-keyframes spin {
                100% {
                    -moz-transform: rotate(360deg);
                }
            }

            @-webkit-keyframes spin {
                100% {
                    -webkit-transform: rotate(360deg);
                }
            }

            @keyframes spin {
                100% {
                    -webkit-transform: rotate(360deg);
                    transform: rotate(360deg);
                }
            }

            #smoke_1 {
                height: 0px;
                width: 0px;
                opacity: 0;
                transform: scale(0.2);
                transform-origin: 57% 67.5%;
            }

            @keyframes smokeL {
                0% {
                    opacity: 0;
                    transform: scale(0.2) translate(0, 0)
                }

                5% {
                    opacity: 1;
                    transform: scale(0.3) translate(+5, -10px)
                }

                60% {
                    opacity: 1;

                }

                100% {
                    opacity: 0;
                    transform: scale(1.5) translate(+6px, -10px)
                }
            }

            #smoke_1 {
                animation: smokeL 2s 0s infinite
            }

            #smoke_2 {
                height: 0px;
                width: 0px;
                opacity: 0;
                transform: scale(0.2);
                transform-origin: 57.5% 68%;
            }

            @keyframes smokeR {
                0% {
                    opacity: 0;
                    transform: scale(0.2) translate(0, 0)
                }

                5% {
                    opacity: 1;
                    transform: scale(0.3) translate(+5, -10px)
                }

                60% {
                    opacity: 1;

                }

                100% {
                    opacity: 0;
                    transform: scale(1.3) translate(+12px, -10px)
                }
            }

            #smoke_2 {
                animation: smokeR 2s 1s infinite
            }

           

        </style>
    </defs>
    <title>_finalStromampel_Rot_Pfade_Animation</title>
    <g id="smoke">
        <g>
            <path id="Pfad_78" data-name="Pfad 78" class="cls-1" d="M295.57,228.44a4.31,4.31,0,1,0-4.31-4.31h0A4.32,4.32,0,0,0,295.57,228.44Zm0-6.21a1.9,1.9,0,1,1-1.9,1.9,1.9,1.9,0,0,1,1.9-1.9Z" />
            <path id="Pfad_79" data-name="Pfad 79" class="cls-1" d="M284.1,224.61a6.63,6.63,0,1,0-6.63-6.63A6.63,6.63,0,0,0,284.1,224.61Zm0-10.85a4.22,4.22,0,1,1-4.22,4.22h0A4.22,4.22,0,0,1,284.1,213.76Z" />
        </g>
        <g>
            <path id="smoke_1" data-name="Pfad 78" class="cls-2" d="M295.57,228.44a4.31,4.31,0,1,0-4.31-4.31h0A4.32,4.32,0,0,0,295.57,228.44Zm0-6.21a1.9,1.9,0,1,1-1.9,1.9,1.9,1.9,0,0,1,1.9-1.9Z" />
            <path id="smoke_2" data-name="Pfad 79" class="cls-2" d="M284.1,224.61a6.63,6.63,0,1,0-6.63-6.63A6.63,6.63,0,0,0,284.1,224.61Zm0-10.85a4.22,4.22,0,1,1-4.22,4.22h0A4.22,4.22,0,0,1,284.1,213.76Z" />
        </g>
    </g>
    <g id="eco">
        <path id="Pfad_82" data-name="Pfad 82" class="cls-3" d="M271.19,63.77H84.1A14.17,14.17,0,0,0,69.93,77.94V96.88" />
    </g>
    <g id="production">
        <line id="Linie_13" data-name="Linie 13" class="cls-4" x1="268.95" y1="203.67" x2="268.95" y2="62.67" />
    </g>
    <g id="city">
        <path id="Pfad_865" data-name="Pfad 865" class="cls-3" d="M470.48,103.71V77.94A14.17,14.17,0,0,0,456.3,63.77H269.22" />
    </g>
    <g id="Ebene_1" data-name="Ebene 1">
        <path id="Pfad_51" data-name="Pfad 51" class="cls-2" d="M449.12,161.09h6a1.1,1.1,0,0,0,1.1-1.1v-4.05a4.09,4.09,0,0,0-8.18-.08V160a1.1,1.1,0,0,0,1.1,1.1Zm1.1-5.16a1.88,1.88,0,0,1,3.77-.06v3h-3.77Z" />
        <path id="Pfad_52" data-name="Pfad 52" class="cls-2" d="M435.39,161.09h6a1.1,1.1,0,0,0,1.1-1.1v-4.05a4.09,4.09,0,0,0-8.19,0V160a1.1,1.1,0,0,0,1.1,1.1Zm1.1-5.16a1.89,1.89,0,0,1,3.77,0v2.95h-3.77Z" />
        <path id="Pfad_53" data-name="Pfad 53" class="cls-2" d="M424.61,196a1.1,1.1,0,1,0,0,2.21h86.06a1.1,1.1,0,1,0,0-2.21h-.47V111a1.1,1.1,0,0,0-1.1-1.1H474.27a1.1,1.1,0,0,0-1.1,1.1v58.13A5.08,5.08,0,0,0,469,174a4.63,4.63,0,0,0,.23,1.45,5.49,5.49,0,0,0-1,3.2,5.35,5.35,0,0,0,.31,1.8,6.3,6.3,0,0,0-1.19,3.67,6.72,6.72,0,0,0,5.91,6.48V196h-8V174.86h.68a1.1,1.1,0,0,0,1.1-1.1,1.13,1.13,0,0,0,0-.23L465.22,165V147a1.3,1.3,0,0,0,0-.24L463.71,140a1.1,1.1,0,0,0-1.08-.86h-3.82v-1.49a1.1,1.1,0,0,0-1.1-1.1h-3.8a1.1,1.1,0,0,0-1.1,1.1v1.49H437.72v-1.49a1.1,1.1,0,0,0-1.1-1.1h-3.81a1.1,1.1,0,0,0-1.1,1.1v1.49h-3.82a1.1,1.1,0,0,0-1.08.86l-1.49,6.75a1.08,1.08,0,0,0,0,.24v18l-1.74,8.47a1.1,1.1,0,0,0,.85,1.3l.23,0h.66V196ZM463,148.88v15.17H427.48V148.88Zm-25.53,23.77v-6.39h3.7v6.39Zm5.91-6.39h3.7v6.39h-3.7Zm5.91,0H453v6.39h-3.7Zm5.91,0h3.7v6.39h-3.7Zm5.91,0h2.1l1.31,6.39h-3.42v-6.39ZM426,172.65l1.31-6.39h2.09v6.39Zm5.61-6.39h3.7v6.39h-3.7ZM495.35,196H488V182.56a3.67,3.67,0,1,1,7.35,0h0Zm-25.87-11.84a4.07,4.07,0,0,1,1.08-2.76,1.1,1.1,0,0,0,.16-1.24,3.24,3.24,0,0,1-.36-1.47,3.34,3.34,0,0,1,.91-2.26,1.1,1.1,0,0,0,.18-1.24,2.55,2.55,0,0,1-.28-1.14,3.12,3.12,0,0,1,6.19-.14V174a2.52,2.52,0,0,1-.28,1.14,1.11,1.11,0,0,0,.18,1.24,3.34,3.34,0,0,1,.91,2.26,3.24,3.24,0,0,1-.36,1.47,1.1,1.1,0,0,0,.16,1.24,4.13,4.13,0,0,1,1.08,2.76,4.81,4.81,0,0,1-9.58,0Zm5.91,6.47a6.71,6.71,0,0,0,5.87-6.47,6.26,6.26,0,0,0-1.19-3.67,5.36,5.36,0,0,0,.31-1.8,5.49,5.49,0,0,0-1-3.2,4.63,4.63,0,0,0,.23-1.45c0-.08,0-.17,0-.25a5.09,5.09,0,0,0-4.19-4.63v-57H508V196H497.56V182.56a5.88,5.88,0,0,0-11.76,0V196H475.41Zm-37,5.36v-7.9H463V196ZM463,185.88H438.44v-11H463v11Zm-8-47.1h1.6v4.49H455Zm-21.1,0h1.6v4.49h-1.6Zm-5.14,2.59h2.94v3a1.1,1.1,0,0,0,1.1,1.1h3.81a1.1,1.1,0,0,0,1.1-1.1v-3h15.09v3a1.1,1.1,0,0,0,1.1,1.1h3.8a1.1,1.1,0,0,0,1.1-1.1v-3h2.94l1.17,5.3H427.56Zm-1.28,33.48h8.76V196h-8.76Z" />
        <path id="Pfad_54" data-name="Pfad 54" class="cls-2" d="M483,125.93h6a1.1,1.1,0,0,0,1.1-1.1v-4.05a4.09,4.09,0,0,0-8.18,0h0v4.05a1.1,1.1,0,0,0,1.1,1.1Zm1.1-5.16a1.89,1.89,0,1,1,3.77,0v2.95h-3.77Z" />
        <path id="Pfad_55" data-name="Pfad 55" class="cls-2" d="M494.85,125.93h6a1.1,1.1,0,0,0,1.1-1.1v-4.05a4.09,4.09,0,0,0-8.18-.08v4.13a1.1,1.1,0,0,0,1.1,1.1Zm1.1-5.16a1.89,1.89,0,1,1,3.77,0v2.95H496Z" />
        <path id="Pfad_56" data-name="Pfad 56" class="cls-2" d="M483,139.44h6a1.1,1.1,0,0,0,1.1-1.1v-4.05a4.09,4.09,0,0,0-8.18,0h0v4.05a1.1,1.1,0,0,0,1.1,1.1Zm1.1-5.16a1.89,1.89,0,1,1,3.77,0v3h-3.77Z" />
        <path id="Pfad_57" data-name="Pfad 57" class="cls-2" d="M494.85,139.44h6a1.1,1.1,0,0,0,1.1-1.1v-4.05a4.09,4.09,0,0,0-8.18-.08v4.13a1.1,1.1,0,0,0,1.1,1.1Zm1.1-5.16a1.89,1.89,0,1,1,3.77,0v3H496Z" />
        <path id="Pfad_58" data-name="Pfad 58" class="cls-2" d="M482.76,153h6a1.1,1.1,0,0,0,1.1-1.1v-4.05a4.09,4.09,0,1,0-8.18,0h0v4.05a1.1,1.1,0,0,0,1.1,1.1Zm1.1-5.16a1.89,1.89,0,0,1,3.77,0v2.95h-3.77Z" />
        <path id="Pfad_59" data-name="Pfad 59" class="cls-2" d="M494.62,153h6a1.1,1.1,0,0,0,1.1-1.1v-4.05a4.09,4.09,0,1,0-8.18,0h0v4.05a1.1,1.1,0,0,0,1.1,1.1Zm1.1-5.16a1.89,1.89,0,0,1,3.77,0v2.95h-3.77Z" />
        <path id="Pfad_60" data-name="Pfad 60" class="cls-2" d="M488.74,166.48a1.1,1.1,0,0,0,1.1-1.1v-4.05a4.09,4.09,0,1,0-8.18,0h0v4.05a1.1,1.1,0,0,0,1.1,1.1Zm-4.87-5.16a1.89,1.89,0,1,1,3.77-.06v3h-3.77Z" />
        <path id="Pfad_61" data-name="Pfad 61" class="cls-2" d="M494.62,166.48h6a1.1,1.1,0,0,0,1.1-1.1v-4.05a4.09,4.09,0,1,0-8.18,0h0v4.05a1.1,1.1,0,0,0,1.1,1.1Zm1.1-5.16a1.89,1.89,0,1,1,3.77-.06v3h-3.77Z" />
        <path id="Pfad_62" data-name="Pfad 62" class="cls-2" d="M241.9,265.82a1.21,1.21,0,0,0-1.21,1.21h0v2a1.21,1.21,0,1,0,2.41,0v-2A1.21,1.21,0,0,0,241.9,265.82Z" />
        <path id="Pfad_65" data-name="Pfad 65" class="cls-2" d="M241.9,273.92a1.21,1.21,0,0,0-1.21,1.21h0v2a1.21,1.21,0,1,0,2.41,0v-2A1.21,1.21,0,0,0,241.9,273.92Z" />
        <path id="Pfad_68" data-name="Pfad 68" class="cls-2" d="M241.9,282a1.21,1.21,0,0,0-1.21,1.21h0v2a1.21,1.21,0,1,0,2.41,0v-2A1.21,1.21,0,0,0,241.9,282Z" />
        <path id="Pfad_63" data-name="Pfad 63" class="cls-2" d="M250.93,265.82a1.21,1.21,0,0,0-1.21,1.21h0v2a1.21,1.21,0,1,0,2.41,0v-2A1.21,1.21,0,0,0,250.93,265.82Z" />
        <path id="Pfad_64" data-name="Pfad 64" class="cls-2" d="M261.24,265.82A1.21,1.21,0,0,0,260,267h0v2a1.21,1.21,0,1,0,2.41,0v-2a1.21,1.21,0,0,0-1.21-1.21Z" />
        <path id="Pfad_66" data-name="Pfad 66" class="cls-2" d="M250.93,273.92a1.21,1.21,0,0,0-1.21,1.21h0v2a1.21,1.21,0,1,0,2.41,0v-2A1.21,1.21,0,0,0,250.93,273.92Z" />
        <path id="Pfad_67" data-name="Pfad 67" class="cls-2" d="M261.24,273.92a1.21,1.21,0,0,0-1.21,1.21h0v2a1.21,1.21,0,1,0,2.41,0v-2a1.21,1.21,0,0,0-1.21-1.21Z" />
        <path id="Pfad_69" data-name="Pfad 69" class="cls-2" d="M250.93,282a1.21,1.21,0,0,0-1.21,1.21h0v2a1.21,1.21,0,0,0,2.41,0v-2A1.21,1.21,0,0,0,250.93,282Z" />
        <path id="Pfad_70" data-name="Pfad 70" class="cls-2" d="M261.24,282a1.21,1.21,0,0,0-1.21,1.21h0v2a1.21,1.21,0,1,0,2.41,0v-2a1.21,1.21,0,0,0-1.21-1.21Z" />
        <path id="Pfad_71" data-name="Pfad 71" class="cls-2" d="M271.65,265.82a1.21,1.21,0,0,0-1.21,1.21v2a1.21,1.21,0,1,0,2.41,0v-2A1.21,1.21,0,0,0,271.65,265.82Z" />
        <path id="Pfad_72" data-name="Pfad 72" class="cls-2" d="M282,265.82a1.21,1.21,0,0,0-1.21,1.21h0v2a1.21,1.21,0,1,0,2.41,0v-2a1.21,1.21,0,0,0-1.21-1.21Z" />
        <path id="Pfad_73" data-name="Pfad 73" class="cls-2" d="M271.65,273.92a1.21,1.21,0,0,0-1.21,1.21v2a1.21,1.21,0,1,0,2.41,0v-2A1.21,1.21,0,0,0,271.65,273.92Z" />
        <path id="Pfad_74" data-name="Pfad 74" class="cls-2" d="M282,273.92a1.21,1.21,0,0,0-1.21,1.21h0v2a1.21,1.21,0,1,0,2.41,0v-2a1.21,1.21,0,0,0-1.21-1.21Z" />
        <path id="Pfad_75" data-name="Pfad 75" class="cls-2" d="M271.65,282a1.21,1.21,0,0,0-1.21,1.21v2a1.21,1.21,0,1,0,2.41,0v-2a1.21,1.21,0,0,0-1.21-1.21Z" />
        <path id="Pfad_76" data-name="Pfad 76" class="cls-2" d="M282,282a1.21,1.21,0,0,0-1.21,1.21h0v2a1.21,1.21,0,1,0,2.41,0v-2A1.21,1.21,0,0,0,282,282Z" />
        <path id="Pfad_77" data-name="Pfad 77" class="cls-2" d="M315.64,305.43H304.36l-2.62-73.86a1.21,1.21,0,0,0-1.21-1.16h-9.69a1.21,1.21,0,0,0-1.21,1.16l-1.07,30.12-4-2.49-1-21.64a1.2,1.2,0,0,0-1.2-1.15h-5.8a1.21,1.21,0,0,0-1.21,1.15l-.7,15.51-4.25-2.63a1.21,1.21,0,0,0-1.84,1v8.31l0,.6-2.23-1.33-1-21.49a1.21,1.21,0,0,0-1.21-1.15h-5.79a1.2,1.2,0,0,0-1.21,1.15l-.71,15.6-4.58-2.73a1.21,1.21,0,0,0-1.82,1v8.87l-1.92-1.15-1-21.55a1.21,1.21,0,0,0-1.21-1.15h-5.79a1.2,1.2,0,0,0-1.21,1.15l-.71,15.66-4.8-2.86a1.21,1.21,0,0,0-1.82,1v54h-9.35a1.21,1.21,0,1,0,0,2.41h93.39a1.21,1.21,0,1,0,0-2.41h0ZM292,232.83h7.36l2.57,72.6H289.44Zm-14.29,6h3.49l.85,18.84L277,254.54Zm-18.21,0H263l.85,18.75-5-3Zm-18.22.08h3.49l.85,18.81-5.05-3ZM234,253.6l16.61,9.9a1.21,1.21,0,0,0,1.82-1V253.6l16.61,9.9a1.21,1.21,0,0,0,1.82-1l.1-2.68v-6.19l17.49,10.83-1.45,41H234Z" />
        <g>
            <path class="cls-2" d="M218.63,323.15h-3.28v2.91h3v.88h-3v3.72h-1v-8.4h4.27Z" />
            <path class="cls-2" d="M222.6,330.81a2.78,2.78,0,0,1-2.12-.84,3.11,3.11,0,0,1-.79-2.23,3.24,3.24,0,0,1,.83-2.36,3,3,0,0,1,2.23-.85,2.69,2.69,0,0,1,2.09.83,3.28,3.28,0,0,1,.75,2.29,3.22,3.22,0,0,1-.81,2.3A2.84,2.84,0,0,1,222.6,330.81Zm.07-5.47a1.83,1.83,0,0,0-1.46.63,2.59,2.59,0,0,0-.54,1.74,2.45,2.45,0,0,0,.54,1.68,1.85,1.85,0,0,0,1.46.62,1.76,1.76,0,0,0,1.43-.6,2.62,2.62,0,0,0,.5-1.72,2.66,2.66,0,0,0-.5-1.73A1.75,1.75,0,0,0,222.67,325.33Z" />
            <path class="cls-2" d="M226.76,330.45v-1a2.84,2.84,0,0,0,1.73.58q1.27,0,1.27-.84a.73.73,0,0,0-.11-.41,1.08,1.08,0,0,0-.29-.3,2.26,2.26,0,0,0-.43-.23l-.54-.21a6.9,6.9,0,0,1-.7-.32,2.12,2.12,0,0,1-.5-.36,1.35,1.35,0,0,1-.3-.46,1.63,1.63,0,0,1-.1-.6,1.43,1.43,0,0,1,.19-.75,1.71,1.71,0,0,1,.52-.54,2.4,2.4,0,0,1,.74-.33,3.26,3.26,0,0,1,.85-.11,3.44,3.44,0,0,1,1.39.27v1a2.72,2.72,0,0,0-1.52-.43,1.78,1.78,0,0,0-.49.06,1.19,1.19,0,0,0-.37.17.8.8,0,0,0-.24.27.7.7,0,0,0-.08.34.82.82,0,0,0,.08.39.86.86,0,0,0,.25.28,1.9,1.9,0,0,0,.4.22l.53.22a7.42,7.42,0,0,1,.71.31,2.45,2.45,0,0,1,.54.36,1.42,1.42,0,0,1,.34.47,1.5,1.5,0,0,1,.12.63,1.48,1.48,0,0,1-.2.77,1.68,1.68,0,0,1-.52.54,2.4,2.4,0,0,1-.76.32,3.73,3.73,0,0,1-.9.11A3.4,3.4,0,0,1,226.76,330.45Z" />
            <path class="cls-2" d="M231.85,330.45v-1a2.84,2.84,0,0,0,1.73.58q1.27,0,1.27-.84a.73.73,0,0,0-.11-.41,1.08,1.08,0,0,0-.29-.3,2.26,2.26,0,0,0-.43-.23l-.54-.21a6.9,6.9,0,0,1-.7-.32,2.12,2.12,0,0,1-.5-.36,1.35,1.35,0,0,1-.3-.46,1.63,1.63,0,0,1-.1-.6,1.43,1.43,0,0,1,.19-.75,1.71,1.71,0,0,1,.52-.54,2.4,2.4,0,0,1,.74-.33,3.26,3.26,0,0,1,.85-.11,3.44,3.44,0,0,1,1.39.27v1a2.72,2.72,0,0,0-1.52-.43,1.78,1.78,0,0,0-.49.06,1.19,1.19,0,0,0-.37.17.8.8,0,0,0-.24.27.7.7,0,0,0-.08.34.82.82,0,0,0,.08.39.86.86,0,0,0,.25.28,1.9,1.9,0,0,0,.4.22l.53.22a7.42,7.42,0,0,1,.71.31,2.45,2.45,0,0,1,.54.36,1.42,1.42,0,0,1,.34.47,1.5,1.5,0,0,1,.12.63,1.48,1.48,0,0,1-.2.77,1.68,1.68,0,0,1-.52.54,2.4,2.4,0,0,1-.76.32,3.73,3.73,0,0,1-.9.11A3.4,3.4,0,0,1,231.85,330.45Z" />
            <path class="cls-2" d="M237.8,323.14a.61.61,0,0,1-.44-.18.59.59,0,0,1-.18-.45.62.62,0,0,1,.62-.63.62.62,0,0,1,.45.18.63.63,0,0,1,0,.89A.62.62,0,0,1,237.8,323.14Zm.47,7.52h-1v-6h1Z" />
            <path class="cls-2" d="M241.18,330.67h-1v-8.88h1Z" />
            <path class="cls-2" d="M247.94,327.91h-4.24a2.24,2.24,0,0,0,.54,1.55,1.86,1.86,0,0,0,1.42.54,3,3,0,0,0,1.86-.67v.9a3.48,3.48,0,0,1-2.09.57,2.54,2.54,0,0,1-2-.82,3.35,3.35,0,0,1-.73-2.3,3.28,3.28,0,0,1,.79-2.28,2.55,2.55,0,0,1,2-.88,2.26,2.26,0,0,1,1.82.76,3.18,3.18,0,0,1,.64,2.12Zm-1-.81a2,2,0,0,0-.4-1.29,1.37,1.37,0,0,0-1.1-.46,1.55,1.55,0,0,0-1.15.49,2.21,2.21,0,0,0-.59,1.27Z" />
            <path class="cls-2" d="M257.26,330.67h-4.45v-8.4h4.27v.89H253.8v2.79h3v.88h-3v2.94h3.47Z" />
            <path class="cls-2" d="M263.73,330.67h-1v-3.42q0-1.91-1.39-1.91a1.51,1.51,0,0,0-1.19.54,2,2,0,0,0-.47,1.37v3.42h-1v-6h1v1h0a2.17,2.17,0,0,1,2-1.14,1.84,1.84,0,0,1,1.51.64,2.83,2.83,0,0,1,.52,1.84Z" />
            <path class="cls-2" d="M270.37,327.91h-4.24a2.24,2.24,0,0,0,.54,1.55,1.86,1.86,0,0,0,1.42.54,3,3,0,0,0,1.86-.67v.9a3.48,3.48,0,0,1-2.09.57,2.54,2.54,0,0,1-2-.82,3.35,3.35,0,0,1-.73-2.3,3.28,3.28,0,0,1,.79-2.28,2.55,2.55,0,0,1,2-.88,2.26,2.26,0,0,1,1.82.76,3.18,3.18,0,0,1,.64,2.12Zm-1-.81a2,2,0,0,0-.4-1.29,1.37,1.37,0,0,0-1.1-.46,1.55,1.55,0,0,0-1.15.49,2.21,2.21,0,0,0-.59,1.27Z" />
            <path class="cls-2" d="M274.95,325.64a1.18,1.18,0,0,0-.73-.19,1.23,1.23,0,0,0-1,.58,2.68,2.68,0,0,0-.41,1.58v3.06h-1v-6h1v1.24h0a2.1,2.1,0,0,1,.63-1,1.43,1.43,0,0,1,.94-.35,1.57,1.57,0,0,1,.57.08Z" />
            <path class="cls-2" d="M281.11,330.19q0,3.3-3.16,3.3a4.25,4.25,0,0,1-1.95-.42v-1a4,4,0,0,0,1.93.56q2.21,0,2.21-2.36v-.66h0a2.43,2.43,0,0,1-3.86.35,3.2,3.2,0,0,1-.68-2.15,3.74,3.74,0,0,1,.74-2.43,2.46,2.46,0,0,1,2-.9,2,2,0,0,1,1.8,1h0v-.83h1Zm-1-2.23v-.88a1.72,1.72,0,0,0-.48-1.22,1.59,1.59,0,0,0-1.2-.51,1.67,1.67,0,0,0-1.39.65,2.89,2.89,0,0,0-.5,1.81,2.48,2.48,0,0,0,.48,1.6,1.56,1.56,0,0,0,1.28.6,1.67,1.67,0,0,0,1.32-.57A2.14,2.14,0,0,0,280.15,328Z" />
            <path class="cls-2" d="M283.55,323.14a.61.61,0,0,1-.44-.18.59.59,0,0,1-.18-.45.62.62,0,0,1,.62-.63.62.62,0,0,1,.45.18.63.63,0,0,1,0,.89A.62.62,0,0,1,283.55,323.14Zm.47,7.52h-1v-6h1Z" />
            <path class="cls-2" d="M290.79,327.91h-4.24a2.24,2.24,0,0,0,.54,1.55,1.86,1.86,0,0,0,1.42.54,3,3,0,0,0,1.86-.67v.9a3.48,3.48,0,0,1-2.09.57,2.54,2.54,0,0,1-2-.82,3.35,3.35,0,0,1-.73-2.3,3.28,3.28,0,0,1,.79-2.28,2.55,2.55,0,0,1,2-.88,2.26,2.26,0,0,1,1.82.76,3.18,3.18,0,0,1,.64,2.12Zm-1-.81a2,2,0,0,0-.4-1.29,1.37,1.37,0,0,0-1.1-.46,1.55,1.55,0,0,0-1.15.49,2.21,2.21,0,0,0-.59,1.27Z" />
            <path class="cls-2" d="M295,330.61a1.85,1.85,0,0,1-.9.19q-1.58,0-1.58-1.76v-3.55h-1v-.82h1V323.2l1-.31v1.78H295v.82h-1.51v3.38a1.4,1.4,0,0,0,.21.86.82.82,0,0,0,.68.26,1,1,0,0,0,.63-.2Z" />
            <path class="cls-2" d="M299.43,325.64a1.18,1.18,0,0,0-.73-.19,1.23,1.23,0,0,0-1,.58,2.68,2.68,0,0,0-.41,1.58v3.06h-1v-6h1v1.24h0a2.1,2.1,0,0,1,.63-1,1.43,1.43,0,0,1,.94-.35,1.57,1.57,0,0,1,.57.08Z" />
            <path class="cls-2" d="M304.77,330.67h-1v-.94h0a2,2,0,0,1-1.85,1.08,2,2,0,0,1-1.4-.47,1.64,1.64,0,0,1-.51-1.26q0-1.68,2-2l1.8-.25q0-1.53-1.24-1.53a3,3,0,0,0-2,.74v-1a3.72,3.72,0,0,1,2-.56q2.12,0,2.12,2.24Zm-3.37-7.14a.57.57,0,0,1-.42-.17.56.56,0,0,1-.17-.41.55.55,0,0,1,.17-.41.56.56,0,0,1,.41-.16.58.58,0,0,1,.42.17.54.54,0,0,1,.18.41.56.56,0,0,1-.17.41A.55.55,0,0,1,301.4,323.53Zm2.41,4.1-1.45.2a2.35,2.35,0,0,0-1,.33,1,1,0,0,0-.34.84.92.92,0,0,0,.31.72,1.21,1.21,0,0,0,.83.28,1.54,1.54,0,0,0,1.18-.5,1.79,1.79,0,0,0,.47-1.27Zm-.16-4.1a.56.56,0,0,1-.4-.16.59.59,0,0,1,0-.83.54.54,0,0,1,.4-.16.57.57,0,0,1,.42.17.55.55,0,0,1,.17.41.57.57,0,0,1-.16.41A.55.55,0,0,1,303.65,323.53Z" />
            <path class="cls-2" d="M311.7,330.19q0,3.3-3.16,3.3a4.25,4.25,0,0,1-1.95-.42v-1a4,4,0,0,0,1.93.56q2.21,0,2.21-2.36v-.66h0a2.43,2.43,0,0,1-3.86.35,3.2,3.2,0,0,1-.68-2.15,3.74,3.74,0,0,1,.74-2.43,2.46,2.46,0,0,1,2-.9,2,2,0,0,1,1.8,1h0v-.83h1Zm-1-2.23v-.88a1.72,1.72,0,0,0-.48-1.22,1.59,1.59,0,0,0-1.2-.51,1.67,1.67,0,0,0-1.39.65,2.89,2.89,0,0,0-.5,1.81,2.48,2.48,0,0,0,.48,1.6,1.56,1.56,0,0,0,1.28.6,1.67,1.67,0,0,0,1.32-.57A2.14,2.14,0,0,0,310.74,328Z" />
            <path class="cls-2" d="M318.47,327.91h-4.24a2.24,2.24,0,0,0,.54,1.55,1.86,1.86,0,0,0,1.42.54,3,3,0,0,0,1.86-.67v.9a3.48,3.48,0,0,1-2.09.57,2.54,2.54,0,0,1-2-.82,3.35,3.35,0,0,1-.73-2.3,3.28,3.28,0,0,1,.79-2.28,2.55,2.55,0,0,1,2-.88,2.26,2.26,0,0,1,1.82.76,3.18,3.18,0,0,1,.64,2.12Zm-1-.81a2,2,0,0,0-.4-1.29,1.37,1.37,0,0,0-1.1-.46,1.55,1.55,0,0,0-1.15.49,2.21,2.21,0,0,0-.59,1.27Z" />
            <path class="cls-2" d="M323.05,325.64a1.18,1.18,0,0,0-.73-.19,1.23,1.23,0,0,0-1,.58,2.68,2.68,0,0,0-.41,1.58v3.06h-1v-6h1v1.24h0a2.1,2.1,0,0,1,.63-1,1.43,1.43,0,0,1,.94-.35,1.57,1.57,0,0,1,.57.08Z" />
        </g>
        <g>
            <path class="cls-2" d="M453.92,214.34a3.71,3.71,0,0,1-2.87-1.18,4.38,4.38,0,0,1-1.07-3.06,4.62,4.62,0,0,1,1.1-3.23,3.84,3.84,0,0,1,3-1.21,3.61,3.61,0,0,1,2.8,1.17,4.38,4.38,0,0,1,1.07,3.06,4.64,4.64,0,0,1-1.09,3.25,3.23,3.23,0,0,1-.55.49l2.36,1.69h-1.79l-1.58-1.18A4.55,4.55,0,0,1,453.92,214.34Zm.07-7.79a2.71,2.71,0,0,0-2.15,1A3.7,3.7,0,0,0,451,210a3.76,3.76,0,0,0,.8,2.5,2.64,2.64,0,0,0,2.1.94,2.76,2.76,0,0,0,2.18-.9,3.69,3.69,0,0,0,.8-2.53,3.84,3.84,0,0,0-.77-2.57A2.65,2.65,0,0,0,454,206.54Z" />
            <path class="cls-2" d="M464.3,214.2h-1v-.95h0a2,2,0,0,1-1.85,1.09q-2.14,0-2.14-2.55V208.2h1v3.43q0,1.9,1.45,1.9a1.47,1.47,0,0,0,1.16-.52,2,2,0,0,0,.45-1.36V208.2h1Z" />
            <path class="cls-2" d="M470.53,214.2h-1v-.94h0a2,2,0,0,1-1.85,1.08,2,2,0,0,1-1.4-.47,1.64,1.64,0,0,1-.51-1.26q0-1.68,2-2l1.8-.25q0-1.53-1.24-1.53a3,3,0,0,0-2,.74v-1a3.72,3.72,0,0,1,2-.56q2.12,0,2.12,2.24Zm-1-3-1.45.2a2.35,2.35,0,0,0-1,.33,1,1,0,0,0-.34.84.92.92,0,0,0,.31.72,1.21,1.21,0,0,0,.83.28,1.54,1.54,0,0,0,1.18-.5,1.79,1.79,0,0,0,.47-1.27Z" />
            <path class="cls-2" d="M475.47,209.17a1.18,1.18,0,0,0-.73-.19,1.23,1.23,0,0,0-1,.58,2.68,2.68,0,0,0-.41,1.58v3.06h-1v-6h1v1.24h0a2.1,2.1,0,0,1,.63-1,1.43,1.43,0,0,1,.94-.35,1.57,1.57,0,0,1,.57.08Z" />
            <path class="cls-2" d="M479.3,214.14a1.85,1.85,0,0,1-.9.19q-1.58,0-1.58-1.76V209h-1v-.82h1v-1.46l1-.31v1.78h1.51V209h-1.51v3.38a1.4,1.4,0,0,0,.21.86.82.82,0,0,0,.68.26,1,1,0,0,0,.63-.2Z" />
            <path class="cls-2" d="M481.07,206.67a.61.61,0,0,1-.44-.18.59.59,0,0,1-.18-.45.62.62,0,0,1,.62-.63.62.62,0,0,1,.45.18.63.63,0,0,1,0,.89A.62.62,0,0,1,481.07,206.67Zm.47,7.52h-1v-6h1Z" />
            <path class="cls-2" d="M488.31,211.44h-4.24a2.24,2.24,0,0,0,.54,1.55,1.86,1.86,0,0,0,1.42.54,3,3,0,0,0,1.86-.67v.9a3.48,3.48,0,0,1-2.09.57,2.54,2.54,0,0,1-2-.82,3.35,3.35,0,0,1-.73-2.3,3.28,3.28,0,0,1,.79-2.28,2.55,2.55,0,0,1,2-.88,2.26,2.26,0,0,1,1.82.76,3.18,3.18,0,0,1,.64,2.12Zm-1-.81a2,2,0,0,0-.4-1.29,1.37,1.37,0,0,0-1.1-.46,1.55,1.55,0,0,0-1.15.49,2.21,2.21,0,0,0-.59,1.27Z" />
            <path class="cls-2" d="M492.89,209.17a1.18,1.18,0,0,0-.73-.19,1.23,1.23,0,0,0-1,.58,2.68,2.68,0,0,0-.41,1.58v3.06h-1v-6h1v1.24h0a2.1,2.1,0,0,1,.63-1,1.43,1.43,0,0,1,.94-.35,1.57,1.57,0,0,1,.57.08Z" />
        </g>
        <path id="Pfad_883" data-name="Pfad 883" class="cls-5" d="M271.95,62.29a3,3,0,1,1,3,3A3,3,0,0,1,271.95,62.29Z" />
        <g class="cls-6">
            <path d="M218.27,13.66V12.5a2.25,2.25,0,0,0,.48.32,3.87,3.87,0,0,0,.59.24,4.66,4.66,0,0,0,.62.15,3.45,3.45,0,0,0,.57.05,2.25,2.25,0,0,0,1.36-.34,1.26,1.26,0,0,0,.3-1.56,1.68,1.68,0,0,0-.41-.46,4.1,4.1,0,0,0-.62-.4l-.78-.4q-.44-.22-.82-.45a3.55,3.55,0,0,1-.66-.5,2.1,2.1,0,0,1-.44-.62,1.93,1.93,0,0,1-.16-.82,1.92,1.92,0,0,1,.25-1,2.16,2.16,0,0,1,.66-.7,3,3,0,0,1,.93-.41,4.28,4.28,0,0,1,1.07-.13,4.1,4.1,0,0,1,1.81.3V6.86a3.28,3.28,0,0,0-1.91-.52,3.14,3.14,0,0,0-.64.07,1.82,1.82,0,0,0-.57.22,1.27,1.27,0,0,0-.41.39,1,1,0,0,0-.16.59,1.21,1.21,0,0,0,.12.56,1.36,1.36,0,0,0,.35.43,3.53,3.53,0,0,0,.57.38l.78.4q.45.22.86.47a3.91,3.91,0,0,1,.71.54,2.42,2.42,0,0,1,.48.66,1.86,1.86,0,0,1,.18.83,2.11,2.11,0,0,1-.24,1.05,2,2,0,0,1-.66.7,2.87,2.87,0,0,1-1,.39,5.21,5.21,0,0,1-1.14.12l-.49,0-.6-.09a4.88,4.88,0,0,1-.58-.15A1.8,1.8,0,0,1,218.27,13.66Z" />
            <path d="M227.31,13.94a1.85,1.85,0,0,1-.9.19q-1.58,0-1.58-1.76V8.82h-1V8h1V6.53l1-.31V8h1.51v.82H225.8V12.2a1.4,1.4,0,0,0,.21.86.82.82,0,0,0,.68.26,1,1,0,0,0,.63-.2Z" />
            <path d="M231.72,9a1.18,1.18,0,0,0-.73-.19,1.23,1.23,0,0,0-1,.58,2.68,2.68,0,0,0-.41,1.58V14h-1V8h1V9.24h0a2.1,2.1,0,0,1,.63-1,1.43,1.43,0,0,1,.94-.35,1.57,1.57,0,0,1,.57.08Z" />
            <path d="M235.27,14.14a2.78,2.78,0,0,1-2.12-.84,3.11,3.11,0,0,1-.79-2.23,3.24,3.24,0,0,1,.83-2.36,3,3,0,0,1,2.23-.85,2.69,2.69,0,0,1,2.09.83,3.28,3.28,0,0,1,.75,2.29,3.22,3.22,0,0,1-.81,2.3A2.84,2.84,0,0,1,235.27,14.14Zm.07-5.47a1.83,1.83,0,0,0-1.46.63,2.59,2.59,0,0,0-.54,1.74,2.45,2.45,0,0,0,.54,1.68,1.85,1.85,0,0,0,1.46.62,1.76,1.76,0,0,0,1.43-.6,2.62,2.62,0,0,0,.5-1.72,2.66,2.66,0,0,0-.5-1.73A1.75,1.75,0,0,0,235.34,8.67Z" />
            <path d="M248.31,14h-1V10.55A2.6,2.6,0,0,0,247,9.11a1.17,1.17,0,0,0-1-.45,1.28,1.28,0,0,0-1,.56,2.15,2.15,0,0,0-.43,1.35V14h-1V10.44q0-1.77-1.37-1.77a1.26,1.26,0,0,0-1,.53,2.19,2.19,0,0,0-.41,1.38V14h-1V8h1v.95h0a2,2,0,0,1,1.86-1.09,1.73,1.73,0,0,1,1.7,1.24,2.14,2.14,0,0,1,2-1.24q2,0,2,2.44Z" />
            <path d="M254.42,14h-1v-.94h0a2,2,0,0,1-1.85,1.08,2,2,0,0,1-1.4-.47,1.64,1.64,0,0,1-.51-1.26q0-1.68,2-2l1.8-.25q0-1.53-1.24-1.53a3,3,0,0,0-2,.74v-1a3.72,3.72,0,0,1,2-.56q2.12,0,2.12,2.24Zm-1-3-1.45.2a2.35,2.35,0,0,0-1,.33,1,1,0,0,0-.34.84.92.92,0,0,0,.31.72,1.21,1.21,0,0,0,.83.28,1.54,1.54,0,0,0,1.18-.5,1.79,1.79,0,0,0,.47-1.27Z" />
            <path d="M264.75,14h-1V10.55a2.6,2.6,0,0,0-.31-1.44,1.17,1.17,0,0,0-1-.45,1.28,1.28,0,0,0-1,.56,2.15,2.15,0,0,0-.43,1.35V14h-1V10.44q0-1.77-1.37-1.77a1.26,1.26,0,0,0-1,.53,2.19,2.19,0,0,0-.41,1.38V14h-1V8h1v.95h0a2,2,0,0,1,1.86-1.09,1.73,1.73,0,0,1,1.7,1.24,2.14,2.14,0,0,1,2-1.24q2,0,2,2.44Z" />
            <path d="M267.55,13.13h0v3.63h-1V8h1V9.05h0a2.27,2.27,0,0,1,2.07-1.2,2.2,2.2,0,0,1,1.81.81,3.34,3.34,0,0,1,.65,2.16,3.72,3.72,0,0,1-.73,2.41,2.44,2.44,0,0,1-2,.91A2,2,0,0,1,267.55,13.13Zm0-2.42v.84a1.78,1.78,0,0,0,.48,1.26,1.72,1.72,0,0,0,2.6-.15,3.06,3.06,0,0,0,.5-1.86,2.42,2.42,0,0,0-.46-1.57,1.53,1.53,0,0,0-1.25-.57,1.7,1.7,0,0,0-1.35.58A2.14,2.14,0,0,0,267.53,10.71Z" />
            <path d="M278.45,11.24h-4.24a2.24,2.24,0,0,0,.54,1.55,1.86,1.86,0,0,0,1.42.54,3,3,0,0,0,1.86-.67v.9a3.48,3.48,0,0,1-2.09.57,2.54,2.54,0,0,1-2-.82,3.35,3.35,0,0,1-.73-2.3A3.28,3.28,0,0,1,274,8.74a2.55,2.55,0,0,1,2-.88,2.26,2.26,0,0,1,1.82.76,3.18,3.18,0,0,1,.64,2.12Zm-1-.81a2,2,0,0,0-.4-1.29,1.37,1.37,0,0,0-1.1-.46,1.55,1.55,0,0,0-1.15.49,2.21,2.21,0,0,0-.59,1.27Z" />
            <path d="M280.86,14h-1V5.12h1Z" />
            <path d="M290.39,14h-1v-.94h0a2,2,0,0,1-1.85,1.08,2,2,0,0,1-1.4-.47,1.64,1.64,0,0,1-.51-1.26q0-1.68,2-2l1.8-.25q0-1.53-1.24-1.53a3,3,0,0,0-2,.74v-1a3.72,3.72,0,0,1,2-.56q2.12,0,2.12,2.24Zm-1-3-1.45.2a2.35,2.35,0,0,0-1,.33,1,1,0,0,0-.34.84.92.92,0,0,0,.31.72,1.21,1.21,0,0,0,.83.28,1.54,1.54,0,0,0,1.18-.5,1.79,1.79,0,0,0,.47-1.27Z" />
            <path d="M297.05,14h-1V13h0a2,2,0,0,1-1.85,1.09q-2.14,0-2.14-2.55V8h1v3.43q0,1.9,1.45,1.9a1.47,1.47,0,0,0,1.16-.52,2,2,0,0,0,.45-1.36V8h1Z" />
            <path d="M302,6a1.28,1.28,0,0,0-.64-.16q-1,0-1,1.27V8h1.41v.82h-1.41V14h-1V8.82h-1V8h1V7a2,2,0,0,1,.54-1.49A1.84,1.84,0,0,1,301.26,5a1.88,1.88,0,0,1,.7.11Z" />
            <path d="M309.16,9a1.18,1.18,0,0,0-.73-.19,1.23,1.23,0,0,0-1,.58,2.68,2.68,0,0,0-.41,1.58V14h-1V8h1V9.24h0a2.1,2.1,0,0,1,.63-1,1.43,1.43,0,0,1,.94-.35,1.57,1.57,0,0,1,.57.08Z" />
            <path d="M312.71,14.14a2.78,2.78,0,0,1-2.12-.84,3.11,3.11,0,0,1-.79-2.23,3.24,3.24,0,0,1,.83-2.36,3,3,0,0,1,2.23-.85,2.69,2.69,0,0,1,2.09.83A3.28,3.28,0,0,1,315.7,11a3.22,3.22,0,0,1-.81,2.3A2.84,2.84,0,0,1,312.71,14.14Zm.07-5.47a1.83,1.83,0,0,0-1.46.63,2.59,2.59,0,0,0-.54,1.74,2.45,2.45,0,0,0,.54,1.68,1.85,1.85,0,0,0,1.46.62,1.76,1.76,0,0,0,1.43-.6,2.62,2.62,0,0,0,.5-1.72,2.66,2.66,0,0,0-.5-1.73A1.75,1.75,0,0,0,312.78,8.67Z" />
            <path d="M320,13.94a1.85,1.85,0,0,1-.9.19q-1.58,0-1.58-1.76V8.82h-1V8h1V6.53l1-.31V8H320v.82h-1.51V12.2a1.4,1.4,0,0,0,.21.86.82.82,0,0,0,.68.26,1,1,0,0,0,.63-.2Z" />
        </g>
        <g class="cls-6">
            <path d="M48,33.76l-2.37,8.4H44.44L42.71,36a3.84,3.84,0,0,1-.13-.86h0a4.34,4.34,0,0,1-.15.84l-1.74,6.15H39.52l-2.46-8.4h1.08l1.79,6.45a4.23,4.23,0,0,1,.14.84h0a5,5,0,0,1,.18-.84l1.86-6.45h.94l1.78,6.49A4.75,4.75,0,0,1,45,41h0a4.71,4.71,0,0,1,.16-.81l1.72-6.47Z" />
            <path d="M53.44,39.41H49.2A2.24,2.24,0,0,0,49.74,41a1.86,1.86,0,0,0,1.42.54A3,3,0,0,0,53,40.83v.9a3.48,3.48,0,0,1-2.09.57,2.54,2.54,0,0,1-2-.82,3.35,3.35,0,0,1-.73-2.3A3.28,3.28,0,0,1,49,36.91,2.55,2.55,0,0,1,51,36a2.26,2.26,0,0,1,1.82.76,3.18,3.18,0,0,1,.64,2.12Zm-1-.81a2,2,0,0,0-.4-1.29,1.37,1.37,0,0,0-1.1-.46,1.55,1.55,0,0,0-1.15.49,2.21,2.21,0,0,0-.59,1.27Z" />
            <path d="M59.87,42.17h-1V38.74q0-1.91-1.39-1.91a1.51,1.51,0,0,0-1.19.54,2,2,0,0,0-.47,1.37v3.42h-1v-6h1v1h0a2.17,2.17,0,0,1,2-1.14,1.84,1.84,0,0,1,1.51.64,2.83,2.83,0,0,1,.52,1.84Z" />
            <path d="M62.18,34.64a.61.61,0,0,1-.44-.18.59.59,0,0,1-.18-.45.62.62,0,0,1,.62-.63.62.62,0,0,1,.45.18.63.63,0,0,1,0,.89A.62.62,0,0,1,62.18,34.64Zm.47,7.52h-1v-6h1Z" />
            <path d="M69.71,41.68q0,3.3-3.16,3.3a4.25,4.25,0,0,1-1.95-.42v-1a4,4,0,0,0,1.93.56q2.21,0,2.21-2.36v-.66h0a2.43,2.43,0,0,1-3.86.35,3.2,3.2,0,0,1-.68-2.15,3.74,3.74,0,0,1,.74-2.43,2.46,2.46,0,0,1,2-.9,2,2,0,0,1,1.8,1h0v-.83h1Zm-1-2.23v-.88a1.72,1.72,0,0,0-.48-1.22,1.59,1.59,0,0,0-1.2-.51,1.67,1.67,0,0,0-1.39.65,2.89,2.89,0,0,0-.5,1.81,2.48,2.48,0,0,0,.48,1.6,1.56,1.56,0,0,0,1.28.6,1.67,1.67,0,0,0,1.32-.57A2.14,2.14,0,0,0,68.75,39.45Z" />
            <path d="M74.68,41.83V40.67a2.25,2.25,0,0,0,.48.32,3.87,3.87,0,0,0,.59.24,4.66,4.66,0,0,0,.62.15,3.45,3.45,0,0,0,.57.05,2.25,2.25,0,0,0,1.36-.34,1.26,1.26,0,0,0,.3-1.56,1.68,1.68,0,0,0-.41-.46,4.1,4.1,0,0,0-.62-.4l-.78-.4q-.44-.22-.82-.45a3.55,3.55,0,0,1-.66-.5,2.1,2.1,0,0,1-.44-.62,2.13,2.13,0,0,1,.09-1.82,2.16,2.16,0,0,1,.66-.7,3,3,0,0,1,.93-.41,4.28,4.28,0,0,1,1.07-.13,4.1,4.1,0,0,1,1.81.3V35a3.28,3.28,0,0,0-1.91-.52,3.14,3.14,0,0,0-.64.07,1.82,1.82,0,0,0-.57.22,1.27,1.27,0,0,0-.41.39,1,1,0,0,0-.16.59,1.21,1.21,0,0,0,.12.56,1.36,1.36,0,0,0,.35.43,3.53,3.53,0,0,0,.57.38l.78.4q.45.22.86.47a3.91,3.91,0,0,1,.71.54,2.42,2.42,0,0,1,.48.66,1.86,1.86,0,0,1,.18.83,2.11,2.11,0,0,1-.24,1.05,2,2,0,0,1-.66.7,2.87,2.87,0,0,1-1,.39,5.21,5.21,0,0,1-1.14.12l-.49,0-.6-.09a4.88,4.88,0,0,1-.58-.15A1.8,1.8,0,0,1,74.68,41.83Z" />
            <path d="M83.72,42.11a1.85,1.85,0,0,1-.9.19q-1.58,0-1.58-1.76V37h-1v-.82h1V34.7l1-.31v1.78h1.51V37H82.2v3.38a1.4,1.4,0,0,0,.21.86.82.82,0,0,0,.68.26,1,1,0,0,0,.63-.2Z" />
            <path d="M88.13,37.14a1.18,1.18,0,0,0-.73-.19,1.23,1.23,0,0,0-1,.58A2.68,2.68,0,0,0,86,39.11v3.06H85v-6h1V37.4h0a2.1,2.1,0,0,1,.63-1,1.43,1.43,0,0,1,.94-.35,1.57,1.57,0,0,1,.57.08Z" />
            <path d="M91.68,42.31a2.78,2.78,0,0,1-2.12-.84,3.11,3.11,0,0,1-.79-2.23,3.24,3.24,0,0,1,.83-2.36A3,3,0,0,1,91.82,36a2.69,2.69,0,0,1,2.09.83,3.28,3.28,0,0,1,.75,2.29,3.22,3.22,0,0,1-.81,2.3A2.84,2.84,0,0,1,91.68,42.31Zm.07-5.47a1.83,1.83,0,0,0-1.46.63,2.59,2.59,0,0,0-.54,1.74,2.45,2.45,0,0,0,.54,1.68,1.85,1.85,0,0,0,1.46.62,1.76,1.76,0,0,0,1.43-.6,2.62,2.62,0,0,0,.5-1.72,2.66,2.66,0,0,0-.5-1.73A1.75,1.75,0,0,0,91.75,36.83Z" />
            <path d="M104.72,42.17h-1V38.72a2.6,2.6,0,0,0-.31-1.44,1.17,1.17,0,0,0-1-.45,1.28,1.28,0,0,0-1,.56,2.15,2.15,0,0,0-.43,1.35v3.42h-1V38.6q0-1.77-1.37-1.77a1.26,1.26,0,0,0-1,.53,2.19,2.19,0,0,0-.41,1.38v3.42h-1v-6h1v.95h0A2,2,0,0,1,99,36a1.73,1.73,0,0,1,1.7,1.24,2.14,2.14,0,0,1,2-1.24q2,0,2,2.44Z" />
            <path d="M110.32,34.64a.61.61,0,0,1-.44-.18.59.59,0,0,1-.18-.45.62.62,0,0,1,.62-.63.62.62,0,0,1,.45.18.63.63,0,0,1,0,.89A.62.62,0,0,1,110.32,34.64Zm.47,7.52h-1v-6h1Z" />
            <path d="M121.25,42.17h-1V38.72a2.6,2.6,0,0,0-.31-1.44,1.17,1.17,0,0,0-1-.45,1.28,1.28,0,0,0-1,.56,2.15,2.15,0,0,0-.43,1.35v3.42h-1V38.6q0-1.77-1.37-1.77a1.26,1.26,0,0,0-1,.53,2.19,2.19,0,0,0-.41,1.38v3.42h-1v-6h1v.95h0A2,2,0,0,1,115.58,36a1.73,1.73,0,0,1,1.7,1.24,2.14,2.14,0,0,1,2-1.24q2,0,2,2.44Z" />
            <path d="M133.26,42.17H132l-4.32-6.7a2.8,2.8,0,0,1-.27-.53h0a8.65,8.65,0,0,1,0,1.15v6.07h-1v-8.4h1.28L132,40.35q.26.41.34.56h0a8.89,8.89,0,0,1-.06-1.24V33.76h1Z" />
            <path d="M140.15,39.41h-4.24a2.24,2.24,0,0,0,.54,1.55,1.86,1.86,0,0,0,1.42.54,3,3,0,0,0,1.86-.67v.9a3.48,3.48,0,0,1-2.09.57,2.54,2.54,0,0,1-2-.82,3.35,3.35,0,0,1-.73-2.3,3.28,3.28,0,0,1,.79-2.28,2.55,2.55,0,0,1,2-.88,2.26,2.26,0,0,1,1.82.76,3.18,3.18,0,0,1,.64,2.12Zm-1-.81a2,2,0,0,0-.4-1.29,1.37,1.37,0,0,0-1.1-.46,1.55,1.55,0,0,0-1.15.49,2.21,2.21,0,0,0-.59,1.27Z" />
            <path d="M144.39,42.11a1.85,1.85,0,0,1-.9.19q-1.58,0-1.58-1.76V37h-1v-.82h1V34.7l1-.31v1.78h1.51V37h-1.51v3.38a1.4,1.4,0,0,0,.21.86.82.82,0,0,0,.68.26,1,1,0,0,0,.63-.2Z" />
            <path d="M149.86,36.44l-3.55,4.9h3.52v.82h-4.93v-.3L148.44,37h-3.22v-.82h4.63Z" />
        </g>
        <g class="cls-6">
            <path d="M435.52,35.76l-3.11,8.4h-1.08l-3-8.4h1.1l2.33,6.66a4,4,0,0,1,.17.74h0a3.65,3.65,0,0,1,.19-.76l2.37-6.65Z" />
            <path d="M437.09,36.64a.61.61,0,0,1-.44-.18.59.59,0,0,1-.18-.45.62.62,0,0,1,.62-.63.62.62,0,0,1,.45.18.63.63,0,0,1,0,.89A.62.62,0,0,1,437.09,36.64Zm.47,7.52h-1v-6h1Z" />
            <path d="M444.33,41.41h-4.24a2.24,2.24,0,0,0,.54,1.55,1.86,1.86,0,0,0,1.42.54,3,3,0,0,0,1.86-.67v.9a3.48,3.48,0,0,1-2.09.57,2.54,2.54,0,0,1-2-.82,3.35,3.35,0,0,1-.73-2.3,3.28,3.28,0,0,1,.79-2.28,2.55,2.55,0,0,1,2-.88,2.26,2.26,0,0,1,1.82.76,3.18,3.18,0,0,1,.64,2.12Zm-1-.81a2,2,0,0,0-.4-1.29,1.37,1.37,0,0,0-1.1-.46,1.55,1.55,0,0,0-1.15.49,2.21,2.21,0,0,0-.59,1.27Z" />
            <path d="M446.74,44.17h-1V35.28h1Z" />
            <path d="M458.35,35.76l-3.11,8.4h-1.08l-3-8.4h1.1l2.33,6.66a4,4,0,0,1,.17.74h0a3.65,3.65,0,0,1,.19-.76l2.37-6.65Z" />
            <path d="M463.49,41.41h-4.24a2.24,2.24,0,0,0,.54,1.55,1.86,1.86,0,0,0,1.42.54,3,3,0,0,0,1.86-.67v.9a3.48,3.48,0,0,1-2.09.57,2.54,2.54,0,0,1-2-.82,3.35,3.35,0,0,1-.73-2.3,3.28,3.28,0,0,1,.79-2.28,2.55,2.55,0,0,1,2-.88,2.26,2.26,0,0,1,1.82.76,3.18,3.18,0,0,1,.64,2.12Zm-1-.81a2,2,0,0,0-.4-1.29,1.37,1.37,0,0,0-1.1-.46,1.55,1.55,0,0,0-1.15.49,2.21,2.21,0,0,0-.59,1.27Z" />
            <path d="M468.07,39.14a1.18,1.18,0,0,0-.73-.19,1.23,1.23,0,0,0-1,.58,2.68,2.68,0,0,0-.41,1.58v3.06h-1v-6h1V39.4h0a2.1,2.1,0,0,1,.63-1,1.43,1.43,0,0,1,.94-.35,1.57,1.57,0,0,1,.57.08Z" />
            <path d="M470.09,43.3h0v.87h-1V35.28h1v3.94h0a2.27,2.27,0,0,1,2.07-1.2,2.2,2.2,0,0,1,1.81.81,3.33,3.33,0,0,1,.65,2.16,3.72,3.72,0,0,1-.73,2.41,2.44,2.44,0,0,1-2,.91A2,2,0,0,1,470.09,43.3Zm0-2.42v.84a1.78,1.78,0,0,0,.48,1.26,1.72,1.72,0,0,0,2.6-.15,3.06,3.06,0,0,0,.5-1.86,2.42,2.42,0,0,0-.46-1.57,1.53,1.53,0,0,0-1.25-.57,1.7,1.7,0,0,0-1.35.58A2.14,2.14,0,0,0,470.07,40.88Z" />
            <path d="M479.29,39.14a1.18,1.18,0,0,0-.73-.19,1.23,1.23,0,0,0-1,.58,2.68,2.68,0,0,0-.41,1.58v3.06h-1v-6h1V39.4h0a2.1,2.1,0,0,1,.63-1,1.43,1.43,0,0,1,.94-.35,1.57,1.57,0,0,1,.57.08Z" />
            <path d="M484.63,44.17h-1v-.94h0a2,2,0,0,1-1.85,1.08,2,2,0,0,1-1.4-.47,1.64,1.64,0,0,1-.51-1.26q0-1.68,2-2l1.8-.25q0-1.53-1.24-1.53a3,3,0,0,0-2,.74v-1a3.72,3.72,0,0,1,2-.56q2.12,0,2.12,2.24Zm-1-3-1.45.2a2.35,2.35,0,0,0-1,.33,1,1,0,0,0-.34.84.92.92,0,0,0,.31.72,1.21,1.21,0,0,0,.83.28,1.54,1.54,0,0,0,1.18-.5,1.79,1.79,0,0,0,.47-1.27Z" />
            <path d="M491.29,44.17h-1v-.95h0a2,2,0,0,1-1.85,1.09q-2.14,0-2.14-2.55V38.17h1V41.6q0,1.9,1.45,1.9a1.47,1.47,0,0,0,1.16-.52,2,2,0,0,0,.45-1.36V38.17h1Z" />
            <path d="M497.32,43.89a3.12,3.12,0,0,1-1.64.42,2.72,2.72,0,0,1-2.07-.83,3,3,0,0,1-.79-2.17,3.33,3.33,0,0,1,.85-2.38,3,3,0,0,1,2.27-.9,3.16,3.16,0,0,1,1.39.29v1a2.44,2.44,0,0,0-1.43-.47,1.93,1.93,0,0,0-1.51.66,2.5,2.5,0,0,0-.59,1.73,2.38,2.38,0,0,0,.55,1.66,1.91,1.91,0,0,0,1.49.61,2.41,2.41,0,0,0,1.48-.52Z" />
            <path d="M503.76,44.17h-1V40.71q0-1.87-1.39-1.87a1.52,1.52,0,0,0-1.18.54,2,2,0,0,0-.48,1.39v3.4h-1V35.28h1v3.88h0a2.18,2.18,0,0,1,2-1.14q2,0,2,2.44Z" />
        </g>
        <g>
            <path class="cls-2" d="M19.21,214.8H14.75v-8.54H19v.91H15.74V210h3v.9h-3v3h3.47Z" />
            <path class="cls-2" d="M23.82,209.69a1.16,1.16,0,0,0-.73-.2,1.22,1.22,0,0,0-1,.59,2.76,2.76,0,0,0-.41,1.61v3.11h-1v-6.1h1V210h0a2.14,2.14,0,0,1,.63-1,1.42,1.42,0,0,1,.94-.36,1.54,1.54,0,0,1,.57.08Z" />
            <path class="cls-2" d="M29.85,214.8h-1v-3.48q0-1.94-1.39-1.94a1.5,1.5,0,0,0-1.19.55,2.06,2.06,0,0,0-.47,1.39v3.48h-1v-6.1h1v1h0a2.16,2.16,0,0,1,2-1.16,1.82,1.82,0,0,1,1.51.65,2.92,2.92,0,0,1,.52,1.87Z" />
            <path class="cls-2" d="M36.48,212H32.24a2.3,2.3,0,0,0,.54,1.57,1.84,1.84,0,0,0,1.42.55,2.92,2.92,0,0,0,1.86-.68v.92a3.44,3.44,0,0,1-2.09.58,2.51,2.51,0,0,1-2-.83,3.44,3.44,0,0,1-.73-2.34,3.37,3.37,0,0,1,.79-2.32,2.53,2.53,0,0,1,2-.9,2.24,2.24,0,0,1,1.82.77,3.26,3.26,0,0,1,.64,2.15Zm-1-.83a2,2,0,0,0-.4-1.32,1.36,1.36,0,0,0-1.1-.47,1.54,1.54,0,0,0-1.15.5,2.26,2.26,0,0,0-.59,1.29Z" />
            <path class="cls-2" d="M42.78,214.8h-1v-1h0a2,2,0,0,1-1.85,1.11q-2.14,0-2.14-2.6V208.7h1v3.49q0,1.93,1.45,1.93a1.46,1.46,0,0,0,1.16-.53,2,2,0,0,0,.45-1.38V208.7h1Z" />
            <path class="cls-2" d="M49.55,212H45.31a2.3,2.3,0,0,0,.54,1.57,1.84,1.84,0,0,0,1.42.55,2.92,2.92,0,0,0,1.86-.68v.92a3.44,3.44,0,0,1-2.09.58,2.51,2.51,0,0,1-2-.83,3.44,3.44,0,0,1-.73-2.34,3.37,3.37,0,0,1,.79-2.32,2.53,2.53,0,0,1,2-.9,2.24,2.24,0,0,1,1.82.77,3.26,3.26,0,0,1,.64,2.15Zm-1-.83a2,2,0,0,0-.4-1.32,1.36,1.36,0,0,0-1.1-.47,1.54,1.54,0,0,0-1.15.5,2.26,2.26,0,0,0-.59,1.29Z" />
            <path class="cls-2" d="M54.13,209.69a1.16,1.16,0,0,0-.73-.2,1.22,1.22,0,0,0-1,.59,2.76,2.76,0,0,0-.41,1.61v3.11H51v-6.1h1V210h0a2.14,2.14,0,0,1,.63-1,1.42,1.42,0,0,1,.94-.36,1.54,1.54,0,0,1,.57.08Z" />
            <path class="cls-2" d="M56.16,213.92h0v.88h-1v-9h1v4h0a2.26,2.26,0,0,1,2.07-1.21,2.18,2.18,0,0,1,1.81.82,3.42,3.42,0,0,1,.65,2.2A3.82,3.82,0,0,1,60,214a2.42,2.42,0,0,1-2,.92A2,2,0,0,1,56.16,213.92Zm0-2.46v.85a1.83,1.83,0,0,0,.48,1.28,1.71,1.71,0,0,0,2.6-.15,3.15,3.15,0,0,0,.5-1.89,2.49,2.49,0,0,0-.46-1.6,1.52,1.52,0,0,0-1.25-.58,1.69,1.69,0,0,0-1.35.59A2.2,2.2,0,0,0,56.13,211.46Z" />
            <path class="cls-2" d="M66.52,214.8h-1v-1h0a2,2,0,0,1-1.85,1.1,2,2,0,0,1-1.4-.48,1.68,1.68,0,0,1-.51-1.28q0-1.71,2-2l1.8-.26q0-1.55-1.24-1.55a2.93,2.93,0,0,0-2,.75v-1a3.68,3.68,0,0,1,2-.57q2.12,0,2.12,2.28Zm-1-3.09-1.45.2a2.33,2.33,0,0,0-1,.34,1,1,0,0,0-.34.86.94.94,0,0,0,.31.73,1.2,1.2,0,0,0,.83.28,1.53,1.53,0,0,0,1.18-.51,1.84,1.84,0,0,0,.47-1.29Z" />
            <path class="cls-2" d="M71.46,209.69a1.16,1.16,0,0,0-.73-.2,1.22,1.22,0,0,0-1,.59,2.76,2.76,0,0,0-.41,1.61v3.11h-1v-6.1h1V210h0a2.14,2.14,0,0,1,.63-1,1.42,1.42,0,0,1,.94-.36,1.54,1.54,0,0,1,.57.08Z" />
            <path class="cls-2" d="M77.33,212H73.09a2.3,2.3,0,0,0,.54,1.57,1.84,1.84,0,0,0,1.42.55,2.92,2.92,0,0,0,1.86-.68v.92a3.44,3.44,0,0,1-2.09.58,2.51,2.51,0,0,1-2-.83,3.44,3.44,0,0,1-.73-2.34,3.37,3.37,0,0,1,.79-2.32,2.53,2.53,0,0,1,2-.9,2.24,2.24,0,0,1,1.82.77,3.26,3.26,0,0,1,.64,2.15Zm-1-.83a2,2,0,0,0-.4-1.32,1.36,1.36,0,0,0-1.1-.47,1.54,1.54,0,0,0-1.15.5,2.26,2.26,0,0,0-.59,1.29Z" />
            <path class="cls-2" d="M86.65,214.8H82.2v-8.54h4.27v.91H83.18V210h3v.9h-3v3h3.47Z" />
            <path class="cls-2" d="M93.12,214.8h-1v-3.48q0-1.94-1.39-1.94a1.5,1.5,0,0,0-1.19.55,2.06,2.06,0,0,0-.47,1.39v3.48h-1v-6.1h1v1h0a2.16,2.16,0,0,1,2-1.16,1.82,1.82,0,0,1,1.51.65,2.92,2.92,0,0,1,.52,1.87Z" />
            <path class="cls-2" d="M99.75,212H95.51a2.3,2.3,0,0,0,.54,1.57,1.84,1.84,0,0,0,1.42.55,2.92,2.92,0,0,0,1.86-.68v.92a3.44,3.44,0,0,1-2.09.58,2.51,2.51,0,0,1-2-.83,3.44,3.44,0,0,1-.73-2.34,3.37,3.37,0,0,1,.79-2.32,2.53,2.53,0,0,1,2-.9,2.24,2.24,0,0,1,1.82.77,3.26,3.26,0,0,1,.64,2.15Zm-1-.83a2,2,0,0,0-.4-1.32,1.36,1.36,0,0,0-1.1-.47,1.54,1.54,0,0,0-1.15.5,2.26,2.26,0,0,0-.59,1.29Z" />
            <path class="cls-2" d="M104.33,209.69a1.16,1.16,0,0,0-.73-.2,1.22,1.22,0,0,0-1,.59,2.76,2.76,0,0,0-.41,1.61v3.11h-1v-6.1h1V210h0a2.14,2.14,0,0,1,.63-1,1.42,1.42,0,0,1,.94-.36,1.54,1.54,0,0,1,.57.08Z" />
            <path class="cls-2" d="M110.5,214.31q0,3.36-3.16,3.36a4.19,4.19,0,0,1-1.95-.43v-1a3.94,3.94,0,0,0,1.93.57q2.21,0,2.21-2.39v-.67h0a2.41,2.41,0,0,1-3.86.35,3.29,3.29,0,0,1-.68-2.18,3.84,3.84,0,0,1,.74-2.47,2.44,2.44,0,0,1,2-.92,2,2,0,0,1,1.8,1h0v-.85h1Zm-1-2.27v-.9a1.76,1.76,0,0,0-.48-1.25,1.58,1.58,0,0,0-1.2-.52,1.66,1.66,0,0,0-1.39.66,3,3,0,0,0-.5,1.84,2.55,2.55,0,0,0,.48,1.63,1.55,1.55,0,0,0,1.28.61,1.66,1.66,0,0,0,1.32-.58A2.2,2.2,0,0,0,109.54,212Z" />
            <path class="cls-2" d="M112.93,207.15a.62.62,0,0,1-.62-.63.62.62,0,0,1,.18-.46.6.6,0,0,1,.44-.18.63.63,0,0,1,.63.64.63.63,0,0,1-.63.63Zm.47,7.65h-1v-6.1h1Z" />
            <path class="cls-2" d="M120.17,212h-4.24a2.3,2.3,0,0,0,.54,1.57,1.84,1.84,0,0,0,1.42.55,2.92,2.92,0,0,0,1.86-.68v.92a3.44,3.44,0,0,1-2.09.58,2.51,2.51,0,0,1-2-.83,3.44,3.44,0,0,1-.73-2.34,3.37,3.37,0,0,1,.79-2.32,2.53,2.53,0,0,1,2-.9,2.24,2.24,0,0,1,1.82.77,3.26,3.26,0,0,1,.64,2.15Zm-1-.83a2,2,0,0,0-.4-1.32,1.36,1.36,0,0,0-1.1-.47,1.54,1.54,0,0,0-1.15.5,2.26,2.26,0,0,0-.59,1.29Z" />
            <path class="cls-2" d="M126.6,214.8h-1v-3.48q0-1.94-1.39-1.94a1.5,1.5,0,0,0-1.19.55,2.06,2.06,0,0,0-.47,1.39v3.48h-1v-6.1h1v1h0a2.16,2.16,0,0,1,2-1.16,1.82,1.82,0,0,1,1.51.65,2.92,2.92,0,0,1,.52,1.87Z" />
        </g>
        <path id="Pfad_80" data-name="Pfad 80" class="cls-2" d="M67.75,158.65a7.23,7.23,0,0,1-4.22-1.44,7,7,0,0,0,1.12,1.32l-.91,36.14,2,.1.91-35.22a3.46,3.46,0,0,0,1,.1,4.17,4.17,0,0,0,1.12-.1l1,35.12,2-.1-1-36.14A12.22,12.22,0,0,0,72,157.21,6.82,6.82,0,0,1,67.75,158.65Z" />
    </g>
    <g id="Phase_color">
        <!-- <circle id="Ellipse" class="white" cx="267.79" cy="63.77" r="26.5" />
        <circle id="Ellipse-2" data-name="Ellipse" class="cls-7" cx="269.22" cy="63.77" r="27.05" />
        <circle id="Ellipse-2-2" data-name="Ellipse-2" class="cls-8" cx="269.22" cy="63.77" r="18.64" />
        <circle id="Ellipse-3" class="cls-5" cx="269.22" cy="63.77" r="10.46" /> -->

        <circle id="Ellipse" class="white" cx="267.79" cy="63.77" r="26.5" />
        <circle id="Ellipse-2" data-name="Ellipse" class="cls-7" cx="267.79" cy="63.77" r="27.05" />
        <circle id="Ellipse-2-2" data-name="Ellipse-2" class="cls-8" cx="267.79" cy="63.77" r="18.64" />
        <circle id="Ellipse-3" class="cls-5" cx="267.79" cy="63.77" r="10.46" />
    </g>
   <g id="windrad">
        <path class="cls-10" d="M66.31,148.32l-3.87-15.55a1.62,1.62,0,0,1,0-.78l3.87-15.66a1.62,1.62,0,0,1,3.16,0L73.24,132a1.62,1.62,0,0,1,0,.76l-3.78,15.53A1.62,1.62,0,0,1,66.31,148.32Z" />
        <path class="cls-10" d="M63.42,158.63,51.89,169.76a1.62,1.62,0,0,1-.68.39l-15.5,4.48a1.62,1.62,0,0,1-1.57-2.74l11.69-11.11a1.62,1.62,0,0,1,.66-.38l15.34-4.49A1.62,1.62,0,0,1,63.42,158.63Z" />
        <path class="cls-10" d="M73.79,156l15.4,4.42a1.62,1.62,0,0,1,.68.39L101.5,172a1.62,1.62,0,0,1-1.59,2.73l-15.47-4.57a1.62,1.62,0,0,1-.66-.38l-11.56-11A1.62,1.62,0,0,1,73.79,156Z" />
        <circle class="cls-10" cx="67.84" cy="154.29" r="4.79" />
    </g>
</svg>
