<svg width="22" height="25" viewBox="0 0 22 25" fill="none" xmlns="http://www.w3.org/2000/svg">
<path id="ampelmann" fill-rule="evenodd" clip-rule="evenodd" d="M9.22478 7.70779C9.23002 7.93178 9.23527 8.15578 9.24051 8.37978C8.50755 9.14483 7.77461 9.90988 7.0427 10.675C6.7512 10.979 6.34015 11.0732 5.95113 10.9249C5.14059 10.6154 4.33107 10.3059 3.52158 9.99537C2.82217 9.41754 2.12174 8.83968 1.42234 8.26292C1.25037 8.12116 1.00291 8.13848 0.851911 8.30404C0.606545 8.5724 0.360137 8.84185 0.114761 9.11022C-0.042526 9.28228 -0.0372833 9.55282 0.125247 9.71837C0.815206 10.4217 1.50516 11.1251 2.19512 11.8285C2.22239 11.8566 2.23707 11.8912 2.23707 11.9313C2.23707 11.9627 2.22868 11.9908 2.2119 12.0146C2.19617 12.0373 2.19093 12.0633 2.19617 12.0904C2.20141 12.1174 2.2161 12.139 2.23916 12.1542C3.48905 12.9517 4.73897 13.7492 5.98894 14.5467C6.25842 14.7188 6.5625 14.748 6.85821 14.6311C7.00711 14.5727 7.15496 14.5132 7.30386 14.4548C7.52302 14.3682 7.7579 14.4245 7.91729 14.6019C7.92149 14.6073 7.92568 14.6117 7.93092 14.616C8.12281 14.8292 8.1333 15.1516 7.95504 15.3778C6.69361 16.975 5.43323 18.571 4.17172 20.1694C3.19131 19.7972 2.22766 19.6035 1.28926 19.6576C2.44793 21.0578 3.67895 22.339 5.04413 23.3962C5.2507 23.5564 5.45516 23.6722 5.71417 23.6678C5.97317 23.6624 6.19443 23.5618 6.37267 23.3692C8.32615 21.258 10.2787 19.1457 12.2321 17.0346C14.216 18.6978 16.1998 20.3621 18.1838 22.0254C17.6857 23.0166 17.3911 24.0078 17.3471 25C19.0227 24.3107 20.302 23.1063 21.4418 21.7245C21.749 21.3523 21.7406 20.809 21.4218 20.4476C19.4442 18.2012 17.4656 15.9546 15.4881 13.7083C14.6723 11.8373 13.8555 9.96518 13.0386 8.09308C13.0795 7.83662 13.1214 7.58123 13.1623 7.32587C13.6269 6.64307 14.0924 5.96132 14.5569 5.27852C15.5384 5.32073 16.5199 5.36401 17.5025 5.40621C16.7066 4.86192 15.9107 4.31869 15.1159 3.7744C15.095 3.29502 15.075 2.81458 15.0541 2.3352C13.4214 1.55608 11.7888 0.778039 10.1562 0C9.76299 0.394975 9.37081 0.78887 8.97865 1.18382C8.21423 1.02367 7.44983 0.863527 6.68436 0.704434C7.28311 1.22709 7.88287 1.74974 8.48267 2.27242C8.20269 2.67064 7.92378 3.06886 7.64381 3.46707C7.60291 3.52551 7.55677 3.56879 7.49491 3.6045C7.28729 3.7257 7.07862 3.84689 6.87101 3.96809C7.03144 4.14231 7.19187 4.31653 7.35231 4.49074C7.44459 4.5903 7.48758 4.71041 7.48129 4.84677C7.46346 5.24823 7.44459 5.64968 7.42676 6.05117C7.40894 6.44938 7.60083 6.80106 7.94058 6.99151C8.36841 7.22741 8.79695 7.46758 9.22478 7.70779Z" fill="#003054"/>
</svg>
