<?xml version="1.0" encoding="UTF-8"?>
<svg width="24px" height="25px" viewBox="0 0 24 25" version="1.1" xmlns="http://www.w3.org/2000/svg" xmlns:xlink="http://www.w3.org/1999/xlink">
    <title>arrow cicle forward</title>
    <g id="Page-1" stroke="none" stroke-width="1" fill="none" fill-rule="evenodd">
        <path d="M11.7573242,24.3569336 C13.3605143,24.3569336 14.8660482,24.0517578 16.2739258,23.4414063 C17.6818034,22.8310547 18.9248861,21.9887695 20.0031738,20.9145508 C21.0814616,19.840332 21.9257812,18.5972493 22.5361328,17.1853027 C23.1464844,15.7733561 23.4516602,14.2657878 23.4516602,12.6625977 C23.4516602,11.0675456 23.1444499,9.56404622 22.5300293,8.15209961 C21.9156087,6.74015299 21.0692546,5.49503581 19.9909668,4.41674805 C18.912679,3.33846029 17.6695964,2.49414063 16.2617188,1.88378906 C14.8538411,1.2734375 13.3483073,0.968261719 11.7451172,0.968261719 C10.1500651,0.968261719 8.64860026,1.2734375 7.24072266,1.88378906 C5.83284505,2.49414063 4.58976237,3.33846029 3.51147461,4.41674805 C2.43318685,5.49503581 1.58886719,6.74015299 0.978515625,8.15209961 C0.368164062,9.56404622 0.0629882812,11.0675456 0.0629882812,12.6625977 C0.0629882812,14.2657878 0.370198568,15.7733561 0.984619141,17.1853027 C1.59903971,18.5972493 2.44335938,19.840332 3.51757813,20.9145508 C4.59179688,21.9887695 5.83284505,22.8310547 7.24072266,23.4414063 C8.64860026,24.0517578 10.1541341,24.3569336 11.7573242,24.3569336 Z M11.7573242,22.5869141 C10.3819987,22.5869141 9.0941569,22.3305664 7.89379883,21.8178711 C6.69344076,21.3051758 5.64160156,20.5951335 4.73828125,19.6877441 C3.83496094,18.7803548 3.12898763,17.7264811 2.62036133,16.526123 C2.11173503,15.325765 1.85742188,14.0379232 1.85742188,12.6625977 C1.85742188,11.2954102 2.11173503,10.0116374 2.62036133,8.8112793 C3.12898763,7.61092122 3.83496094,6.55704753 4.73828125,5.6496582 C5.64160156,4.74226888 6.69140625,4.03222656 7.88769531,3.51953125 C9.08398438,3.00683594 10.3697917,2.75048828 11.7451172,2.75048828 C13.1285807,2.75048828 14.418457,3.00683594 15.6147461,3.51953125 C16.8110352,4.03222656 17.8628743,4.74226888 18.7702637,5.6496582 C19.677653,6.55704753 20.3876953,7.61092122 20.9003906,8.8112793 C21.4130859,10.0116374 21.6696243,11.2954102 21.6696243,12.6625977 C21.6775716,14.0379232 21.425293,15.325765 20.9125977,16.526123 C20.3999023,17.7264811 19.68986,18.7803548 18.7824707,19.6877441 C17.8750814,20.5951335 16.8212077,21.3051758 15.6208496,21.8178711 C14.4204915,22.3305664 13.1326497,22.5869141 11.7573242,22.5869141 Z M10.6586914,17.484375 C10.8702799,17.484375 11.0472819,17.4111328 11.1896973,17.2646484 C11.3321126,17.1181641 11.4033203,16.9391276 11.4033203,16.7275391 C11.4033203,16.4996745 11.3260091,16.308431 11.1713867,16.1538086 L9.58447266,14.5913086 L8.16845703,13.3706055 L10.487793,13.4560547 L16.9208984,13.4560547 C17.156901,13.4560547 17.34611,13.380778 17.4885254,13.2302246 C17.6309408,13.0796712 17.7021484,12.8904622 17.7021484,12.6625977 C17.7021484,12.4265951 17.6289062,12.2353516 17.4824219,12.0888672 C17.3359375,11.9423828 17.148763,11.8691406 16.9208984,11.8691406 L10.487793,11.8691406 L8.18066406,11.9545898 L9.58447266,10.7460938 L11.1713867,9.15917969 C11.3260091,9.00455729 11.4033203,8.81738281 11.4033203,8.59765625 C11.4033203,8.38606771 11.3321126,8.20703125 11.1896973,8.06054688 C11.0472819,7.9140625 10.8702799,7.84082031 10.6586914,7.84082031 C10.4308268,7.84082031 10.2477214,7.9140625 10.109375,8.06054688 L6.11767578,12.0522461 C5.92236328,12.2556966 5.82470703,12.4591471 5.82470703,12.6625977 C5.82470703,12.8741862 5.92236328,13.0776367 6.11767578,13.2729492 L10.109375,17.2646484 C10.2558594,17.4111328 10.4389648,17.484375 10.6586914,17.484375 Z" id="arrow-cicle-forward" fill="#0091FF" fill-rule="nonzero" transform="translate(11.757324, 12.662598) rotate(-180.000000) translate(-11.757324, -12.662598) "></path>
    </g>
</svg>