<?xml version="1.0" encoding="UTF-8"?>
<svg width="17px" height="17px" viewBox="0 0 17 17" version="1.1" xmlns="http://www.w3.org/2000/svg" xmlns:xlink="http://www.w3.org/1999/xlink">
    <title>Backend</title>
    <g id="Menu" stroke="none" stroke-width="1" fill="none" fill-rule="evenodd">
        <path d="M9.47558594,16.6147461 C9.7578125,16.6147461 9.99715169,16.5372721 10.1936035,16.3823242 C10.3900553,16.2273763 10.5214844,16.011556 10.5878906,15.7348633 L10.9365234,14.2324219 L11.2851562,14.0996094 L12.5966797,14.9130859 C12.8346354,15.0680339 13.078125,15.1302897 13.3271484,15.0998535 C13.5761719,15.0694173 13.800293,14.9545898 13.9995117,14.7553711 L15.1035156,13.659668 C15.3082682,13.4549154 15.4258626,13.2266439 15.4562988,12.9748535 C15.486735,12.7230632 15.4244792,12.4781901 15.2695312,12.2402344 L14.4477539,10.9370117 L14.5805664,10.5966797 L16.0830078,10.2480469 C16.3597005,10.1816406 16.5755208,10.0502116 16.7304688,9.85375977 C16.8854167,9.65730794 16.9628906,9.41796875 16.9628906,9.13574219 L16.9628906,7.58349609 C16.9628906,7.30126953 16.8854167,7.06054688 16.7304688,6.86132812 C16.5755208,6.66210938 16.3597005,6.52929688 16.0830078,6.46289062 L14.597168,6.11425781 L14.4560547,5.75732422 L15.277832,4.46240234 C15.4272461,4.21891276 15.4881185,3.97265625 15.4604492,3.72363281 C15.4327799,3.47460938 15.316569,3.24772135 15.1118164,3.04296875 L14.0078125,1.94726562 C13.8141276,1.74251302 13.59139,1.62630208 13.3395996,1.59863281 C13.0878092,1.57096354 12.8401693,1.63183594 12.5966797,1.78125 L11.3017578,2.58642578 L10.9365234,2.45361328 L10.5878906,0.951171875 C10.5214844,0.674479167 10.3900553,0.457275391 10.1936035,0.299560547 C9.99715169,0.141845703 9.7578125,0.0629882812 9.47558594,0.0629882812 L7.8984375,0.0629882812 C7.61621094,0.0629882812 7.37687174,0.141845703 7.18041992,0.299560547 C6.9839681,0.457275391 6.85253906,0.674479167 6.78613281,0.951171875 L6.4375,2.45361328 L6.07226562,2.58642578 L4.76074219,1.78125 C4.52278646,1.63183594 4.27791341,1.57096354 4.02612305,1.59863281 C3.77433268,1.62630208 3.55159505,1.74251302 3.35791016,1.94726562 L2.25390625,3.04296875 C2.0546875,3.24772135 1.93847656,3.47460938 1.90527344,3.72363281 C1.87207031,3.97265625 1.93294271,4.21891276 2.08789062,4.46240234 L2.90966797,5.75732422 L2.76855469,6.11425781 L1.29101562,6.46289062 C1.01432292,6.52929688 0.797119141,6.66210938 0.639404297,6.86132812 C0.481689453,7.06054688 0.402832031,7.30126953 0.402832031,7.58349609 L0.402832031,9.13574219 C0.402832031,9.41796875 0.481689453,9.65730794 0.639404297,9.85375977 C0.797119141,10.0502116 1.01432292,10.1816406 1.29101562,10.2480469 L2.78515625,10.5966797 L2.91796875,10.9370117 L2.09619141,12.2402344 C1.94124349,12.4781901 1.87898763,12.7230632 1.90942383,12.9748535 C1.93986003,13.2266439 2.05745443,13.4549154 2.26220703,13.659668 L3.35791016,14.7553711 C3.56266276,14.9545898 3.79093424,15.0694173 4.04272461,15.0998535 C4.29451497,15.1302897 4.53938802,15.0680339 4.77734375,14.9130859 L6.08056641,14.0996094 L6.4375,14.2324219 L6.78613281,15.7348633 C6.85253906,16.011556 6.9839681,16.2273763 7.18041992,16.3823242 C7.37687174,16.5372721 7.61621094,16.6147461 7.8984375,16.6147461 L9.47558594,16.6147461 Z M9.36767578,15.6186523 L7.99804688,15.6186523 C7.83203125,15.6186523 7.73242188,15.5384115 7.69921875,15.3779297 L7.24267578,13.4604492 C7.02132161,13.4051107 6.80826823,13.3359375 6.60351562,13.2529297 C6.39876302,13.1699219 6.21891276,13.0813802 6.06396484,12.9873047 L4.38720703,14.0249023 C4.24886068,14.1189779 4.11328125,14.1023763 3.98046875,13.9750977 L3.03417969,13.0205078 C2.91796875,12.9098307 2.90413411,12.7797852 2.99267578,12.6303711 L4.03027344,10.9619141 C3.95279948,10.8014323 3.87117513,10.6201986 3.78540039,10.4182129 C3.69962565,10.2162272 3.62630208,10.0073242 3.56542969,9.79150391 L1.63964844,9.34326172 C1.47916667,9.31005859 1.39892578,9.20768229 1.39892578,9.03613281 L1.39892578,7.67480469 C1.39892578,7.50325521 1.47916667,7.40087891 1.63964844,7.36767578 L3.56542969,6.91943359 C3.62076823,6.68701172 3.6940918,6.46842448 3.78540039,6.26367188 C3.87670898,6.05891927 3.95556641,5.88460286 4.02197266,5.74072266 L2.984375,4.07226562 C2.89029948,3.92285156 2.90413411,3.78727214 3.02587891,3.66552734 L3.98046875,2.72753906 C4.1077474,2.60579427 4.24332682,2.58642578 4.38720703,2.66943359 L6.04736328,3.69873047 C6.20784505,3.6101888 6.39322917,3.5230306 6.60351562,3.43725586 C6.81380208,3.35148112 7.0296224,3.28092448 7.25097656,3.22558594 L7.69921875,1.30810547 C7.73242188,1.1476237 7.83203125,1.06738281 7.99804688,1.06738281 L9.36767578,1.06738281 C9.53922526,1.06738281 9.64160156,1.1476237 9.67480469,1.30810547 L10.1313477,3.23388672 C10.3582357,3.29475911 10.5712891,3.36669922 10.7705078,3.44970703 C10.9697266,3.53271484 11.1523438,3.61848958 11.3183594,3.70703125 L12.9868164,2.66943359 C13.1251628,2.58642578 13.2579753,2.60579427 13.3852539,2.72753906 L14.3398438,3.66552734 C14.4615885,3.78727214 14.4726562,3.92285156 14.3730469,4.07226562 L13.34375,5.74072266 C13.4156901,5.88460286 13.4973145,6.05891927 13.588623,6.26367188 C13.6799316,6.46842448 13.7532552,6.68701172 13.8085938,6.91943359 L15.7260742,7.36767578 C15.886556,7.40087891 15.9667969,7.50325521 15.9667969,7.67480469 L15.9667969,9.03613281 C15.9667969,9.20768229 15.886556,9.31005859 15.7260742,9.34326172 L13.800293,9.79150391 C13.7449544,10.0073242 13.6743978,10.2162272 13.588623,10.4182129 C13.5028483,10.6201986 13.418457,10.8014323 13.3354492,10.9619141 L14.3730469,12.6303711 C14.4615885,12.7797852 14.4477539,12.9098307 14.331543,13.0205078 L13.3769531,13.9750977 C13.2496745,14.1023763 13.1196289,14.1189779 12.9868164,14.0249023 L11.3100586,12.9873047 C11.1495768,13.0813802 10.9697266,13.1699219 10.7705078,13.2529297 C10.5712891,13.3359375 10.3582357,13.4051107 10.1313477,13.4604492 L9.67480469,15.3779297 C9.64160156,15.5384115 9.53922526,15.6186523 9.36767578,15.6186523 Z M8.6953125,11.3354492 C9.24316406,11.3354492 9.7425944,11.2012533 10.1936035,10.9328613 C10.6446126,10.6644694 11.0056966,10.3033854 11.2768555,9.84960938 C11.5480143,9.39583333 11.6835938,8.8922526 11.6835938,8.33886719 C11.6835938,7.79101562 11.5480143,7.29158529 11.2768555,6.84057617 C11.0056966,6.38956706 10.6446126,6.02986654 10.1936035,5.76147461 C9.7425944,5.49308268 9.24316406,5.35888672 8.6953125,5.35888672 C8.14746094,5.35888672 7.64526367,5.49308268 7.1887207,5.76147461 C6.73217773,6.02986654 6.36832682,6.38956706 6.09716797,6.84057617 C5.82600911,7.29158529 5.69042969,7.79101562 5.69042969,8.33886719 C5.69042969,8.88671875 5.82600911,9.38753255 6.09716797,9.84130859 C6.36832682,10.2950846 6.73079427,10.6575521 7.18457031,10.9287109 C7.63834635,11.1998698 8.14192708,11.3354492 8.6953125,11.3354492 Z M8.6953125,10.3476562 C8.32454427,10.3476562 7.98836263,10.2563477 7.68676758,10.0737305 C7.38517253,9.89111328 7.14306641,9.6476237 6.96044922,9.34326172 C6.77783203,9.03889974 6.68652344,8.70410156 6.68652344,8.33886719 C6.68652344,7.97916667 6.77783203,7.64713542 6.96044922,7.34277344 C7.14306641,7.03841146 7.38655599,6.79630534 7.69091797,6.61645508 C7.99527995,6.43660482 8.33007812,6.34667969 8.6953125,6.34667969 C9.04947917,6.34667969 9.37874349,6.43660482 9.68310547,6.61645508 C9.98746745,6.79630534 10.2295736,7.03841146 10.4094238,7.34277344 C10.5892741,7.64713542 10.6791992,7.97916667 10.6791992,8.33886719 C10.6791992,8.70410156 10.5892741,9.03889974 10.4094238,9.34326172 C10.2295736,9.6476237 9.98746745,9.89111328 9.68310547,10.0737305 C9.37874349,10.2563477 9.04947917,10.3476562 8.6953125,10.3476562 Z" id="Backend" fill="#0091FF" fill-rule="nonzero"></path>
    </g>
</svg>