<?xml version="1.0" encoding="UTF-8"?>
<svg width="21px" height="20px" viewBox="0 0 21 20" version="1.1" xmlns="http://www.w3.org/2000/svg" xmlns:xlink="http://www.w3.org/1999/xlink">
    <title>back</title>
    <g id="Icons" stroke="none" stroke-width="1" fill="none" fill-rule="evenodd">
        <g id="back" transform="translate(0.500000, 0.000000)">
            <rect id="Rectangle-Copy-3" x="0" y="0" width="20" height="20"></rect>
            <path d="M8.69246094,16.1245117 C8.81420573,16.1245117 8.91519857,16.0843913 8.99543945,16.0041504 C9.07568034,15.9239095 9.11580078,15.8284505 9.11580078,15.7177734 C9.11580078,15.656901 9.10611654,15.5987956 9.08674805,15.543457 C9.06737956,15.4881185 9.03832682,15.4410807 8.99958984,15.4023438 L6.29353516,12.6796875 L4.186,10.696 L5.95320313,10.762207 L17.0596484,10.762207 C17.1758594,10.762207 17.2740853,10.7234701 17.3543262,10.6459961 C17.4345671,10.5685221 17.4746875,10.4661458 17.4746875,10.3388672 C17.4746875,10.2171224 17.4345671,10.117513 17.3543262,10.0400391 C17.2740853,9.9625651 17.1758594,9.92382812 17.0596484,9.92382812 L5.95320313,9.92382812 L4.185,9.991 L6.29353516,7.99804688 L8.99958984,5.27539062 C9.03832682,5.2421875 9.06737956,5.19791667 9.08674805,5.14257812 C9.10611654,5.08723958 9.11580078,5.02913411 9.11580078,4.96826172 C9.11580078,4.85758464 9.07568034,4.76212565 8.99543945,4.68188477 C8.91519857,4.60164388 8.81420573,4.56152344 8.69246094,4.56152344 C8.6371224,4.56152344 8.58040039,4.57397461 8.52229492,4.59887695 C8.46418945,4.6237793 8.39916667,4.67220052 8.32722656,4.74414062 L3.07283203,10.0317383 C2.97875651,10.1202799 2.93171875,10.2226562 2.93171875,10.3388672 C2.93171875,10.460612 2.97875651,10.5657552 3.07283203,10.6542969 L8.38533203,15.9916992 C8.47940755,16.0802409 8.58178385,16.1245117 8.69246094,16.1245117 Z" fill="#0091FF" fill-rule="nonzero"></path>
        </g>
    </g>
</svg>