<?xml version="1.0" encoding="UTF-8"?>
<svg width="18px" height="15px" viewBox="0 0 18 15" version="1.1" xmlns="http://www.w3.org/2000/svg" xmlns:xlink="http://www.w3.org/1999/xlink">
    <title>back</title>
    <g id="Icons" stroke="none" stroke-width="1" fill="none" fill-rule="evenodd">
        <g id="back-" transform="translate(-16.000000, -17.000000)" fill="#0091FF" fill-rule="nonzero">
            <path d="M23.5904455,31.2832031 C23.7922684,31.2832031 23.9647944,31.2164714 24.1080236,31.0830078 C24.2512528,30.9495443 24.3228673,30.7786458 24.3228673,30.5703125 C24.3228673,30.4726562 24.3049637,30.3766276 24.2691564,30.2822266 C24.2333491,30.1878255 24.1828934,30.1080729 24.1177892,30.0429688 L21.7740392,27.6601562 L18.808,24.946 L21.0123205,25.0722656 L33.0435705,25.0722656 C33.2519038,25.0722656 33.4260574,25.0039062 33.5660314,24.8671875 C33.7060054,24.7304688 33.7759923,24.5514323 33.7759923,24.3300781 C33.7759923,24.1152344 33.7060054,23.9394531 33.5660314,23.8027344 C33.4260574,23.6660156 33.2519038,23.5976562 33.0435705,23.5976562 L21.0123205,23.5976562 L18.826,23.716 L21.7740392,21.0097656 L24.1177892,18.6269531 C24.1828934,18.561849 24.2333491,18.4820964 24.2691564,18.3876953 C24.3049637,18.2932943 24.3228673,18.1972656 24.3228673,18.0996094 C24.3228673,17.891276 24.2512528,17.7203776 24.1080236,17.5869141 C23.9647944,17.4534505 23.7922684,17.3867188 23.5904455,17.3867188 C23.4862788,17.3867188 23.3886225,17.40625 23.2974767,17.4453125 C23.2063309,17.484375 23.1119298,17.5494792 23.0142736,17.640625 L16.8814611,23.7832031 C16.7121903,23.9394531 16.6275548,24.1217448 16.6275548,24.3300781 C16.6275548,24.5449219 16.7121903,24.7304688 16.8814611,24.8867188 L23.0533361,31.0585938 C23.2095861,31.2083333 23.3886225,31.2832031 23.5904455,31.2832031 Z" id="back"></path>
        </g>
    </g>
</svg>