<?xml version="1.0" encoding="UTF-8"?>
<svg width="21px" height="20px" viewBox="0 0 21 20" version="1.1" xmlns="http://www.w3.org/2000/svg" xmlns:xlink="http://www.w3.org/1999/xlink">
    <title>backend</title>
    <g id="Icons" stroke="none" stroke-width="1" fill="none" fill-rule="evenodd">
        <g id="backend" transform="translate(0.500000, 0.000000)">
            <rect id="Rectangle-Copy" x="0" y="0" width="20" height="20"></rect>
            <path d="M10.9959277,18.5151367 C11.2560189,18.5151367 11.4746061,18.4445801 11.6516895,18.3034668 C11.8287728,18.1623535 11.9477507,17.9589844 12.008623,17.6933594 L12.3655566,16.1577148 L12.8137988,15.9916992 L14.1502246,16.8300781 C14.3715788,16.9739583 14.5956999,17.0334473 14.8225879,17.0085449 C15.0494759,16.9836426 15.2542285,16.8771159 15.4368457,16.6889648 L16.5408496,15.5849609 C16.7345345,15.4023438 16.8438281,15.1962077 16.8687305,14.9665527 C16.8936328,14.7368978 16.8341439,14.5086263 16.6902637,14.2817383 L15.843584,12.9536133 L16.0179004,12.5053711 L17.5452441,12.1567383 C17.8108691,12.0958659 18.0142383,11.976888 18.1553516,11.7998047 C18.2964648,11.6227214 18.3670215,11.4013672 18.3670215,11.1357422 L18.3670215,9.57519531 C18.3670215,9.31510417 18.2964648,9.09651693 18.1553516,8.91943359 C18.0142383,8.74235026 17.8108691,8.6233724 17.5452441,8.5625 L16.0262012,8.20556641 L15.8518848,7.74902344 L16.6902637,6.42089844 C16.8341439,6.19401042 16.8936328,5.9671224 16.8687305,5.74023438 C16.8438281,5.51334635 16.7373014,5.30582682 16.5491504,5.11767578 L15.4451465,4.02197266 C15.2625293,3.83382161 15.0577767,3.72729492 14.8308887,3.70239258 C14.6040007,3.67749023 14.3771126,3.73697917 14.1502246,3.88085938 L12.8220996,4.7109375 L12.3655566,4.54492188 L12.008623,3.00927734 C11.9477507,2.7491862 11.8287728,2.54720052 11.6516895,2.40332031 C11.4746061,2.2594401 11.2560189,2.1875 10.9959277,2.1875 L9.4187793,2.1875 C9.15868815,2.1875 8.94010091,2.2594401 8.76301758,2.40332031 C8.58593425,2.54720052 8.46695638,2.7491862 8.40608399,3.00927734 L8.04915039,4.54492188 L7.59260742,4.7109375 L6.24788086,3.88085938 C6.02652669,3.73697917 5.8024056,3.67749023 5.57551758,3.70239258 C5.34862956,3.72729492 5.14387695,3.83382161 4.96125977,4.02197266 L3.85725586,5.11767578 C3.66910482,5.30582682 3.56119466,5.51334635 3.53352539,5.74023438 C3.50585612,5.9671224 3.56396159,6.19401042 3.7078418,6.42089844 L4.55452149,7.74902344 L4.38020508,8.20556641 L2.86116211,8.5625 C2.60107096,8.6233724 2.39908529,8.74235026 2.25520508,8.91943359 C2.11132487,9.09651693 2.03938477,9.31510417 2.03938477,9.57519531 L2.03938477,11.1357422 C2.03938477,11.4013672 2.11132487,11.6227214 2.25520508,11.7998047 C2.39908529,11.976888 2.60107096,12.0958659 2.86116211,12.1567383 L4.38850586,12.5053711 L4.55452149,12.9536133 L3.71614258,14.2817383 C3.57226237,14.5086263 3.51277344,14.7368978 3.53767578,14.9665527 C3.56257813,15.1962077 3.66910482,15.4023438 3.85725586,15.5849609 L4.96125977,16.6889648 C5.14941081,16.8771159 5.35693034,16.9836426 5.58381836,17.0085449 C5.81070638,17.0334473 6.03482747,16.9739583 6.25618164,16.8300781 L7.59260742,15.9916992 L8.04915039,16.1577148 L8.40608399,17.6933594 C8.46695638,17.9589844 8.58593425,18.1623535 8.76301758,18.3034668 C8.94010091,18.4445801 9.15868815,18.5151367 9.4187793,18.5151367 L10.9959277,18.5151367 Z M10.9046191,17.7431641 L9.50178711,17.7431641 C9.29150065,17.7431641 9.16422201,17.6380208 9.11995117,17.4277344 L8.68000977,15.543457 C8.48079102,15.4881185 8.28572266,15.4230957 8.09480469,15.3483887 C7.90388672,15.2736816 7.7337207,15.1948242 7.58430664,15.1118164 L5.94075195,16.1411133 C5.76920247,16.2573242 5.60041992,16.2379557 5.4344043,16.0830078 L4.46321289,15.0952148 C4.31379883,14.9513346 4.29719727,14.7880859 4.4134082,14.6054688 L5.4344043,12.9619141 C5.36246419,12.8125 5.28775716,12.6437174 5.2102832,12.4555664 C5.13280925,12.2674154 5.066403,12.0737305 5.01106445,11.8745117 L3.11848633,11.4428711 C2.91373372,11.3986003 2.81135742,11.2685547 2.81135742,11.0527344 L2.81135742,9.65820312 C2.81135742,9.44791667 2.91373372,9.32063802 3.11848633,9.27636719 L5.01106445,8.83642578 C5.066403,8.63167318 5.13419271,8.43383789 5.21443359,8.24291992 C5.29467448,8.05200195 5.36523112,7.88460286 5.42610352,7.74072266 L4.40510742,6.10546875 C4.28889649,5.92285156 4.30549805,5.75406901 4.45491211,5.59912109 L5.4344043,4.62792969 C5.59488607,4.47298177 5.76366862,4.45361328 5.94075195,4.56982422 L7.57600586,5.58251953 C7.73095378,5.50504557 7.90527018,5.42895508 8.09895508,5.35424805 C8.29263997,5.27954102 8.4890918,5.21451823 8.68831055,5.15917969 L9.11995117,3.26660156 C9.16422201,3.06184896 9.29150065,2.95947266 9.50178711,2.95947266 L10.9046191,2.95947266 C11.1204395,2.95947266 11.250485,3.06184896 11.2947559,3.26660156 L11.7346973,5.15917969 C11.9394499,5.22005208 12.1345182,5.2878418 12.3199023,5.36254883 C12.5052865,5.43725586 12.6754525,5.51334635 12.8304004,5.59082031 L14.4656543,4.56982422 C14.6427376,4.45361328 14.8115202,4.47298177 14.972002,4.62792969 L15.9431934,5.59912109 C16.0981413,5.75406901 16.1147428,5.92285156 15.992998,6.10546875 L14.9803027,7.74072266 C15.046709,7.88460286 15.1200326,8.05061849 15.2002734,8.23876953 C15.2805143,8.42692057 15.348304,8.62613932 15.4036426,8.83642578 L17.2879199,9.27636719 C17.4926725,9.32063802 17.5950488,9.44791667 17.5950488,9.65820312 L17.5950488,11.0527344 C17.5950488,11.2685547 17.4926725,11.3986003 17.2879199,11.4428711 L15.3953418,11.8745117 C15.3455371,12.0737305 15.2818978,12.2674154 15.2044238,12.4555664 C15.1269499,12.6437174 15.0494759,12.8125 14.972002,12.9619141 L15.992998,14.6054688 C16.109209,14.7880859 16.0926074,14.9513346 15.9431934,15.0952148 L14.9637012,16.0830078 C14.8032194,16.2379557 14.6372038,16.2573242 14.4656543,16.1411133 L12.8220996,15.1118164 C12.6726855,15.1948242 12.5052865,15.2736816 12.3199023,15.3483887 C12.1345182,15.4230957 11.9394499,15.4881185 11.7346973,15.543457 L11.2947559,17.4277344 C11.250485,17.6380208 11.1204395,17.7431641 10.9046191,17.7431641 Z M10.2156543,13.34375 C10.7635059,13.34375 11.2629362,13.2081706 11.7139453,12.9370117 C12.1649544,12.6658529 12.5260384,12.3033854 12.7971973,11.8496094 C13.0683561,11.3958333 13.2039355,10.8922526 13.2039355,10.3388672 C13.2039355,9.79654948 13.0683561,9.29988607 12.7971973,8.84887695 C12.5260384,8.39786784 12.1649544,8.03678385 11.7139453,7.765625 C11.2629362,7.49446615 10.7635059,7.35888672 10.2156543,7.35888672 C9.66780274,7.35888672 9.16560547,7.49446615 8.7090625,7.765625 C8.25251953,8.03678385 7.88866862,8.39786784 7.61750977,8.84887695 C7.34635091,9.29988607 7.21077149,9.79654948 7.21077149,10.3388672 C7.21077149,10.8922526 7.34635091,11.3958333 7.61750977,11.8496094 C7.88866862,12.3033854 8.25113607,12.6658529 8.70491211,12.9370117 C9.15868815,13.2081706 9.66226888,13.34375 10.2156543,13.34375 Z M10.2156543,12.5717773 C9.80614909,12.5717773 9.43261393,12.4707845 9.09504883,12.2687988 C8.75748372,12.0668132 8.48770833,11.7970378 8.28572266,11.4594727 C8.08373698,11.1219076 7.98274414,10.7483724 7.98274414,10.3388672 C7.98274414,9.94042969 8.08512044,9.57381185 8.28987305,9.23901367 C8.49462565,8.90421549 8.76578451,8.63582357 9.10334961,8.43383789 C9.44091471,8.23185221 9.81168294,8.13085938 10.2156543,8.13085938 C10.6140918,8.13085938 10.9820931,8.23185221 11.3196582,8.43383789 C11.6572233,8.63582357 11.9256152,8.90421549 12.124834,9.23901367 C12.3240527,9.57381185 12.4236621,9.94042969 12.4236621,10.3388672 C12.4236621,10.7483724 12.3240527,11.1219076 12.124834,11.4594727 C11.9256152,11.7970378 11.6572233,12.0668132 11.3196582,12.2687988 C10.9820931,12.4707845 10.6140918,12.5717773 10.2156543,12.5717773 Z" id="􀣋" fill="#0091FF" fill-rule="nonzero"></path>
        </g>
    </g>
</svg>