<svg width="20" height="18" viewBox="0 0 20 18" fill="none" xmlns="http://www.w3.org/2000/svg">
<path id="calendar" d="M3.63281 17.7578H16.377C18.2324 17.7578 19.1602 16.8301 19.1602 15.0039V3.70508C19.1602 1.87891 18.2324 0.941406 16.377 0.941406H3.63281C1.77734 0.941406 0.839844 1.86914 0.839844 3.70508V15.0039C0.839844 16.8301 1.77734 17.7578 3.63281 17.7578ZM3.52539 16.4883C2.61719 16.4883 2.11914 16 2.11914 15.0625V6.51758C2.11914 5.58008 2.61719 5.0918 3.52539 5.0918H16.4648C17.373 5.0918 17.8906 5.58008 17.8906 6.51758V15.0625C17.8906 16 17.373 16.4883 16.4648 16.4883H3.52539ZM8.17383 8.38281H8.7207C9.02344 8.38281 9.11133 8.30469 9.11133 8.00195V7.46484C9.11133 7.16211 9.02344 7.07422 8.7207 7.07422H8.17383C7.87109 7.07422 7.7832 7.16211 7.7832 7.46484V8.00195C7.7832 8.30469 7.87109 8.38281 8.17383 8.38281ZM11.2793 8.38281H11.8262C12.1289 8.38281 12.2168 8.30469 12.2168 8.00195V7.46484C12.2168 7.16211 12.1289 7.07422 11.8262 7.07422H11.2793C10.9766 7.07422 10.8887 7.16211 10.8887 7.46484V8.00195C10.8887 8.30469 10.9766 8.38281 11.2793 8.38281ZM14.3848 8.38281H14.9316C15.2344 8.38281 15.3223 8.30469 15.3223 8.00195V7.46484C15.3223 7.16211 15.2344 7.07422 14.9316 7.07422H14.3848C14.082 7.07422 13.9941 7.16211 13.9941 7.46484V8.00195C13.9941 8.30469 14.082 8.38281 14.3848 8.38281ZM5.07812 11.4395H5.61523C5.91797 11.4395 6.00586 11.3613 6.00586 11.0586V10.5215C6.00586 10.2188 5.91797 10.1406 5.61523 10.1406H5.07812C4.76562 10.1406 4.67773 10.2188 4.67773 10.5215V11.0586C4.67773 11.3613 4.76562 11.4395 5.07812 11.4395ZM8.17383 11.4395H8.7207C9.02344 11.4395 9.11133 11.3613 9.11133 11.0586V10.5215C9.11133 10.2188 9.02344 10.1406 8.7207 10.1406H8.17383C7.87109 10.1406 7.7832 10.2188 7.7832 10.5215V11.0586C7.7832 11.3613 7.87109 11.4395 8.17383 11.4395ZM11.2793 11.4395H11.8262C12.1289 11.4395 12.2168 11.3613 12.2168 11.0586V10.5215C12.2168 10.2188 12.1289 10.1406 11.8262 10.1406H11.2793C10.9766 10.1406 10.8887 10.2188 10.8887 10.5215V11.0586C10.8887 11.3613 10.9766 11.4395 11.2793 11.4395ZM14.3848 11.4395H14.9316C15.2344 11.4395 15.3223 11.3613 15.3223 11.0586V10.5215C15.3223 10.2188 15.2344 10.1406 14.9316 10.1406H14.3848C14.082 10.1406 13.9941 10.2188 13.9941 10.5215V11.0586C13.9941 11.3613 14.082 11.4395 14.3848 11.4395ZM5.07812 14.4961H5.61523C5.91797 14.4961 6.00586 14.418 6.00586 14.1152V13.5781C6.00586 13.2754 5.91797 13.1973 5.61523 13.1973H5.07812C4.76562 13.1973 4.67773 13.2754 4.67773 13.5781V14.1152C4.67773 14.418 4.76562 14.4961 5.07812 14.4961ZM8.17383 14.4961H8.7207C9.02344 14.4961 9.11133 14.418 9.11133 14.1152V13.5781C9.11133 13.2754 9.02344 13.1973 8.7207 13.1973H8.17383C7.87109 13.1973 7.7832 13.2754 7.7832 13.5781V14.1152C7.7832 14.418 7.87109 14.4961 8.17383 14.4961ZM11.2793 14.4961H11.8262C12.1289 14.4961 12.2168 14.418 12.2168 14.1152V13.5781C12.2168 13.2754 12.1289 13.1973 11.8262 13.1973H11.2793C10.9766 13.1973 10.8887 13.2754 10.8887 13.5781V14.1152C10.8887 14.418 10.9766 14.4961 11.2793 14.4961Z" fill="#003054"/>
</svg>
