<svg width="16" height="15" viewBox="0 0 16 15" fill="none" xmlns="http://www.w3.org/2000/svg">
<path d="M2.30469 14.1484H13.1719C14.6953 14.1484 15.4766 13.3672 15.4766 11.8672V2.28906C15.4766 0.78125 14.6953 0 13.1719 0H2.30469C0.78125 0 0 0.773438 0 2.28906V11.8672C0 13.375 0.78125 14.1484 2.30469 14.1484ZM2.23438 13.1797C1.41406 13.1797 0.96875 12.75 0.96875 11.9062V4.75781C0.96875 3.91406 1.41406 3.47656 2.23438 3.47656H13.2344C14.0391 3.47656 14.5078 3.91406 14.5078 4.75781V11.9062C14.5078 12.75 14.0391 13.1797 13.2344 13.1797H2.23438ZM6.17969 6.25781H6.64062C6.89062 6.25781 6.95312 6.19531 6.95312 5.95312V5.49219C6.95312 5.25 6.89062 5.1875 6.64062 5.1875H6.17969C5.9375 5.1875 5.86719 5.25 5.86719 5.49219V5.95312C5.86719 6.19531 5.9375 6.25781 6.17969 6.25781ZM8.82812 6.25781H9.28906C9.53906 6.25781 9.60156 6.19531 9.60156 5.95312V5.49219C9.60156 5.25 9.53906 5.1875 9.28906 5.1875H8.82812C8.58594 5.1875 8.51562 5.25 8.51562 5.49219V5.95312C8.51562 6.19531 8.58594 6.25781 8.82812 6.25781ZM11.4844 6.25781H11.9375C12.1875 6.25781 12.25 6.19531 12.25 5.95312V5.49219C12.25 5.25 12.1875 5.1875 11.9375 5.1875H11.4844C11.2344 5.1875 11.1719 5.25 11.1719 5.49219V5.95312C11.1719 6.19531 11.2344 6.25781 11.4844 6.25781ZM3.53125 8.85938H3.99219C4.24219 8.85938 4.30469 8.80469 4.30469 8.5625V8.10156C4.30469 7.85938 4.24219 7.79688 3.99219 7.79688H3.53125C3.28906 7.79688 3.21875 7.85938 3.21875 8.10156V8.5625C3.21875 8.80469 3.28906 8.85938 3.53125 8.85938ZM6.17969 8.85938H6.64062C6.89062 8.85938 6.95312 8.80469 6.95312 8.5625V8.10156C6.95312 7.85938 6.89062 7.79688 6.64062 7.79688H6.17969C5.9375 7.79688 5.86719 7.85938 5.86719 8.10156V8.5625C5.86719 8.80469 5.9375 8.85938 6.17969 8.85938ZM8.82812 8.85938H9.28906C9.53906 8.85938 9.60156 8.80469 9.60156 8.5625V8.10156C9.60156 7.85938 9.53906 7.79688 9.28906 7.79688H8.82812C8.58594 7.79688 8.51562 7.85938 8.51562 8.10156V8.5625C8.51562 8.80469 8.58594 8.85938 8.82812 8.85938ZM11.4844 8.85938H11.9375C12.1875 8.85938 12.25 8.80469 12.25 8.5625V8.10156C12.25 7.85938 12.1875 7.79688 11.9375 7.79688H11.4844C11.2344 7.79688 11.1719 7.85938 11.1719 8.10156V8.5625C11.1719 8.80469 11.2344 8.85938 11.4844 8.85938ZM3.53125 11.4688H3.99219C4.24219 11.4688 4.30469 11.4141 4.30469 11.1719V10.7109C4.30469 10.4688 4.24219 10.4062 3.99219 10.4062H3.53125C3.28906 10.4062 3.21875 10.4688 3.21875 10.7109V11.1719C3.21875 11.4141 3.28906 11.4688 3.53125 11.4688ZM6.17969 11.4688H6.64062C6.89062 11.4688 6.95312 11.4141 6.95312 11.1719V10.7109C6.95312 10.4688 6.89062 10.4062 6.64062 10.4062H6.17969C5.9375 10.4062 5.86719 10.4688 5.86719 10.7109V11.1719C5.86719 11.4141 5.9375 11.4688 6.17969 11.4688ZM8.82812 11.4688H9.28906C9.53906 11.4688 9.60156 11.4141 9.60156 11.1719V10.7109C9.60156 10.4688 9.53906 10.4062 9.28906 10.4062H8.82812C8.58594 10.4062 8.51562 10.4688 8.51562 10.7109V11.1719C8.51562 11.4141 8.58594 11.4688 8.82812 11.4688Z" fill="#003054"/>
</svg>
