<?xml version="1.0" encoding="UTF-8"?>
<svg width="13px" height="13px" viewBox="0 0 13 13" version="1.1" xmlns="http://www.w3.org/2000/svg" xmlns:xlink="http://www.w3.org/1999/xlink">
    <title>check</title>
    <g id="Page-1" stroke="none" stroke-width="1" fill="none" fill-rule="evenodd">
        <g id="Projekt-Copy-6" transform="translate(-185.000000, -2505.000000)" fill="#0091FF" fill-rule="nonzero">
            <path d="M190.379395,2517.1499 C190.711426,2517.1499 190.972656,2517.01074 191.163086,2516.73242 L197.688965,2506.50781 C197.757324,2506.40039 197.807373,2506.30029 197.839111,2506.20752 C197.87085,2506.11475 197.886719,2506.02686 197.886719,2505.94385 C197.886719,2505.72412 197.818359,2505.5459 197.681641,2505.40918 C197.544922,2505.27246 197.366699,2505.2041 197.146973,2505.2041 C196.990723,2505.2041 196.861328,2505.23462 196.758789,2505.29565 C196.65625,2505.35669 196.553711,2505.46289 196.451172,2505.61426 L190.357422,2515.31885 L187.200684,2511.23926 C187.02002,2510.99512 186.797852,2510.87305 186.53418,2510.87305 C186.30957,2510.87305 186.125244,2510.94385 185.981201,2511.08545 C185.837158,2511.22705 185.765137,2511.40771 185.765137,2511.62744 C185.765137,2511.72021 185.783447,2511.81543 185.820068,2511.91309 C185.856689,2512.01074 185.916504,2512.1084 185.999512,2512.20605 L189.581055,2516.73242 C189.810547,2517.01074 190.07666,2517.1499 190.379395,2517.1499 Z" id="check"></path>
        </g>
    </g>
</svg>