<svg width="16" height="10" viewBox="0 0 16 10" fill="none" xmlns="http://www.w3.org/2000/svg">
<path id="chevron-down" d="M7.99023 9.08594C8.20508 9.08594 8.40039 8.99805 8.54688 8.8418L15.5977 1.49805C15.7344 1.36133 15.8125 1.19531 15.8125 0.990234C15.8125 0.580078 15.5 0.267578 15.0996 0.267578C14.9043 0.267578 14.7188 0.345703 14.582 0.472656L8 7.32812L1.4082 0.472656C1.27148 0.345703 1.0957 0.267578 0.900391 0.267578C0.490234 0.267578 0.177734 0.580078 0.177734 0.990234C0.177734 1.19531 0.265625 1.36133 0.392578 1.49805L7.45312 8.8418C7.60938 8.99805 7.78516 9.08594 7.99023 9.08594Z" fill="#003054"/>
</svg>
