<?xml version="1.0" encoding="UTF-8"?>
<svg width="17px" height="18px" viewBox="0 0 17 18" version="1.1" xmlns="http://www.w3.org/2000/svg" xmlns:xlink="http://www.w3.org/1999/xlink">
    <title>close</title>
    <g id="Live" stroke="none" stroke-width="1" fill="none" fill-rule="evenodd">
        <g id="Desktop-Überblick-Copy-3" transform="translate(-997.000000, -207.000000)" fill="#0091FF" fill-rule="nonzero">
            <g id="Group-2" transform="translate(215.000000, 150.000000)">
                <path d="M797.977451,74.1591438 C798.157941,74.115826 798.316773,74.0255806 798.453946,73.8884076 C798.591119,73.7512346 798.681365,73.5924027 798.724683,73.4119119 C798.768,73.2314211 798.768,73.0509303 798.724683,72.8704395 C798.681365,72.6899487 798.594729,72.5347266 798.464776,72.4047733 L792.058735,65.9994236 L798.464776,59.5935363 C798.594729,59.463583 798.681365,59.3083609 798.724683,59.1278701 C798.768,58.9473793 798.768,58.7650836 798.724683,58.580983 C798.681365,58.3968824 798.591119,58.2398554 798.453946,58.109902 C798.316773,57.972729 798.156137,57.8824836 797.972036,57.8391658 C797.787935,57.795848 797.607445,57.795848 797.430564,57.8391658 C797.253683,57.8824836 797.100265,57.9691192 796.970312,58.0990725 L790.564735,64.5044236 L784.159075,58.0990725 C784.021902,57.9691192 783.86307,57.8824836 783.682579,57.8391658 C783.502089,57.795848 783.321598,57.7940431 783.141107,57.8337511 C782.960616,57.873459 782.801784,57.9655093 782.664611,58.109902 C782.534658,58.247075 782.448022,58.4059069 782.404705,58.5863977 C782.361387,58.7668885 782.361387,58.9473793 782.404705,59.1278701 C782.448022,59.3083609 782.534658,59.463583 782.664611,59.5935363 L789.069735,65.9994236 L782.664611,72.4047733 C782.534658,72.5347266 782.446217,72.6899487 782.39929,72.8704395 C782.352362,73.0509303 782.350557,73.233226 782.393875,73.4173266 C782.437193,73.6014273 782.527438,73.7584542 782.664611,73.8884076 C782.801784,74.0255806 782.960616,74.115826 783.141107,74.1591438 C783.321598,74.2024616 783.502089,74.2024616 783.682579,74.1591438 C783.86307,74.115826 784.021902,74.0291904 784.159075,73.8992371 L790.564735,67.4944236 L796.970312,73.8992371 C797.100265,74.0291904 797.255487,74.115826 797.435978,74.1591438 C797.616469,74.2024616 797.79696,74.2024616 797.977451,74.1591438 Z" id="close"></path>
            </g>
        </g>
    </g>
</svg>