<svg role="img" aria-label="Grafic for Copy Text to Clipboard Button" width="20" height="24" viewBox="0 0 20 24" fill="none" xmlns="http://www.w3.org/2000/svg">
<path d="M0.482178 21.0703C0.482178 22.9258 1.40991 23.8633 3.24585 23.8633H11.9958C13.8318 23.8633 14.7595 22.916 14.7595 21.0703V19.332H16.4685C18.3044 19.332 19.2322 18.3945 19.2322 16.5488V3.58984C19.2322 1.74414 18.3044 0.796875 16.4685 0.796875H7.70874C5.89233 0.796875 4.95483 1.73438 4.95483 3.58984V5.31836H3.24585C1.41968 5.31836 0.482178 6.26562 0.482178 8.11133V21.0703ZM9.90601 3.83398C9.52515 3.83398 9.34937 3.58984 9.34937 3.32617V3.14062C9.34937 2.88672 9.52515 2.63281 9.90601 2.63281H14.281C14.6619 2.63281 14.8376 2.88672 14.8376 3.14062V3.32617C14.8376 3.58984 14.6619 3.83398 14.281 3.83398H9.90601ZM1.76147 21.0508V8.13086C1.76147 7.1543 2.28882 6.59766 3.30444 6.59766H6.53687V12.0762C6.53687 13.1699 7.09351 13.6973 8.16772 13.6973H13.4802V21.0508C13.4802 22.0371 12.9529 22.584 11.9275 22.584H3.30444C2.28882 22.584 1.76147 22.0371 1.76147 21.0508ZM8.30444 12.4961C7.90405 12.4961 7.7478 12.3398 7.7478 11.9297V6.93945L13.2263 12.4961H8.30444Z" fill="#003054"/>
</svg>
