<svg role="img" aria-label="Doc Richtext Icon" width="16" height="21" viewBox="0 0 16 21" fill="none" xmlns="http://www.w3.org/2000/svg">
<path id="doc-richtext" d="M0.314453 17.4102C0.314453 19.2656 1.24219 20.2031 3.07812 20.2031H12.9121C14.748 20.2031 15.6758 19.2656 15.6758 17.4102V3.2793C15.6758 1.43359 14.748 0.486328 12.9121 0.486328H3.07812C1.24219 0.486328 0.314453 1.43359 0.314453 3.2793V17.4102ZM1.59375 17.3906V3.29883C1.59375 2.30273 2.12109 1.76562 3.13672 1.76562H12.8535C13.8691 1.76562 14.3965 2.30273 14.3965 3.29883V17.3906C14.3965 18.3867 13.8691 18.9238 12.8535 18.9238H3.13672C2.12109 18.9238 1.59375 18.3867 1.59375 17.3906ZM3.70312 9.12891C3.91797 9.12891 4.05469 9.01172 4.12305 8.74805L4.50391 7.71289H6.31055L6.69141 8.74805C6.76953 9.01172 6.90625 9.12891 7.11133 9.12891C7.39453 9.12891 7.55078 8.97266 7.55078 8.71875C7.55078 8.65039 7.53125 8.55273 7.50195 8.44531L6.04688 4.5293C5.92969 4.20703 5.73438 4.04102 5.40234 4.04102C5.08008 4.04102 4.88477 4.20703 4.76758 4.5293L3.32227 8.44531C3.2832 8.54297 3.26367 8.65039 3.26367 8.71875C3.26367 8.97266 3.42969 9.12891 3.70312 9.12891ZM9.18164 5.60352H12.2871C12.5703 5.60352 12.7949 5.37891 12.7949 5.0957C12.7949 4.82227 12.5703 4.60742 12.2871 4.60742H9.18164C8.88867 4.60742 8.67383 4.82227 8.67383 5.0957C8.67383 5.37891 8.88867 5.60352 9.18164 5.60352ZM4.69922 7.01953L5.38281 5.00781H5.43164L6.11523 7.01953H4.69922ZM9.18164 8.83594H12.2871C12.5703 8.83594 12.7949 8.61133 12.7949 8.32812C12.7949 8.05469 12.5703 7.83984 12.2871 7.83984H9.18164C8.88867 7.83984 8.67383 8.05469 8.67383 8.32812C8.67383 8.61133 8.88867 8.83594 9.18164 8.83594ZM3.15625 16.6777H3.72266L5.03125 15.3887C5.2168 15.2129 5.41211 15.1348 5.60742 15.1348C5.79297 15.1348 6.00781 15.2129 6.19336 15.3887L6.97461 16.0918L8.94727 14.3633C9.17188 14.168 9.39648 14.0703 9.62109 14.0703C9.86523 14.0703 10.1191 14.1582 10.3047 14.3633L12.2676 16.5996H12.834V11.9805C12.834 11.1602 12.4238 10.75 11.6035 10.75H4.38672C3.5957 10.75 3.15625 11.1602 3.15625 11.9805V16.6777ZM6.26172 14.3535C5.69531 14.3535 5.22656 13.875 5.22656 13.3184C5.22656 12.7422 5.69531 12.2539 6.26172 12.2734C6.83789 12.2832 7.30664 12.7422 7.30664 13.3184C7.30664 13.875 6.83789 14.3535 6.26172 14.3535Z" fill="#003054"/>
</svg>
