<?xml version="1.0" encoding="UTF-8"?>
<svg width="16px" height="15px" viewBox="0 0 16 15" version="1.1" xmlns="http://www.w3.org/2000/svg" xmlns:xlink="http://www.w3.org/1999/xlink">
    <title>edit</title>
    <g id="Icons" stroke="none" stroke-width="1" fill="none" fill-rule="evenodd">
        <g id="edit" transform="translate(-17.000000, -18.000000)" fill="#0091FF" fill-rule="nonzero">
            <path d="M31.2899521,21.0136719 L32.1883896,20.1445312 C32.4162541,19.9166667 32.5350693,19.6855469 32.5448349,19.4511719 C32.5546005,19.2167969 32.4585719,18.9986979 32.2567489,18.796875 L31.9833114,18.5136719 C31.7814885,18.3183594 31.5650172,18.2304688 31.3338974,18.25 C31.1027776,18.2695312 30.8732854,18.3867188 30.6454208,18.6015625 L29.7567489,19.4804688 L31.2899521,21.0136719 Z M18.2137802,32.8398438 L20.2840927,31.9902344 L30.5184677,21.7753906 L28.9950302,20.2519531 L18.7704208,30.4667969 L17.8719833,32.4785156 C17.8329208,32.5761719 17.8540797,32.6689453 17.9354599,32.7568359 C18.0168401,32.8447266 18.1096135,32.8723958 18.2137802,32.8398438 Z"></path>
        </g>
    </g>
</svg>