<?xml version="1.0" encoding="UTF-8"?>
<svg width="21px" height="20px" viewBox="0 0 21 20" version="1.1" xmlns="http://www.w3.org/2000/svg" xmlns:xlink="http://www.w3.org/1999/xlink">
    <title>edit</title>
    <g id="Icons" stroke="none" stroke-width="1" fill="none" fill-rule="evenodd">
        <g id="edit" transform="translate(0.500000, 0.000000)">
            <rect id="Rectangle-Copy-4" x="0" y="0" width="20" height="20"></rect>
            <path d="M15.4866504,6.42089844 L16.1424121,5.78173828 C16.3139616,5.60465495 16.4038867,5.43310547 16.4121875,5.26708984 C16.4204883,5.10107422 16.3471647,4.94059245 16.1922168,4.78564453 L16.0594043,4.65283203 C15.9099902,4.50895182 15.7508919,4.44392904 15.5821094,4.45776367 C15.4133268,4.47159831 15.2459277,4.55875651 15.0799121,4.71923828 L14.4324512,5.35839844 L15.4866504,6.42089844 Z M4.2390918,16.8051758 L5.84114258,16.0498047 L14.9055957,6.99365234 L13.8596973,5.93945313 L4.79524414,14.9956055 L4.0149707,16.5727539 C3.98730143,16.6391602 4.00113607,16.701416 4.05647461,16.7595215 C4.11181315,16.817627 4.17268555,16.8328451 4.2390918,16.8051758 Z" id="􀈊" fill="#0091FF" fill-rule="nonzero"></path>
        </g>
    </g>
</svg>