<?xml version="1.0" encoding="UTF-8"?>
<svg width="21px" height="20px" viewBox="0 0 21 20" version="1.1" xmlns="http://www.w3.org/2000/svg" xmlns:xlink="http://www.w3.org/1999/xlink">
    <title>forward</title>
    <g id="Icons" stroke="none" stroke-width="1" fill="none" fill-rule="evenodd">
        <g id="forward" transform="translate(0.500000, 0.000000)">
            <rect id="Rectangle-Copy-7" x="0" y="0" width="20" height="20"></rect>
            <path d="M11.7139453,16.1245117 C11.8246224,16.1245117 11.9242318,16.0802409 12.0127734,15.9916992 L17.3335742,10.6542969 C17.4276497,10.5657552 17.4746875,10.460612 17.4746875,10.3388672 C17.4746875,10.2226562 17.4276497,10.1202799 17.3335742,10.0317383 L12.0791797,4.74414062 C12.0072396,4.67220052 11.9422168,4.6237793 11.8841113,4.59887695 C11.8260059,4.57397461 11.7692839,4.56152344 11.7139453,4.56152344 C11.5922005,4.56152344 11.4912077,4.60164388 11.4109668,4.68188477 C11.3307259,4.76212565 11.2906055,4.85758464 11.2906055,4.96826172 C11.2906055,5.02913411 11.3002897,5.08723958 11.3196582,5.14257812 C11.3390267,5.19791667 11.3680794,5.2421875 11.4068164,5.27539062 L14.1128711,7.99804688 L16.221,9.991 L14.4532031,9.92382812 L3.34675781,9.92382812 C3.23054688,9.92382812 3.13232096,9.9625651 3.05208008,10.0400391 C2.97183919,10.117513 2.93171875,10.2171224 2.93171875,10.3388672 C2.93171875,10.4661458 2.97183919,10.5685221 3.05208008,10.6459961 C3.13232096,10.7234701 3.23054688,10.762207 3.34675781,10.762207 L14.4532031,10.762207 L16.22,10.696 L14.1128711,12.6796875 L11.4068164,15.4023438 C11.3680794,15.4410807 11.3390267,15.4881185 11.3196582,15.543457 C11.3002897,15.5987956 11.2906055,15.656901 11.2906055,15.7177734 C11.2906055,15.8284505 11.3307259,15.9239095 11.4109668,16.0041504 C11.4912077,16.0843913 11.5922005,16.1245117 11.7139453,16.1245117 Z" fill="#0091FF" fill-rule="nonzero"></path>
        </g>
    </g>
</svg>