<svg width="20" height="21" viewBox="0 0 20 21" fill="none" xmlns="http://www.w3.org/2000/svg">
<path id="gearshape" d="M9.0625 20.1055H10.9277C11.6016 20.1055 12.0996 19.7148 12.2656 19.0508L12.666 17.293L13.0469 17.1562L14.5801 18.1035C15.1562 18.4648 15.8008 18.3867 16.2793 17.9082L17.5684 16.6094C18.0566 16.1309 18.1348 15.4863 17.7734 14.9199L16.8164 13.3965L16.9531 13.0254L18.7109 12.6152C19.3652 12.459 19.7754 11.9512 19.7754 11.2773V9.44141C19.7754 8.77734 19.375 8.26953 18.7109 8.11328L16.9727 7.68359L16.8262 7.3125L17.7832 5.78906C18.1445 5.21289 18.0566 4.57812 17.5781 4.08008L16.2793 2.79102C15.8105 2.3125 15.166 2.23438 14.5898 2.5957L13.0664 3.5332L12.666 3.38672L12.2656 1.62891C12.0996 0.964844 11.6016 0.574219 10.9277 0.574219H9.0625C8.38867 0.574219 7.88086 0.964844 7.72461 1.62891L7.31445 3.38672L6.91406 3.5332L5.39062 2.5957C4.81445 2.23438 4.16992 2.3125 3.70117 2.79102L2.40234 4.08008C1.92383 4.57812 1.83594 5.21289 2.20703 5.78906L3.16406 7.3125L3.01758 7.68359L1.2793 8.11328C0.615234 8.26953 0.214844 8.77734 0.214844 9.44141V11.2773C0.214844 11.9512 0.625 12.459 1.2793 12.6152L3.02734 13.0254L3.16406 13.3965L2.20703 14.9199C1.8457 15.4863 1.93359 16.1309 2.41211 16.6094L3.71094 17.9082C4.18945 18.3867 4.83398 18.4648 5.40039 18.1035L6.93359 17.1562L7.31445 17.293L7.72461 19.0508C7.88086 19.7148 8.38867 20.1055 9.0625 20.1055ZM9.18945 18.875C8.99414 18.875 8.89648 18.7871 8.85742 18.6016L8.32031 16.3359C7.79297 16.1992 7.28516 15.9941 6.9043 15.7695L4.92188 17C4.77539 17.0977 4.62891 17.0781 4.48242 16.9414L3.37891 15.8281C3.24219 15.6914 3.23242 15.5547 3.33008 15.3984L4.55078 13.416C4.35547 13.0449 4.13086 12.5469 3.99414 12.0195L1.71875 11.4824C1.54297 11.4531 1.45508 11.3457 1.45508 11.1504V9.56836C1.45508 9.36328 1.5332 9.26562 1.71875 9.22656L3.98438 8.68945C4.12109 8.13281 4.375 7.625 4.54102 7.27344L3.32031 5.31055C3.21289 5.13477 3.22266 4.99805 3.35938 4.86133L4.47266 3.76758C4.61914 3.62109 4.75586 3.60156 4.92188 3.70898L6.88477 4.91016C7.27539 4.70508 7.80273 4.49023 8.32031 4.34375L8.85742 2.07812C8.89648 1.90234 8.99414 1.80469 9.18945 1.80469H10.791C10.9961 1.80469 11.0938 1.89258 11.1328 2.07812L11.6699 4.35352C12.2168 4.49023 12.6953 4.71484 13.0859 4.91992L15.0586 3.70898C15.2344 3.60156 15.3613 3.62109 15.5078 3.76758L16.6211 4.86133C16.7578 4.99805 16.7676 5.13477 16.6602 5.31055L15.4492 7.27344C15.6152 7.625 15.8594 8.13281 16.0059 8.68945L18.2617 9.22656C18.4473 9.26562 18.5352 9.36328 18.5352 9.56836V11.1504C18.5352 11.3457 18.4473 11.4531 18.2617 11.4824L15.9961 12.0195C15.8594 12.5469 15.6348 13.0449 15.4297 13.416L16.6504 15.3984C16.7578 15.5547 16.748 15.6914 16.6113 15.8281L15.498 16.9414C15.3516 17.0781 15.2051 17.0977 15.0586 17L13.0762 15.7695C12.6953 15.9941 12.207 16.1992 11.6699 16.3359L11.1328 18.6016C11.0938 18.7871 10.9961 18.875 10.791 18.875H9.18945ZM10 13.8652C11.9336 13.8652 13.5156 12.2832 13.5156 10.3398C13.5156 8.41602 11.9336 6.82422 10 6.82422C8.06641 6.82422 6.46484 8.41602 6.46484 10.3398C6.46484 12.2734 8.06641 13.8652 10 13.8652ZM10 12.6348C8.74023 12.6348 7.70508 11.5996 7.70508 10.3398C7.70508 9.09961 8.75 8.06445 10 8.06445C11.2305 8.06445 12.2754 9.09961 12.2754 10.3398C12.2754 11.5898 11.2305 12.6348 10 12.6348Z" fill="#003054"/>
</svg>
