<svg role="img" aria-label="Grafic Mail Icon" width="21" height="17" viewBox="0 0 21 17" fill="none" xmlns="http://www.w3.org/2000/svg">
<path d="M3.14648 16.2109H17.9707C19.6016 16.2109 20.5391 15.2734 20.5391 13.4473V3.25195C20.5391 1.42578 19.5918 0.498047 17.7461 0.498047H2.92188C1.29102 0.498047 0.353516 1.42578 0.353516 3.25195V13.4473C0.353516 15.2832 1.29102 16.2109 3.14648 16.2109ZM9.34766 8.92578L2.22852 1.9043C2.46289 1.77734 2.75586 1.70898 3.10742 1.70898H17.7852C18.1465 1.70898 18.4492 1.78711 18.6934 1.93359L11.5938 8.92578C11.2031 9.31641 10.832 9.48242 10.4707 9.48242C10.1094 9.48242 9.73828 9.30664 9.34766 8.92578ZM1.57422 13.4375V3.25195C1.57422 3.14453 1.57422 3.03711 1.59375 2.93945L7.15039 8.38867L1.60352 13.8281C1.58398 13.7109 1.57422 13.584 1.57422 13.4375ZM19.3184 3.26172V13.4473C19.3184 13.5645 19.3086 13.6816 19.2988 13.7891L13.791 8.38867L19.2988 2.98828C19.3086 3.07617 19.3184 3.16406 19.3184 3.26172ZM3.10742 14.9902C2.78516 14.9902 2.50195 14.9316 2.27734 14.8242L7.99023 9.21875L8.63477 9.85352C9.25977 10.4688 9.86523 10.7031 10.4707 10.7031C11.0762 10.7031 11.6816 10.4688 12.3066 9.85352L12.9512 9.21875L18.6445 14.8047C18.4102 14.9316 18.1172 14.9902 17.7852 14.9902H3.10742Z" fill="#003054"/>
</svg>
