<svg role="img" aria-label="Map Icon" width="17" height="16" viewBox="0 0 17 16" fill="none" xmlns="http://www.w3.org/2000/svg">
<path d="M6.32812 13.4531L10.2266 15.7188C10.3516 15.7891 10.4688 15.8438 10.5859 15.8672V3.35156L6.78125 1.03125C6.64062 0.9375 6.47656 0.867188 6.32812 0.835938V13.4531ZM0.632812 14.8203C0.632812 15.3125 0.921875 15.5938 1.39844 15.5938C1.57031 15.5938 1.75 15.5391 1.96094 15.4219L5.41406 13.5234V0.914062C5.27344 0.96875 5.10938 1.04688 4.96094 1.13281L1.22656 3.32031C0.828125 3.54688 0.632812 3.84375 0.632812 4.3125V14.8203ZM11.4922 15.8438C11.5859 15.8125 11.6797 15.7734 11.7656 15.7188L15.7656 13.4062C16.1641 13.1797 16.3594 12.8906 16.3594 12.4219V1.90625C16.3594 1.40625 16.0625 1.13281 15.6016 1.13281C15.4297 1.13281 15.25 1.1875 15.0391 1.29688L11.4922 3.25781V15.8438Z" fill="#003054"/>
</svg>
