<svg role="img" aria-label="Message Icon" width="22" height="20" viewBox="0 0 22 20" fill="none" xmlns="http://www.w3.org/2000/svg">
<path id="message" d="M4.57422 19.9297C5.75586 19.9297 8.17773 18.7871 10.0234 17.5176C16.3027 17.8203 21.3613 14.1777 21.3613 9.22656C21.3613 4.61719 16.7617 0.896484 11 0.896484C5.23828 0.896484 0.628906 4.61719 0.628906 9.22656C0.628906 12.2441 2.5625 14.9102 5.48242 16.2773C5.0625 17.0781 4.32031 18.084 3.91016 18.6016C3.44141 19.2168 3.69531 19.9297 4.57422 19.9297ZM5.36523 18.6211C5.29688 18.6406 5.26758 18.5918 5.31641 18.5234C5.81445 17.918 6.55664 16.9902 6.87891 16.3359C7.10352 15.9258 7.04492 15.5645 6.54688 15.3301C3.65625 13.9824 1.94727 11.7754 1.94727 9.22656C1.94727 5.34961 5.96094 2.20508 11 2.20508C16.0293 2.20508 20.043 5.34961 20.043 9.22656C20.043 13.1035 16.0293 16.2578 11 16.2578C10.7363 16.2578 10.4141 16.2383 10.0137 16.2188C9.68164 16.2188 9.4082 16.3164 9.10547 16.5508C7.86523 17.3906 6.18555 18.3477 5.36523 18.6211Z" fill="#003054"/>
</svg>
