<svg role="img" aria-label="Newspaper Icon" width="22" height="21" viewBox="0 0 22 21" fill="none" xmlns="http://www.w3.org/2000/svg">
<path id="newspaper" d="M0.472656 17.5957C0.472656 19.2852 1.33203 20.2031 3.08008 20.2031H18.7344C20.5898 20.2031 21.5273 19.2754 21.5273 17.4395V3.25C21.5273 1.41406 20.5898 0.486328 18.7344 0.486328H7.18164C5.32617 0.486328 4.39844 1.41406 4.39844 3.25V7.84961H2.2207C1.12695 7.84961 0.472656 8.45508 0.472656 9.48047V17.5957ZM5.30664 18.9238C5.54102 18.543 5.66797 18.0645 5.66797 17.5176V3.31836C5.66797 2.29297 6.21484 1.76562 7.21094 1.76562H18.7148C19.7109 1.76562 20.248 2.29297 20.248 3.31836V17.3711C20.248 18.3965 19.7109 18.9238 18.7148 18.9238H5.30664ZM8.1582 5.84766H17.7773C18.0605 5.84766 18.2852 5.62305 18.2852 5.33984C18.2852 5.06641 18.0605 4.8418 17.7773 4.8418H8.1582C7.85547 4.8418 7.64062 5.06641 7.64062 5.33984C7.64062 5.62305 7.85547 5.84766 8.1582 5.84766ZM8.1582 9.12891H17.7773C18.0605 9.12891 18.2852 8.91406 18.2852 8.64062C18.2852 8.35742 18.0605 8.13281 17.7773 8.13281H8.1582C7.85547 8.13281 7.64062 8.35742 7.64062 8.64062C7.64062 8.91406 7.85547 9.12891 8.1582 9.12891ZM1.75195 17.5859V9.70508C1.75195 9.34375 1.97656 9.12891 2.34766 9.12891H4.39844V17.5859C4.39844 18.377 3.82227 18.9238 3.08008 18.9238C2.31836 18.9238 1.75195 18.3477 1.75195 17.5859ZM8.72461 15.7598H11.1172C11.8008 15.7598 12.2207 15.3496 12.2207 14.666V12.5176C12.2207 11.8438 11.8008 11.4238 11.1172 11.4238H8.72461C8.04102 11.4238 7.62109 11.8438 7.62109 12.5176V14.666C7.62109 15.3496 8.04102 15.7598 8.72461 15.7598ZM13.9004 12.4199H17.7773C18.0605 12.4199 18.2754 12.2051 18.2754 11.9316C18.2754 11.6484 18.0605 11.4238 17.7773 11.4238H13.9004C13.6074 11.4238 13.3926 11.6484 13.3926 11.9316C13.3926 12.2051 13.6074 12.4199 13.9004 12.4199ZM13.9004 15.7598H17.7773C18.0605 15.7598 18.2754 15.5449 18.2754 15.2715C18.2754 14.9883 18.0605 14.7637 17.7773 14.7637H13.9004C13.6074 14.7637 13.3926 14.9883 13.3926 15.2715C13.3926 15.5449 13.6074 15.7598 13.9004 15.7598Z" fill="#003054"/>
</svg>
