<svg role="img" aria-label="Person Icon" width="16" height="17" viewBox="0 0 16 17" fill="none" xmlns="http://www.w3.org/2000/svg">
<path d="M8.00977 8.47656C10.1777 8.47656 11.9258 6.5625 11.9258 4.19922C11.9258 1.875 10.1777 0.0292969 8.00977 0.0292969C5.85156 0.0292969 4.07422 1.9043 4.08398 4.20898C4.09375 6.57227 5.8418 8.47656 8.00977 8.47656ZM8.00977 7.27539C6.56445 7.27539 5.36328 5.9375 5.36328 4.20898C5.35352 2.53906 6.55469 1.23047 8.00977 1.23047C9.46484 1.23047 10.6465 2.51953 10.6465 4.19922C10.6465 5.91797 9.45508 7.27539 8.00977 7.27539ZM2.10156 16.9727H13.8887C15.3145 16.9727 15.9883 16.5332 15.9883 15.5664C15.9883 13.1543 12.9512 9.69727 8 9.69727C3.03906 9.69727 0.00195312 13.1543 0.00195312 15.5664C0.00195312 16.5332 0.675781 16.9727 2.10156 16.9727ZM1.75 15.7715C1.39844 15.7715 1.28125 15.6738 1.28125 15.4297C1.28125 13.7598 3.70312 10.8984 8 10.8984C12.2969 10.8984 14.7188 13.7598 14.7188 15.4297C14.7188 15.6738 14.5918 15.7715 14.2402 15.7715H1.75Z" fill="#003054"/>
</svg>
