<svg role="img" aria-label="Phone Icon" width="18" height="19" viewBox="0 0 18 19" fill="none" xmlns="http://www.w3.org/2000/svg">
<path d="M13.3223 18.2266C14.8555 18.2266 15.9199 17.8066 16.8574 16.7813C16.9258 16.7129 16.9844 16.6445 17.0332 16.5859C17.5898 15.9805 17.8535 15.3652 17.8535 14.7988C17.8535 14.1738 17.502 13.5879 16.75 13.0801L14.0645 11.2246C13.2832 10.6777 12.3555 10.5996 11.5645 11.3809L10.8711 12.0645C10.666 12.2695 10.4707 12.2988 10.2266 12.1621C9.75781 11.8691 8.75195 11.0195 8 10.2774C7.18945 9.47657 6.55469 8.74415 6.18359 8.11915C6.04688 7.88477 6.07617 7.6797 6.28125 7.47462L6.96484 6.78126C7.74609 5.99024 7.66797 5.06251 7.13086 4.28126L5.27539 1.60548C4.75781 0.853524 4.17188 0.511727 3.54688 0.501962C2.98047 0.492196 2.36523 0.765633 1.76953 1.31251C1.70117 1.3711 1.63281 1.4297 1.56445 1.48829C0.548828 2.41602 0.119141 3.49024 0.119141 5.00391C0.119141 7.61134 1.7793 10.7656 4.67969 13.666C7.57031 16.5469 10.7246 18.2266 13.3223 18.2266ZM13.332 16.9961C10.9785 17.0352 8.00977 15.2383 5.59766 12.8359C3.17578 10.4141 1.32031 7.35743 1.35938 5.00391C1.36914 3.97852 1.7207 3.08009 2.46289 2.41602C2.51172 2.37696 2.56055 2.3379 2.60938 2.28907C2.92188 2.00587 3.25391 1.85938 3.53711 1.85938C3.83008 1.85938 4.06445 1.97657 4.25977 2.26954L6.04688 4.94532C6.26172 5.25782 6.29102 5.61915 5.94922 5.96095L5.16797 6.7422C4.58203 7.31837 4.61133 8.06056 5.03125 8.63673C5.5 9.31056 6.37891 10.3262 7.16992 11.1074C7.95117 11.8984 9.03516 12.8457 9.70898 13.3242C10.2852 13.7344 11.0273 13.7637 11.6133 13.1777L12.3848 12.3965C12.7266 12.0547 13.0879 12.084 13.4102 12.2988L16.0859 14.0859C16.3691 14.2813 16.4863 14.5254 16.4863 14.8086C16.4863 15.1016 16.3398 15.4238 16.0566 15.7461C16.0078 15.7949 15.9785 15.834 15.9297 15.8926C15.2656 16.6348 14.3672 16.9766 13.332 16.9961Z" fill="#003054"/>
</svg>
