<svg role="img" aria-label="Pin Icon" width="15" height="22" viewBox="0 0 15 22" fill="none" xmlns="http://www.w3.org/2000/svg">
<path id="pin" d="M2.25781 14.334H7.27734V18.9922C7.27734 20.2422 7.79492 21.3066 8 21.3066C8.20508 21.3066 8.71289 20.2422 8.71289 18.9922V14.334H13.7324C14.5039 14.334 14.9922 13.8652 14.9922 13.1426C14.9922 11.1895 13.4395 9.24609 11.0371 8.32812L10.7344 3.99219C11.8281 3.26953 12.9512 2.40039 13.4199 1.75586C13.6445 1.47266 13.752 1.17969 13.752 0.925781C13.752 0.408203 13.3516 0.0175781 12.7461 0.0175781H3.25391C2.63867 0.0175781 2.23828 0.408203 2.23828 0.925781C2.23828 1.17969 2.3457 1.47266 2.57031 1.75586C3.03906 2.40039 4.16211 3.26953 5.25586 3.99219L4.96289 8.32812C2.56055 9.24609 0.998047 11.1895 0.998047 13.1426C0.998047 13.8652 1.49609 14.334 2.25781 14.334ZM6.52539 3.42578C6.53516 3.29883 6.51562 3.25977 6.4375 3.21094C5.10938 2.52734 3.95703 1.58984 3.89844 1.3457C3.83984 1.22852 3.91797 1.15039 4.02539 1.15039H11.9648C12.082 1.15039 12.1504 1.22852 12.0918 1.3457C12.0332 1.58984 10.8809 2.52734 9.55273 3.21094C9.47461 3.25977 9.45508 3.29883 9.46484 3.42578L9.74805 7.95703C9.19141 7.84961 8.60547 7.78125 8 7.78125C7.38477 7.78125 6.79883 7.84961 6.24219 7.95703L6.52539 3.42578ZM2.55078 13.1328C2.3457 13.1328 2.22852 13.0059 2.25781 12.7617C2.42383 10.9355 4.66992 8.95312 8 8.95312C11.3301 8.95312 13.5762 10.9355 13.7324 12.7617C13.7617 13.0059 13.6543 13.1328 13.4395 13.1328H2.55078Z" fill="#003054"/>
</svg>
