<?xml version="1.0" encoding="UTF-8"?>
<svg role="img" aria-label="Profil Icon" width="20px" height="20px" viewBox="0 0 20 20" version="1.1" xmlns="http://www.w3.org/2000/svg" xmlns:xlink="http://www.w3.org/1999/xlink">
    <title>profil</title>
    <g id="Icons" stroke="none" stroke-width="1" fill="none" fill-rule="evenodd">
        <g id="profil">
            <rect id="Rectangle" x="0" y="0" width="20" height="20"></rect>
            <path d="M10.2198047,10.4384766 C10.8174609,10.4384766 11.3611621,10.2793783 11.8509082,9.96118164 C12.3406543,9.64298503 12.7294076,9.21549479 13.017168,8.67871094 C13.3049284,8.14192708 13.4488086,7.54150391 13.4488086,6.87744141 C13.4488086,6.24104818 13.3035449,5.65999349 13.0130176,5.13427734 C12.7224902,4.6085612 12.3323535,4.18937174 11.8426074,3.87670898 C11.3528613,3.56404622 10.8119271,3.40771484 10.2198047,3.40771484 C9.62214844,3.40771484 9.07844727,3.56404622 8.58870117,3.87670898 C8.09895508,4.18937174 7.7074349,4.60994466 7.41414063,5.13842773 C7.12084635,5.66691081 6.97696615,6.24934896 6.9825,6.88574219 C6.98803385,7.54980469 7.13468099,8.15022786 7.42244141,8.68701172 C7.71020182,9.22379557 8.09757162,9.64990234 8.58455078,9.96533203 C9.07152995,10.2807617 9.61661458,10.4384766 10.2198047,10.4384766 Z M10.2198047,9.68310547 C9.76602865,9.68310547 9.35375651,9.55997721 8.98298828,9.3137207 C8.61222005,9.06746419 8.31754232,8.73266602 8.09895508,8.30932617 C7.88036784,7.88598633 7.77107422,7.41145833 7.77107422,6.88574219 C7.77107422,6.38216146 7.88036784,5.92423503 8.09895508,5.51196289 C8.31754232,5.09969076 8.61360352,4.7718099 8.98713867,4.52832031 C9.36067383,4.28483073 9.7715625,4.16308594 10.2198047,4.16308594 C10.6680469,4.16308594 11.0761686,4.28344727 11.4441699,4.52416992 C11.8121712,4.76489258 12.106849,5.09138997 12.3282031,5.50366211 C12.5495573,5.91593424 12.6602344,6.37386068 12.6602344,6.87744141 C12.6602344,7.40315755 12.5509408,7.87768555 12.3323535,8.30102539 C12.1137663,8.72436523 11.820472,9.06054688 11.4524707,9.30957031 C11.0844694,9.55859375 10.6735807,9.68310547 10.2198047,9.68310547 Z M15.3413867,17.5771484 C16.3762174,17.5771484 16.8936328,17.2119141 16.8936328,16.4814453 C16.8936328,15.9667969 16.7400684,15.4258626 16.4329395,14.8586426 C16.1258105,14.2914225 15.6817188,13.7574056 15.1006641,13.2565918 C14.5196094,12.755778 13.8168099,12.3476562 12.9922656,12.0322266 C12.1677214,11.7167969 11.2380339,11.559082 10.2032031,11.559082 C9.1683724,11.559082 8.2386849,11.7167969 7.41414063,12.0322266 C6.58959635,12.3476562 5.88679688,12.755778 5.30574219,13.2565918 C4.7246875,13.7574056 4.2805957,14.2914225 3.9734668,14.8586426 C3.66633789,15.4258626 3.51277344,15.9667969 3.51277344,16.4814453 C3.51277344,17.2119141 4.0301888,17.5771484 5.06501953,17.5771484 L15.3413867,17.5771484 Z M15.5074023,16.8217773 L4.89900391,16.8217773 C4.67211589,16.8217773 4.51578451,16.7913411 4.43000977,16.7304688 C4.34423503,16.6695964 4.30134766,16.5616862 4.30134766,16.4067383 C4.30134766,16.0083008 4.43277669,15.5725098 4.69563477,15.0993652 C4.95849284,14.6262207 5.3430957,14.179362 5.84944336,13.7587891 C6.35579102,13.3382161 6.97419922,12.9923503 7.70466797,12.7211914 C8.43513672,12.4500326 9.26798177,12.3144531 10.2032031,12.3144531 C11.1384245,12.3144531 11.9712695,12.4500326 12.7017383,12.7211914 C13.432207,12.9923503 14.0506152,13.3382161 14.5569629,13.7587891 C15.0633105,14.179362 15.4479134,14.6262207 15.7107715,15.0993652 C15.9736296,15.5725098 16.1050586,16.0083008 16.1050586,16.4067383 C16.1050586,16.5616862 16.0621712,16.6695964 15.9763965,16.7304688 C15.8906217,16.7913411 15.7342904,16.8217773 15.5074023,16.8217773 Z" fill="#0091FF" fill-rule="nonzero"></path>
        </g>
    </g>
</svg>