<?xml version="1.0" encoding="UTF-8"?>
<svg width="17px" height="17px" viewBox="0 0 17 17" version="1.1" xmlns="http://www.w3.org/2000/svg" xmlns:xlink="http://www.w3.org/1999/xlink">
    <title>profil</title>
    <g id="Icons" stroke="none" stroke-width="1" fill="none" fill-rule="evenodd">
        <g id="profil" transform="translate(-17.000000, -16.000000)" fill="#0091FF" fill-rule="nonzero">
            <path d="M25.2062804,24.4863281 C25.9289366,24.4863281 26.5897439,24.2926432 27.1887022,23.9052734 C27.7876606,23.5179036 28.2645486,22.9970703 28.6193663,22.3427734 C28.974184,21.6884766 29.1515929,20.9674479 29.1515929,20.1796875 C29.1515929,19.4049479 28.9758116,18.7018229 28.6242491,18.0703125 C28.2726866,17.4388021 27.7974262,16.9342448 27.1984679,16.5566406 C26.5995095,16.1790365 25.935447,15.9902344 25.2062804,15.9902344 C24.4836241,15.9902344 23.8228168,16.1806641 23.2238585,16.5615234 C22.6249001,16.9423828 22.1480121,17.4501953 21.7931944,18.0849609 C21.4383767,18.7197266 21.2642231,19.4244792 21.2707335,20.1992188 C21.2707335,20.9869792 21.4465147,21.7047526 21.7980772,22.3525391 C22.1496397,23.0003255 22.6249001,23.5179036 23.2238585,23.9052734 C23.8228168,24.2926432 24.4836241,24.4863281 25.2062804,24.4863281 Z M25.2062804,23.2167969 C24.7375304,23.2167969 24.3062152,23.0833333 23.912335,22.8164062 C23.5184548,22.5494792 23.2043272,22.188151 22.9699522,21.7324219 C22.7355772,21.2766927 22.6183897,20.765625 22.6183897,20.1992188 C22.6183897,19.6523438 22.7339496,19.1559245 22.9650694,18.7099609 C23.1961892,18.2639974 23.5086892,17.9124349 23.9025694,17.6552734 C24.2964496,17.398112 24.7310199,17.2695312 25.2062804,17.2695312 C25.6880512,17.2695312 26.1242491,17.3964844 26.5148741,17.6503906 C26.9054991,17.9042969 27.2179991,18.2526042 27.4523741,18.6953125 C27.6867491,19.1380208 27.8039366,19.6328125 27.8039366,20.1796875 C27.8039366,20.7460938 27.6851215,21.2587891 27.4474913,21.7177734 C27.2098611,22.1767578 26.8957335,22.5413411 26.5051085,22.8115234 C26.1144835,23.0817057 25.6815408,23.2167969 25.2062804,23.2167969 Z M31.0656554,32.9921875 C32.5044574,32.9921875 33.2238585,32.5169271 33.2238585,31.5664062 C33.2238585,30.9609375 33.0399392,30.3180339 32.6721007,29.6376953 C32.3042621,28.9573568 31.7720356,28.3177083 31.075421,27.71875 C30.3788064,27.1197917 29.5357074,26.6298828 28.5461241,26.2490234 C27.5565408,25.8681641 26.4432595,25.6777344 25.2062804,25.6777344 C23.9562804,25.6777344 22.8364887,25.8681641 21.8469054,26.2490234 C20.857322,26.6298828 20.0142231,27.1197917 19.3176085,27.71875 C18.6209939,28.3177083 18.0903949,28.9573568 17.7258116,29.6376953 C17.3612283,30.3180339 17.1789366,30.9609375 17.1789366,31.5664062 C17.1789366,32.5169271 17.8983376,32.9921875 19.3371397,32.9921875 L31.0656554,32.9921875 Z M31.4465147,31.7226562 L18.9562804,31.7226562 C18.8000304,31.7226562 18.6909809,31.6998698 18.6291319,31.6542969 C18.567283,31.608724 18.5363585,31.5273438 18.5363585,31.4101562 C18.5363585,31.0130208 18.6812152,30.5589193 18.9709288,30.0478516 C19.2606423,29.5367839 19.6903298,29.046875 20.2599913,28.578125 C20.8296527,28.109375 21.5278949,27.7203776 22.3547179,27.4111328 C23.1815408,27.101888 24.1320616,26.9472656 25.2062804,26.9472656 C26.2674783,26.9472656 27.2131163,27.101888 28.0431944,27.4111328 C28.8732725,27.7203776 29.5715147,28.109375 30.137921,28.578125 C30.7043272,29.046875 31.1356423,29.5367839 31.4318663,30.0478516 C31.7280902,30.5589193 31.8762022,31.0130208 31.8762022,31.4101562 C31.8762022,31.5273438 31.8436501,31.608724 31.778546,31.6542969 C31.7134418,31.6998698 31.6027647,31.7226562 31.4465147,31.7226562 Z"></path>
        </g>
    </g>
</svg>