<?xml version="1.0" encoding="UTF-8"?>
<svg width="494px" height="569px" viewBox="0 0 494 569" version="1.1" xmlns="http://www.w3.org/2000/svg" xmlns:xlink="http://www.w3.org/1999/xlink">
    <title>Shape Copy</title>
    <g id="Page-1" stroke="none" stroke-width="1" fill="none" fill-rule="evenodd">
        <g id="Desktop-HD-Copy" fill="#FFFFFF" fill-rule="nonzero">
            <path d="M242.268166,492.650756 C108.096225,490.475363 0,381.032234 0,246.34188 C0,110.291016 110.291016,0 246.34188,0 C382.392743,0 492.683759,110.291016 492.683759,246.34188 C492.683759,312.431962 466.657598,372.443309 424.295231,416.685963 C427.317684,418.780372 430.342342,420.947935 433.369805,423.183233 L434.812352,424.251084 L437.618552,426.346074 C439.459531,427.728943 441.247855,429.089969 443.025467,430.463582 L446.163088,432.910232 L449.116751,435.254607 L452.137528,437.692829 L456.187226,441.02077 L460.009839,444.215686 L465.181741,448.603656 L470.304122,453.00437 L479.368593,460.877259 L489.861218,470.079871 C493.7145,473.459412 494.187497,479.259086 491.000767,483.212494 L490.732003,483.531589 L418.385557,565.766546 C414.914209,569.712367 408.90284,570.100778 404.952576,566.634487 L397.022767,559.676213 L389.08454,552.764644 L383.29938,547.777626 L378.649183,543.819405 L374.464256,540.314009 L371.376674,537.773811 L368.103307,535.133281 L366.000489,533.468901 L365.219027,532.857014 L363.279025,531.353556 L361.730493,530.169032 C360.179658,528.989424 358.616787,527.820317 356.995745,526.623436 C354.350129,524.670072 351.740427,522.813229 349.152919,521.049871 L347.216234,519.744834 L345.286586,518.474569 C317.030389,500.097624 290.629535,492.848705 247.822465,492.686548 L246.34188,492.683759 L242.268166,492.650756 Z M246.34188,128.580219 C181.30391,128.580219 128.580219,181.30391 128.580219,246.34188 C128.580219,311.379849 181.30391,364.10354 246.34188,364.10354 C311.379849,364.10354 364.10354,311.379849 364.10354,246.34188 C364.10354,181.30391 311.379849,128.580219 246.34188,128.580219 Z" id="Shape-Copy"></path>
        </g>
    </g>
</svg>