<svg role="img" aria-label="Reactangle Bubble" width="22" height="20" viewBox="0 0 22 20" fill="none" xmlns="http://www.w3.org/2000/svg">
<path id="rectangle-3-offgrid-bubble-left" d="M6.36133 19.3398C6.76172 19.3398 7.03516 19.125 7.50391 18.7148L10.7266 15.873H17.0352C19.6328 15.873 21.0781 14.3887 21.0781 11.8301V4.54492C21.0781 1.98633 19.6328 0.511719 17.0352 0.511719H4.96484C2.36719 0.511719 0.921875 1.97656 0.921875 4.54492V11.8301C0.921875 14.3984 2.36719 15.873 4.96484 15.873H5.49219V18.3242C5.49219 18.9395 5.81445 19.3398 6.36133 19.3398ZM6.68359 17.8848V15.1992C6.68359 14.7598 6.51758 14.5938 6.08789 14.5938H4.96484C3.11914 14.5938 2.20117 13.6074 2.20117 11.8203V4.55469C2.20117 2.76758 3.11914 1.78125 4.96484 1.78125H17.0254C18.8516 1.78125 19.7988 2.76758 19.7988 4.55469V11.8203C19.7988 13.6074 18.8516 14.5938 17.0254 14.5938H10.6973C10.248 14.5938 10.0137 14.6621 9.69141 14.9941L6.68359 17.8848ZM5.51172 7.92383H9.7207C10.3262 7.92383 10.6387 7.62109 10.6387 7.00586V5.0332C10.6387 4.41797 10.3262 4.125 9.7207 4.125H5.51172C4.89648 4.125 4.58398 4.41797 4.58398 5.0332V7.00586C4.58398 7.62109 4.89648 7.92383 5.51172 7.92383ZM13.2656 11.6543H16.2832C16.8887 11.6543 17.2012 11.3613 17.2012 10.7461V5.6875C17.2012 5.0625 16.8887 4.76953 16.2832 4.76953H13.2656C12.6504 4.76953 12.3477 5.0625 12.3477 5.6875V10.7461C12.3477 11.3613 12.6504 11.6543 13.2656 11.6543ZM6.6543 12.2305H10.2773C10.8926 12.2305 11.1953 11.9375 11.1953 11.3125V9.93555C11.1953 9.32031 10.8926 9.02734 10.2773 9.02734H6.6543C6.03906 9.02734 5.72656 9.32031 5.72656 9.93555V11.3125C5.72656 11.9375 6.03906 12.2305 6.6543 12.2305Z" fill="#003054"/>
</svg>
