<?xml version="1.0" encoding="UTF-8"?>
<svg role="img" aria-label="Star Icon" width="16px" height="15px" viewBox="0 0 16 15" version="1.1" xmlns="http://www.w3.org/2000/svg" xmlns:xlink="http://www.w3.org/1999/xlink">
    <title>star</title>
    <g id="Page-1" stroke="none" stroke-width="1" fill="none" fill-rule="evenodd">
        <g id="Projekt-Copy-6" transform="translate(-155.000000, -2502.000000)" fill="#0091FF" fill-rule="nonzero">
            <path d="M167.533798,2516.68506 C167.685165,2516.56787 167.777939,2516.41406 167.812119,2516.22363 C167.846298,2516.0332 167.819443,2515.80615 167.731552,2515.54248 L166.296005,2511.27246 L169.958115,2508.65039 C170.182724,2508.48438 170.340195,2508.3147 170.430527,2508.14136 C170.520859,2507.96802 170.534286,2507.79102 170.47081,2507.61035 C170.412216,2507.42969 170.295029,2507.29419 170.119247,2507.20386 C169.943466,2507.11353 169.718857,2507.0708 169.445419,2507.07568 L164.948349,2507.10498 L163.586044,2502.81299 C163.498154,2502.54443 163.385849,2502.3418 163.24913,2502.20508 C163.112411,2502.06836 162.946396,2502 162.751083,2502 C162.560654,2502 162.397079,2502.06836 162.260361,2502.20508 C162.123642,2502.3418 162.011337,2502.54443 161.923447,2502.81299 L160.561142,2507.10498 L156.071396,2507.07568 C155.793076,2507.0708 155.567245,2507.11353 155.393906,2507.20386 C155.220566,2507.29419 155.102158,2507.42725 155.038681,2507.60303 C154.975204,2507.78857 154.989853,2507.96802 155.082626,2508.14136 C155.1754,2508.3147 155.334091,2508.48438 155.558701,2508.65039 L159.22081,2511.27246 L157.785263,2515.54248 C157.697372,2515.80615 157.669296,2516.0332 157.701035,2516.22363 C157.732773,2516.41406 157.824326,2516.56787 157.975693,2516.68506 C158.131943,2516.80225 158.306503,2516.84375 158.499374,2516.80957 C158.692245,2516.77539 158.900986,2516.67529 159.125595,2516.50928 L162.751083,2513.84326 L166.383896,2516.50928 C166.613388,2516.67529 166.82457,2516.77539 167.017441,2516.80957 C167.210312,2516.84375 167.382431,2516.80225 167.533798,2516.68506 Z" id="star"></path>
        </g>
    </g>
</svg>