<svg role="img" aria-label="Trash Red Icon" width="18" height="21" viewBox="0 0 18 21" fill="none" xmlns="http://www.w3.org/2000/svg">
<path d="M4.80078 20.4297H13.209C14.4492 20.4297 15.3086 19.5898 15.377 18.3594L16.041 4.72656H17.2715C17.6035 4.72656 17.8672 4.45312 17.8672 4.12109C17.8672 3.78906 17.6035 3.52539 17.2715 3.52539H12.9746V2.05078C12.9746 0.771484 12.1445 0 10.7773 0H7.20312C5.8457 0 5.01562 0.771484 5.01562 2.05078V3.52539H0.728516C0.40625 3.52539 0.123047 3.79883 0.123047 4.12109C0.123047 4.45312 0.40625 4.72656 0.728516 4.72656H1.96875L2.63281 18.3691C2.69141 19.5996 3.55078 20.4297 4.80078 20.4297ZM6.27539 2.12891C6.27539 1.55273 6.66602 1.18164 7.28125 1.18164H10.6992C11.3145 1.18164 11.7148 1.55273 11.7148 2.12891V3.52539H6.27539V2.12891ZM4.9082 19.2285C4.3418 19.2285 3.90234 18.7988 3.88281 18.2227L3.20898 4.72656H14.752L14.1172 18.2227C14.0879 18.7988 13.6582 19.2285 13.082 19.2285H4.9082ZM6.24609 17.5293C6.55859 17.5293 6.76367 17.3242 6.75391 17.0508L6.46094 6.96289C6.45117 6.67969 6.24609 6.49414 5.95312 6.49414C5.65039 6.49414 5.44531 6.68945 5.45508 6.97266L5.74805 17.0508C5.75781 17.334 5.95312 17.5293 6.24609 17.5293ZM9 17.5293C9.3125 17.5293 9.51758 17.334 9.51758 17.0508V6.97266C9.51758 6.68945 9.3125 6.49414 9 6.49414C8.69727 6.49414 8.48242 6.68945 8.48242 6.97266V17.0508C8.48242 17.334 8.69727 17.5293 9 17.5293ZM11.7539 17.5293C12.0469 17.5293 12.2422 17.3438 12.252 17.0508L12.5449 6.98242C12.5547 6.68945 12.3496 6.50391 12.0469 6.50391C11.7637 6.50391 11.5488 6.68945 11.5391 6.97266L11.2461 17.0508C11.2461 17.334 11.4414 17.5293 11.7539 17.5293Z" fill="#EB5757"/>
</svg>
