<svg width="18" height="21" viewBox="0 0 18 21" fill="none" xmlns="http://www.w3.org/2000/svg">
<path d="M4.80078 20.7734H13.209C14.4492 20.7734 15.3086 19.9336 15.377 18.7031L16.041 5.07031H17.2715C17.6035 5.07031 17.8672 4.79688 17.8672 4.46484C17.8672 4.13281 17.6035 3.86914 17.2715 3.86914H12.9746V2.39453C12.9746 1.11523 12.1445 0.34375 10.7773 0.34375H7.20312C5.8457 0.34375 5.01562 1.11523 5.01562 2.39453V3.86914H0.728516C0.40625 3.86914 0.123047 4.14258 0.123047 4.46484C0.123047 4.79688 0.40625 5.07031 0.728516 5.07031H1.96875L2.63281 18.7129C2.69141 19.9434 3.55078 20.7734 4.80078 20.7734ZM6.27539 2.47266C6.27539 1.89648 6.66602 1.52539 7.28125 1.52539H10.6992C11.3145 1.52539 11.7148 1.89648 11.7148 2.47266V3.86914H6.27539V2.47266ZM4.9082 19.5723C4.3418 19.5723 3.90234 19.1426 3.88281 18.5664L3.20898 5.07031H14.752L14.1172 18.5664C14.0879 19.1426 13.6582 19.5723 13.082 19.5723H4.9082ZM6.24609 17.873C6.55859 17.873 6.76367 17.668 6.75391 17.3945L6.46094 7.30664C6.45117 7.02344 6.24609 6.83789 5.95312 6.83789C5.65039 6.83789 5.44531 7.0332 5.45508 7.31641L5.74805 17.3945C5.75781 17.6777 5.95312 17.873 6.24609 17.873ZM9 17.873C9.3125 17.873 9.51758 17.6777 9.51758 17.3945V7.31641C9.51758 7.0332 9.3125 6.83789 9 6.83789C8.69727 6.83789 8.48242 7.0332 8.48242 7.31641V17.3945C8.48242 17.6777 8.69727 17.873 9 17.873ZM11.7539 17.873C12.0469 17.873 12.2422 17.6875 12.252 17.3945L12.5449 7.32617C12.5547 7.0332 12.3496 6.84766 12.0469 6.84766C11.7637 6.84766 11.5488 7.0332 11.5391 7.31641L11.2461 17.3945C11.2461 17.6777 11.4414 17.873 11.7539 17.873Z" fill="#003054"/>
</svg>
