<svg width="13" height="15" viewBox="0 0 13 15" fill="none" xmlns="http://www.w3.org/2000/svg">
<path fill-rule="evenodd" clip-rule="evenodd" d="M5.53487 4.62467C5.53801 4.75907 5.54116 4.89347 5.54431 5.02787C5.10453 5.4869 4.66477 5.94593 4.22562 6.40497C4.05072 6.58742 3.80409 6.6439 3.57068 6.55495C3.08436 6.36926 2.59864 6.18356 2.11295 5.99722C1.6933 5.65052 1.27305 5.3038 0.853401 4.95775C0.750222 4.8727 0.601743 4.88309 0.511146 4.98242C0.363927 5.14344 0.216082 5.30511 0.0688566 5.46613C-0.0255156 5.56937 -0.02237 5.73169 0.0751482 5.83102C0.489123 6.25305 0.903099 6.67506 1.31707 7.09709C1.33343 7.11397 1.34224 7.13475 1.34224 7.15877C1.34224 7.1776 1.33721 7.19448 1.32714 7.20876C1.3177 7.2224 1.31456 7.23798 1.3177 7.25421C1.32085 7.27044 1.32966 7.28343 1.3435 7.29252C2.09343 7.77103 2.84338 8.24953 3.59336 8.72804C3.75505 8.83128 3.9375 8.84881 4.11493 8.77869C4.20426 8.74362 4.29298 8.70792 4.38232 8.67286C4.51381 8.62091 4.65474 8.65467 4.75038 8.76116C4.75289 8.7644 4.75541 8.767 4.75855 8.7696C4.87369 8.8975 4.87998 9.09098 4.77302 9.22668C4.01617 10.185 3.25994 11.1426 2.50303 12.1016C1.91479 11.8783 1.33659 11.7621 0.773556 11.7945C1.46876 12.6347 2.20737 13.4034 3.02648 14.0377C3.15042 14.1338 3.2731 14.2033 3.4285 14.2007C3.5839 14.1975 3.71666 14.1371 3.8236 14.0215C4.99569 12.7548 6.1672 11.4874 7.33924 10.2207C8.52958 11.2187 9.71989 12.2173 10.9103 13.2152C10.6114 13.8099 10.4347 14.4047 10.4082 15C11.4136 14.5864 12.1812 13.8638 12.8651 13.0347C13.0494 12.8114 13.0444 12.4854 12.8531 12.2686C11.6665 10.9207 10.4794 9.57278 9.29285 8.22496C8.80337 7.10238 8.31327 5.97911 7.82316 4.85585C7.8477 4.70197 7.87287 4.54874 7.8974 4.39552C8.17612 3.98584 8.45545 3.57679 8.73416 3.16711C9.32304 3.19244 9.91192 3.21841 10.5015 3.24373C10.024 2.91715 9.54644 2.59121 9.06956 2.26464C9.05698 1.97701 9.04502 1.68875 9.03244 1.40112C8.05286 0.933646 7.07329 0.466823 6.09372 0C5.8578 0.236985 5.62249 0.473322 5.38719 0.710291C4.92854 0.6142 4.4699 0.518116 4.01062 0.422661C4.36987 0.736253 4.72972 1.04985 5.0896 1.36345C4.92161 1.60238 4.75427 1.84131 4.58628 2.08024C4.56175 2.1153 4.53406 2.14127 4.49694 2.1627C4.37237 2.23542 4.24717 2.30814 4.12261 2.38085C4.21887 2.48539 4.31512 2.58991 4.41139 2.69445C4.46675 2.75418 4.49255 2.82625 4.48877 2.90806C4.47808 3.14894 4.46675 3.38981 4.45606 3.6307C4.44536 3.86963 4.5605 4.08064 4.76435 4.19491C5.02104 4.33645 5.27817 4.48055 5.53487 4.62467Z" fill="white"/>
</svg>
